<?xml version="1.0" encoding="UTF-8"?>
<svg width="25px" height="25px" viewBox="0 0 25 25" version="1.1" xmlns="http://www.w3.org/2000/svg" xmlns:xlink="http://www.w3.org/1999/xlink">
    <!-- Generator: Sketch 64 (93537) - https://sketch.com -->
    <title>delivery-start</title>
    <desc>Created with Sketch.</desc>
    <g id="Restaurant" stroke="none" stroke-width="1" fill="none" fill-rule="evenodd">
        <g id="Reach-Destination-with-down-widow" transform="translate(-58.000000, -655.000000)">
            <g id="drop-down-date-window" transform="translate(-1.000000, 492.000000)">
                <g id="Delivery-process-icons" transform="translate(53.000000, 162.000000)">
                    <g id="delivery-start" transform="translate(5.000000, 0.000000)">
                        <g id="Order_received-2">
                            <circle id="Ellipse_2374" cx="13.5" cy="13.5" r="8.5"></circle>
                            <g id="ic_50_sd">
                                <polygon id="Path_14647" points="0 0 26.895 0 26.895 26.895 0 26.895"></polygon>
                                <path d="M13.447,22.721 C8.32511123,22.721 4.173,18.5688888 4.173,13.447 C4.173,8.32511123 8.32511123,4.173 13.447,4.173 C18.5688888,4.173 22.721,8.32511123 22.721,13.447 C22.721,15.9066177 21.7439207,18.2654959 20.0047083,20.0047083 C18.2654959,21.7439207 15.9066177,22.721 13.447,22.721 Z M13.441,21.8000002 C18.0506601,21.7983432 21.7862881,18.0603275 21.7849999,13.4506673 C21.7837111,8.84100714 18.0459939,5.10508047 13.4363336,5.10600054 C8.82667332,5.10692094 5.09044804,8.84433965 5.091,13.454 C5.09126517,15.6679353 5.97107034,17.7910737 7.53684033,19.356281 C9.10261032,20.9214884 11.2260647,21.8005305 13.44,21.8000002 L13.441,21.8000002 Z M13.002,14.1 C13.0372568,14.7398362 12.8349848,15.3701554 12.434,15.87 C12.034708,16.2866816 11.4826114,16.5222895 10.9055,16.5222895 C10.3283886,16.5222895 9.77629201,16.2866816 9.377,15.87 C8.97337542,15.3713294 8.76919145,14.740604 8.804,14.1 L8.804,12.167 C8.77030855,11.5285905 8.97246039,10.9000691 9.372,10.401 C9.76984308,9.98168201 10.3224804,9.74421955 10.9005,9.74421955 C11.4785196,9.74421955 12.0311569,9.98168201 12.429,10.401 C12.8315093,10.8987197 13.0356139,11.5277749 13.002,12.167 L13.002,14.1 Z M12.11,11.976 C12.1319654,11.5768515 12.0204357,11.1817476 11.793,10.853 C11.5791338,10.5757537 11.2426517,10.4213458 10.893,10.44 C10.5469583,10.4225671 10.2146295,10.57713 10.005,10.853 C9.78050406,11.1829161 9.67086071,11.5775619 9.693,11.976 L9.693,14.281 C9.67148981,14.6819507 9.78369069,15.0786986 10.012,15.409 C10.2331654,15.672092 10.5592973,15.8239907 10.903,15.8239907 C11.2467027,15.8239907 11.5728346,15.672092 11.794,15.409 C12.0191753,15.0767324 12.1291306,14.6797692 12.107,14.279 L12.107,11.979 L12.11,11.976 Z M18.223,14.1 C18.2582568,14.7398362 18.0559848,15.3701554 17.655,15.87 C17.255708,16.2866816 16.7036114,16.5222895 16.1265,16.5222895 C15.5493886,16.5222895 14.997292,16.2866816 14.598,15.87 C14.1941194,15.3714682 13.9899026,14.7406416 14.025,14.1 L14.025,12.167 C13.9913085,11.5285905 14.1934604,10.9000691 14.593,10.401 C14.9908431,9.98168201 15.5434804,9.74421955 16.1215,9.74421955 C16.6995196,9.74421955 17.2521569,9.98168201 17.65,10.401 C18.0525093,10.8987197 18.2566139,11.5277749 18.223,12.167 L18.223,14.105 L18.223,14.1 Z M17.331,11.976 C17.3529654,11.5768515 17.2414357,11.1817476 17.014,10.853 C16.8001338,10.5757537 16.4636517,10.4213458 16.114,10.44 C15.7679239,10.4223906 15.4355166,10.5769899 15.226,10.853 C15.0011512,11.182793 14.8911537,11.5774487 14.913,11.976 L14.913,14.281 C14.8912607,14.6819762 15.0034822,15.0787969 15.232,15.409 C15.4531654,15.672092 15.7792973,15.8239907 16.123,15.8239907 C16.4667027,15.8239907 16.7928346,15.672092 17.014,15.409 C17.2386193,15.0765161 17.3482013,14.6796325 17.326,14.279 L17.331,11.976 Z M2.182,5.428 C2.0658144,5.54999488 1.89263271,5.59942979 1.72955499,5.55715093 C1.56647727,5.51487208 1.43912792,5.38752273 1.39684907,5.22444501 C1.35457021,5.06136729 1.40400512,4.8881856 1.526,4.772 L4.772,1.526 C4.8881856,1.40400512 5.06136729,1.35457021 5.22444501,1.39684907 C5.38752273,1.43912792 5.51487208,1.56647727 5.55715093,1.72955499 C5.59942979,1.89263271 5.54999488,2.0658144 5.428,2.182 L2.182,5.428 Z M25.291,4.771 C25.4129949,4.8871856 25.4624298,5.06036729 25.4201509,5.22344501 C25.3778721,5.38652273 25.2505227,5.51387208 25.087445,5.55615093 C24.9243673,5.59842979 24.7511856,5.54899488 24.635,5.427 L21.391,2.181 C21.2690051,2.0648144 21.2195702,1.89163271 21.2618491,1.72855499 C21.3041279,1.56547727 21.4314773,1.43812792 21.594555,1.39584907 C21.7576327,1.35357021 21.9308144,1.40300512 22.047,1.525 L25.291,4.771 Z M21.884,6.185 C21.8709583,6.17304294 21.8586051,6.1603559 21.847,6.147 C18.9487431,2.80826506 14.349123,1.50154134 10.1284055,2.81781951 C5.90768805,4.13409769 2.86625057,7.82377108 2.37964108,12.2181146 C1.89303159,16.6124582 4.05352616,20.8781698 7.884,23.086 C7.8991877,23.094852 7.91387659,23.1045333 7.928,23.115 C12.0370108,25.4592452 17.1787944,24.9507215 20.749,21.847 C20.9428539,21.6846341 21.2310218,21.7073849 21.3969953,21.8981591 C21.5629689,22.0889333 21.5456274,22.3774772 21.358,22.547 C16.6224084,26.6599764 9.52442325,26.45551 5.03344675,22.0767507 C0.542470254,17.6979915 0.158494877,10.6074511 4.15034734,5.76931965 C8.14219981,0.931188156 15.1765958,-0.0385917405 20.3286528,3.53893691 C25.4807097,7.11646555 27.0296335,14.0464031 23.891,19.477 C23.8160368,19.6350807 23.6585288,19.7375563 23.4836319,19.7420362 C23.308735,19.7465161 23.1461874,19.6522384 23.0632295,19.4982028 C22.9802716,19.3441671 22.991009,19.1565646 23.091,19.013 C25.4575276,14.9164345 24.97625,9.77157696 21.891,6.185 L21.884,6.185 Z" id="Path_14648" fill="#333333"></path>
                            </g>
                        </g>
                    </g>
                </g>
            </g>
        </g>
    </g>
</svg>