<?xml version="1.0" encoding="UTF-8"?>
<svg width="19px" height="18px" viewBox="0 0 19 18" version="1.1" xmlns="http://www.w3.org/2000/svg" xmlns:xlink="http://www.w3.org/1999/xlink">
    <!-- Generator: Sketch 64 (93537) - https://sketch.com -->
    <title>Cart</title>
    <desc>Created with Sketch.</desc>
    <g id="Restaurant" stroke="none" stroke-width="1" fill="none" fill-rule="evenodd">
        <g id="singel-product-page" transform="translate(-301.000000, -739.000000)" fill="#1A171B" fill-rule="nonzero">
            <g id="Content" transform="translate(0.000000, 309.000000)">
                <g id="Button-Create-Account" transform="translate(36.000000, 411.000000)">
                    <g id="Cart" transform="translate(264.000000, 19.000000)">
                        <g id="cart-2">
                            <ellipse id="Ellipse_239" cx="15.7470588" cy="15.7608" rx="1" ry="1"></ellipse>
                            <path d="M19.0588235,6.1092 C18.8397525,5.73921579 18.4646127,5.49402299 18.0435294,5.4456 L12.8035294,4.8252 L12.8035294,2.76 C12.8035294,2.60359296 12.6792226,2.4768 12.5258824,2.4768 C12.3725421,2.4768 12.2482353,2.60359296 12.2482353,2.76 L12.2482353,7.5072 C12.2482353,7.66360704 12.3725421,7.7904 12.5258824,7.7904 L13.6294118,7.7904 L11.1752941,10.2936 L8.72117647,7.7904 L9.87058824,7.7904 C10.0239285,7.7904 10.1482353,7.66360704 10.1482353,7.5072 L10.1482353,2.4456 C10.1482353,2.28919296 10.0239285,2.1624 9.87058824,2.1624 C9.717248,2.1624 9.59294118,2.28919296 9.59294118,2.4456 L9.59294118,4.44 L4.27764706,3.8112 C4.14629262,2.19645335 2.8249913,0.952998921 1.23647059,0.9492 C1.08313035,0.9492 0.958823529,1.07599296 0.958823529,1.2324 C0.958823529,1.38880704 1.08313035,1.5156 1.23647059,1.5156 C2.61664481,1.5169231 3.73517343,2.6578223 3.73647059,4.0656 L3.73647059,13.8936 C2.79777265,14.0382137 2.11914635,14.884696 2.16656344,15.8518187 C2.21398052,16.8189414 2.9720182,17.5921399 3.92017771,17.6405053 C4.86833723,17.6888707 5.69822191,16.9966719 5.84,16.0392 L13.9223529,16.0392 C14.0675856,17.0147621 14.9253709,17.711327 15.8900233,17.6370476 C16.8546756,17.5627682 17.6002165,16.7427451 17.6002165,15.756 C17.6002165,14.7692549 16.8546756,13.9492318 15.8900233,13.8749524 C14.9253709,13.800673 14.0675856,14.4972379 13.9223529,15.4728 L5.84,15.4728 C5.71766018,14.6572173 5.09017915,14.0171866 4.29058824,13.8924 L4.29058824,12.6324 L15.6470588,12.6324 C16.5721745,12.6287314 17.4003307,12.0465278 17.7329412,11.166 L19.1682353,7.326 C19.31757,6.92487719 19.2772012,6.47592321 19.0588235,6.1092 Z M15.7470588,14.4396 C16.4583795,14.4397451 17.0362424,15.0254439 17.04089,15.7509755 C17.0455376,16.476507 16.4752273,17.0698578 15.7639693,17.0794838 C15.0527112,17.0891098 14.4671676,16.5114019 14.4529412,15.786 C14.4529412,15.7776 14.4529412,15.7692 14.4529412,15.7608 C14.4529412,15.7524 14.4529412,15.744 14.4529412,15.7344 C14.4664038,15.0152441 15.0418755,14.4394689 15.7470588,14.4396 L15.7470588,14.4396 Z M5.30705882,15.7596 C5.30705882,16.4886159 4.72766262,17.0796 4.01294118,17.0796 C3.29821974,17.0796 2.71882353,16.4886159 2.71882353,15.7596 C2.71882353,15.0305841 3.29821974,14.4396 4.01294118,14.4396 C4.72720313,14.4402623 5.30588265,15.0310525 5.30588235,15.7596 L5.30705882,15.7596 Z M18.6494118,7.1328 L18.0011765,8.8656 L14.9905882,8.7144 C14.8419053,8.71353978 14.7189488,8.83230412 14.7116968,8.9837826 C14.7044448,9.13526109 14.8154718,9.2656799 14.9635294,9.2796 L17.7929412,9.4212 L17.2141176,10.9692 C16.9639049,11.6309697 16.3412485,12.0683519 15.6458824,12.0708 L4.28823529,12.0708 L4.28823529,8.7444 L6.96941176,8.8788 L6.98352941,8.8788 C7.13021729,8.87319708 7.24728364,8.75209626 7.25071094,8.60241057 C7.25413824,8.45272487 7.1427421,8.3261817 6.99647059,8.3136 L4.29058824,8.178 L4.29058824,4.3872 L9.59411765,5.0136 L9.59411765,7.2228 L8.05294118,7.2228 C7.94208461,7.22408932 7.84260565,7.29252137 7.7998931,7.39687298 C7.75718055,7.50122459 7.77942245,7.62149146 7.85647059,7.7028 L10.98,10.8888 C11.0318795,10.9419279 11.1023674,10.9717926 11.1758824,10.9717926 C11.2493973,10.9717926 11.3198852,10.9419279 11.3717647,10.8888 L14.4952941,7.7028 C14.5723423,7.62149146 14.5945842,7.50122459 14.5518716,7.39687298 C14.5091591,7.29252137 14.4096801,7.22408932 14.2988235,7.2228 L12.8035294,7.2228 L12.8035294,5.394 L17.98,6.006 C18.2297925,6.03789208 18.4515641,6.18456912 18.5820271,6.4041733 C18.71249,6.62377748 18.7373128,6.89218526 18.6494118,7.1328 L18.6494118,7.1328 Z" id="Path_1483"></path>
                            <ellipse id="Ellipse_240" cx="4.01176471" cy="15.7608" rx="1" ry="1"></ellipse>
                        </g>
                    </g>
                </g>
            </g>
        </g>
    </g>
</svg>