<?xml version="1.0" encoding="UTF-8"?>
<svg width="20px" height="19px" viewBox="0 0 20 19" version="1.1" xmlns="http://www.w3.org/2000/svg" xmlns:xlink="http://www.w3.org/1999/xlink">
    <!-- Generator: Sketch 64 (93537) - https://sketch.com -->
    <title>cart_in_menu</title>
    <desc>Created with Sketch.</desc>
    <g id="Restaurant" stroke="none" stroke-width="1" fill="none" fill-rule="evenodd">
        <g id="Menu-Category-Items" transform="translate(-299.000000, -397.000000)">
            <g id="Cake-&quot;Marbella&quot;" transform="translate(36.000000, 349.000000)">
                <g id="cart_in_menu" transform="translate(263.000000, 48.200000)">
                    <circle id="Ellipse-/-Product-added-in-cart" fill="#FFB800" fill-rule="nonzero" cx="13.5" cy="12.5" r="4.5"></circle>
                    <g id="_" transform="translate(9.600000, 4.000000)" fill="#000000" font-family="Roboto-Regular, Roboto" font-size="11" font-weight="normal">
                        <text id="+">
                            <tspan x="0.759" y="10">+</tspan>
                        </text>
                    </g>
                    <path d="M15.993,18.178 L0.627,18.178 L1.817,3.478 L4.547,3.478 C4.547,3.523 4.54,3.566 4.54,3.61 L4.54,5.194 C4.54,5.35968542 4.67431458,5.494 4.84,5.494 C5.00568542,5.494 5.14,5.35968542 5.14,5.194 L5.14,3.61 C5.14,3.565 5.14,3.522 5.147,3.478 L11.147,3.478 C11.147,3.522 11.154,3.566 11.154,3.61 L11.154,5.194 C11.154,5.35968542 11.2883146,5.494 11.454,5.494 C11.6196854,5.494 11.754,5.35968542 11.754,5.194 L11.754,3.61 C11.754,3.565 11.749,3.522 11.747,3.478 L14.477,3.478 L14.718,6.451 C14.7265744,6.55817968 14.7916771,6.65264341 14.8887846,6.69880762 C14.9858921,6.74497183 15.1002515,6.73582309 15.1887846,6.67480762 C15.2773177,6.61379216 15.3265744,6.51017968 15.318,6.403 L15.054,3.154 C15.0414609,2.99775342 14.9107481,2.87749766 14.754,2.878 L11.679,2.878 C11.3310815,1.20412953 9.85614605,0.00423957262 8.1465,0.00423957262 C6.43685395,0.00423957262 4.96191845,1.20412953 4.614,2.878 L1.539,2.878 C1.38225189,2.87749766 1.25153911,2.99775342 1.239,3.154 L3.08130257e-16,18.454 C-0.00700822561,18.5378001 0.0214769952,18.6206943 0.0785153334,18.6824858 C0.135553672,18.7442774 0.215907908,18.7792925 0.3,18.7790018 L15.993,18.7790018 C16.1586854,18.7790018 16.293,18.6446854 16.293,18.479 C16.293,18.3133146 16.1586854,18.179 15.993,18.179 L15.993,18.178 Z M8.147,0.601 C9.52392188,0.603220398 10.7236645,1.5397857 11.06,2.875 L5.234,2.875 C5.5703355,1.5397857 6.77007812,0.603220398 8.147,0.601 L8.147,0.601 Z" id="Path_1576" fill="#1A171B" fill-rule="nonzero"></path>
                    <path d="M3.966,4.273 C3.89905323,4.22982993 3.81768574,4.21505798 3.73983659,4.23194093 C3.66198743,4.24882388 3.59404913,4.2959754 3.551,4.363 C3.16424072,4.97046779 3.24977779,5.76479995 3.757,6.276 C4.35556039,6.87401445 5.32543961,6.87401445 5.924,6.276 C6.43453647,5.76257292 6.51782544,4.96258241 6.124,4.355 C6.02793799,4.23188638 5.85349666,4.20305279 5.72292732,4.28870628 C5.59235798,4.37435976 5.54933083,4.54585268 5.624,4.683 C5.86300906,5.0525921 5.81222608,5.53877664 5.502,5.851 C5.13286867,6.20223827 4.55313133,6.20223827 4.184,5.851 C3.8757686,5.5401329 3.82386996,5.05726794 4.059,4.688 C4.10189524,4.62068871 4.11619845,4.53905855 4.09874456,4.46117291 C4.08129067,4.38328726 4.03351877,4.3155679 3.966,4.273 Z" id="Path_1577" fill="#1A171B" fill-rule="nonzero"></path>
                    <path d="M10.58,4.273 C10.5130532,4.22982993 10.4316857,4.21505798 10.3538366,4.23194093 C10.2759874,4.24882388 10.2080491,4.2959754 10.165,4.363 C9.77798129,4.97024186 9.86310075,5.76455176 10.37,6.276 C10.9685604,6.87401445 11.9384396,6.87401445 12.537,6.276 C13.0475365,5.76257292 13.1308254,4.96258241 12.737,4.355 C12.6829374,4.25570153 12.5776394,4.19523117 12.4646274,4.1985824 C12.3516154,4.20193363 12.2500855,4.26853721 12.2020019,4.37086469 C12.1539183,4.47319218 12.1674484,4.59386232 12.237,4.683 C12.4757497,5.05281947 12.4245481,5.5390261 12.114,5.851 C11.7450719,6.2027463 11.1649281,6.2027463 10.796,5.851 C10.4874109,5.54030318 10.4354843,5.05717756 10.671,4.688 C10.7140779,4.62093176 10.7286934,4.53947698 10.7116202,4.46161581 C10.694547,4.38375464 10.6471891,4.31588921 10.58,4.273 L10.58,4.273 Z" id="Path_1578" fill="#1A171B" fill-rule="nonzero"></path>
                    <path d="M19.482,16.636 L17.625,14.778 C18.8210017,12.6742279 18.2774469,10.0102523 16.3528585,8.54320198 C14.4282701,7.07615168 11.7154904,7.25793085 10.0038387,8.96863998 C8.29218703,10.6793491 8.10891364,13.3920283 9.57490364,15.3174245 C11.0408936,17.2428207 13.7045694,17.7878427 15.809,16.593 L17.667,18.451 C18.1026803,18.8859842 18.8083197,18.8859842 19.244,18.451 L19.483,18.213 C19.917158,17.7768169 19.9167108,17.0716322 19.482,16.636 L19.482,16.636 Z M9.211,12.401 C9.211,10.0692538 11.1012538,8.179 13.433,8.179 C15.7647462,8.179 17.655,10.0692538 17.655,12.401 C17.655,14.7327462 15.7647462,16.623 13.433,16.623 C11.1027858,16.620246 9.21430599,14.7322135 9.211,12.402 L9.211,12.401 Z M19.057,17.788 L18.819,18.026 C18.6173471,18.226473 18.2916529,18.226473 18.09,18.026 L16.319,16.255 C16.6853976,15.9803543 17.0109754,15.6551133 17.286,15.289 L19.057,17.06 C19.1537894,17.1566087 19.2081803,17.2877468 19.2081803,17.4245 C19.2081803,17.5612532 19.1537894,17.6923913 19.057,17.789 L19.057,17.788 Z" id="Path_1579" fill="#1A171B" fill-rule="nonzero"></path>
                </g>
            </g>
        </g>
    </g>
</svg>