<?xml version="1.0" encoding="UTF-8"?>
<svg width="38px" height="44px" viewBox="0 0 38 44" version="1.1" xmlns="http://www.w3.org/2000/svg" xmlns:xlink="http://www.w3.org/1999/xlink">
    <!-- Generator: Sketch 64 (93537) - https://sketch.com -->
    <title>Sushi_color</title>
    <desc>Created with Sketch.</desc>
    <g id="Food-Discover-(categories-with-listing)" stroke="none" stroke-width="1" fill="none" fill-rule="evenodd" stroke-linecap="round" stroke-linejoin="round">
        <g id="Food-Categories-+search-filed" transform="translate(-56.000000, -758.000000)" stroke="#060809">
            <g id="Content" transform="translate(37.000000, 263.000000)">
                <g id="Asian-food" transform="translate(0.000000, 471.000000)">
                    <g id="Sushi_color" transform="translate(19.000000, 24.000000)">
                        <path d="M26.8,15.623 C26.7972602,16.7109034 25.916898,17.5926056 24.829,17.597 L18.254,17.597 C17.1653208,17.5937028 16.2837456,16.7116807 16.281,15.623 L16.281,9.048 C16.2842945,7.95970975 17.1657098,7.07829454 18.254,7.075 L24.829,7.075 C25.9167364,7.07884599 26.7972572,7.96026031 26.8,9.048 L26.8,15.623 Z" id="Path_2618" fill="#FAE376" fill-rule="nonzero"></path>
                        <path d="M28.773,22.857 C27.6840933,22.8542497 26.8021986,21.971908 26.8,20.883 L26.8,14.309 C26.8027456,13.2203193 27.6843208,12.3382972 28.773,12.335 L35.348,12.335 C36.4370698,12.3377481 37.3192519,13.2199302 37.322,14.309 L37.322,20.884 C37.3192519,21.9730698 36.4370698,22.8552519 35.348,22.858 L28.773,22.857 Z" id="Path_2619" fill="#FAE376" fill-rule="nonzero"></path>
                        <path d="M32.929,26.851 C31.903,25.824 28.572,27.489 25.489,30.569 C22.406,33.649 20.743,36.983 21.771,38.009 C22.799,39.035 26.129,37.371 29.21,34.291 C32.291,31.211 33.957,27.878 32.929,26.851 Z" id="Path_2620" fill="#A5CF64" fill-rule="nonzero"></path>
                        <ellipse id="Ellipse_453" stroke-width="1.00023247" fill="#EF484A" fill-rule="nonzero" transform="translate(33.446990, 33.904930) rotate(-67.485887) translate(-33.446990, -33.904930) " cx="33.44699" cy="33.90493" rx="7.89183421" ry="2.6306114"></ellipse>
                        <rect id="Rectangle_353" fill="#F4F7F9" fill-rule="nonzero" x="19.568" y="10.362" width="1.313" height="3.947"></rect>
                        <rect id="Rectangle_354" fill="#EF484A" fill-rule="nonzero" x="20.881" y="10.362" width="1.316" height="3.947"></rect>
                        <rect id="Rectangle_355" fill="#F4F7F9" fill-rule="nonzero" x="22.197" y="10.362" width="1.313" height="3.947"></rect>
                        <path d="M21.54,17.5939999 C24.4448875,17.593448 26.8002632,19.9477793 26.8009996,22.8526668 C26.8017357,25.7575542 24.4475536,28.1130792 21.5426662,28.1139999 C18.6377788,28.11492 16.2821046,25.7608873 16.2809985,22.856 C16.2799384,21.4606255 16.8335733,20.1220531 17.819971,19.1350928 C18.8063687,18.1481324 20.1446251,17.5937342 21.54,17.5939999 L21.54,17.5939999 Z" id="Path_2621" fill="#F4F7F9" fill-rule="nonzero"></path>
                        <path d="M21.542,20.2239998 C22.9945087,20.2234478 24.1724474,21.4004911 24.1729998,22.8529999 C24.1735519,24.3055086 22.9965086,25.4834473 21.5439999,25.4839998 C20.0914911,25.4845519 18.9135524,24.3075087 18.9129992,22.855 C18.9124693,22.1573994 19.1892181,21.488189 19.6823088,20.9947232 C20.1753995,20.5012575 20.8443992,20.2239998 21.542,20.2239998 Z" id="Path_2622" fill="#A2D9D7" fill-rule="nonzero"></path>
                        <circle id="Ellipse_454" fill="#F4F7F9" fill-rule="nonzero" cx="32.061" cy="7.076" r="5.26"></circle>
                        <circle id="Ellipse_455" fill="#A5CF64" fill-rule="nonzero" cx="32.061" cy="7.076" r="2.63"></circle>
                        <rect id="Rectangle_356" fill="#EF484A" fill-rule="nonzero" x="30.089" y="18.255" width="3.945" height="1.315"></rect>
                        <rect id="Rectangle_357" fill="#F4F7F9" fill-rule="nonzero" x="30.089" y="16.94" width="3.945" height="1.314"></rect>
                        <rect id="Rectangle_358" fill="#EF484A" fill-rule="nonzero" x="30.089" y="15.625" width="3.945" height="1.315"></rect>
                        <polygon id="Path_2623" fill="#FAE376" fill-rule="nonzero" points="10.481 42.58 7.851 42.58 8.51 0.5 9.824 0.5"></polygon>
                        <polygon id="Path_2624" fill="#FAE376" fill-rule="nonzero" points="8.251 17.018 1.716 1.918 0.5 2.418 8.176 21.799"></polygon>
                        <polygon id="Path_2625" fill="#FAE376" fill-rule="nonzero" points="10.152 21.411 10.239 27.011 15.998 41.551 18.428 40.544"></polygon>
                        <path d="M18.847,9.643 L17.919,8.713 L18.847,9.643 Z" id="Path_2626"></path>
                        <path d="M18.847,15.954 L17.919,15.024 L18.847,15.954 Z" id="Path_2627"></path>
                        <path d="M24.23,15.026 L25.159,15.956 L24.23,15.026 Z" id="Path_2628"></path>
                        <path d="M24.232,8.715 L25.162,9.645 L24.232,8.715 Z" id="Path_2629"></path>
                        <path d="M17.525,12.8 L18.455,11.871 L17.525,12.8 Z" id="Path_2630"></path>
                        <path d="M25.555,11.87 L24.625,12.8 L25.555,11.87 Z" id="Path_2632"></path>
                        <path d="M34.753,14.903 L35.683,13.973 L34.753,14.903 Z" id="Path_2634"></path>
                        <path d="M28.444,14.903 L29.372,13.973 L28.444,14.903 Z" id="Path_2635"></path>
                        <path d="M29.369,20.287 L28.44,21.216 L29.369,20.287 Z" id="Path_2636"></path>
                        <path d="M35.681,20.289 L34.753,21.217 L35.681,20.289 Z" id="Path_2637"></path>
                        <path d="M31.597,13.58 L32.527,14.51 L31.597,13.58 Z" id="Path_2638"></path>
                        <path d="M32.528,21.61 L31.599,20.68 L32.528,21.61 Z" id="Path_2640"></path>
                        <path d="M23.4,24.716 C22.5572074,24.3690555 21.8879445,23.6997926 21.541,22.857 L21.541,22.857 C21.1926184,22.0140104 20.5229896,21.3443816 19.68,20.996 C20.5229896,21.3443816 21.1926184,22.0140104 21.541,22.857 L21.541,22.857 C21.8879445,23.6997926 22.5572074,24.3690555 23.4,24.716 L23.4,24.716 Z" id="Path_2642"></path>
                        <path d="M22.068,25.431 C21.4146688,25.0582469 20.9025416,24.4803902 20.611,23.787 C20.302854,23.0519284 19.7470202,22.4479766 19.04,22.08 C19.7469159,22.4481127 20.3027096,23.052021 20.611,23.787 C20.9027336,24.4802694 21.4148119,25.0580708 22.068,25.431 L22.068,25.431 Z" id="Path_2643"></path>
                        <path d="M24.042,23.631 C23.3363972,23.2644992 22.7807946,22.6632742 22.471,21.931 C22.182006,21.2347381 21.6693682,20.6545461 21.014,20.282 C21.6677804,20.6545427 22.1795055,21.2334427 22.469,21.928 C22.7788587,22.6616268 23.3352333,23.2639829 24.042,23.631 L24.042,23.631 Z" id="Path_2644"></path>
                        <path d="M34.691,7.075 C33.8504736,7.42583429 32.9045264,7.42583429 32.064,7.075 L32.064,7.075 C31.2213985,6.72587909 30.2746015,6.72587909 29.432,7.075 C30.2745578,6.72565911 31.2214422,6.72565911 32.064,7.075 L32.064,7.075 C32.9044593,7.42616908 33.8505407,7.42616908 34.691,7.075 Z" id="Path_2645"></path>
                        <path d="M34.255,8.518 C33.5297434,8.71668053 32.7591734,8.67027758 32.063,8.386 C31.3249243,8.08344139 30.5043725,8.04807277 29.743,8.286 C30.5043393,8.04781894 31.3249792,8.08319135 32.063,8.386 C32.7591227,8.67049974 33.529767,8.71690715 34.255,8.518 L34.255,8.518 Z" id="Path_2646"></path>
                        <path d="M34.376,5.856 C33.6172486,6.0955942 32.7985583,6.06198332 32.062,5.761 C31.3653865,5.47590606 30.5941309,5.42880112 29.868,5.627 C30.5941309,5.42880112 31.3653865,5.47590606 32.062,5.761 C32.7985583,6.06198332 33.6172486,6.0955942 34.376,5.856 Z" id="Path_2647"></path>
                        <path d="M29.21,34.29 C28.3673223,33.9411513 27.6978487,33.2716777 27.349,32.429 C27.0019898,31.5867128 26.3337259,30.9173693 25.492,30.569 C26.3338513,30.9171818 27.0021775,31.5865878 27.349,32.429 C27.6976621,33.2718023 28.3671977,33.9413379 29.21,34.29 L29.21,34.29 Z" id="Path_2648"></path>
                        <path d="M27.734,35.64 C26.9290321,35.2866883 26.291669,34.6360692 25.955,33.824 C25.6147585,33.0115677 24.9748503,32.3612749 24.168,32.008 C24.9731506,32.3625613 25.6111643,33.0131061 25.95,33.825 C26.2885132,34.6373195 26.9276322,35.2875443 27.734,35.64 L27.734,35.64 Z" id="Path_2649"></path>
                        <path d="M26.071,36.894 C25.3916428,36.5235726 24.8587143,35.9328014 24.56,35.219 C24.2547938,34.4917454 23.7065881,33.8929959 23.009,33.525 C23.7068458,33.8926619 24.2551491,34.491518 24.56,35.219 C24.8583719,35.9330184 25.3913918,36.5238908 26.071,36.894 Z" id="Path_2650"></path>
                        <path d="M24.166,37.942 C23.7279155,37.5888985 23.3843118,37.1325929 23.166,36.614 C22.9269595,36.0422827 22.5362167,35.5467654 22.036,35.181 C22.5365734,35.5463953 22.9274026,36.0420221 23.166,36.614 C23.3845301,37.1324674 23.7280964,37.5887235 24.166,37.942 L24.166,37.942 Z" id="Path_2651"></path>
                        <path d="M30.528,32.853 C29.7214925,32.4992238 29.082489,31.848042 28.744,31.035 C28.4081499,30.2229663 27.7709452,29.5725014 26.966,29.22 C27.7707548,29.5729497 28.4076017,30.2237736 28.743,31.036 C29.0819401,31.8488488 29.7213013,32.4996719 30.528,32.853 L30.528,32.853 Z" id="Path_2652"></path>
                        <path d="M31.691,31.335 C30.9921184,30.9658376 30.4436866,30.3647197 30.14,29.635 C29.8397676,28.9223474 29.3067441,28.3325667 28.628,27.962 C29.3068435,28.3324407 29.839903,28.9222612 30.14,29.635 C30.4436866,30.3647197 30.9921184,30.9658376 31.691,31.335 L31.691,31.335 Z" id="Path_2653"></path>
                        <path d="M32.668,29.678 C32.167272,29.3120952 31.7761608,28.8162036 31.537,28.244 C31.3184038,27.726132 30.9748205,27.2705405 30.537,26.918 C30.97461,27.2707444 31.3181499,27.7262783 31.537,28.244 C31.7761608,28.8162036 32.167272,29.3120952 32.668,29.678 L32.668,29.678 Z" id="Path_2654"></path>
                        <path d="M35.875,34.9130045 C34.9631882,34.9144831 34.0884904,34.5520054 33.445,33.906 C32.8012784,33.2620476 31.927521,32.9011009 31.017,32.9029837 C31.9271114,32.9001949 32.8008488,33.2600538 33.445,33.903 C34.0879964,34.5501061 34.9627554,34.9136891 35.875,34.9130045 L35.875,34.9130045 Z" id="Path_2655"></path>
                        <path d="M35.03,36.725 C34.1499624,36.7071324 33.3111497,36.3486654 32.69,35.725 C32.066889,35.1036307 31.2287401,34.7456005 30.349,34.725 C31.2286737,34.7459064 32.0667138,35.1038903 32.69,35.725 C33.3111497,36.3486654 34.1499624,36.7071324 35.03,36.725 Z" id="Path_2656"></path>
                        <path d="M33.973,38.519 C33.2036388,38.4382313 32.4849544,38.097059 31.936,37.552 C31.3750118,36.9970606 30.6395209,36.6529836 29.854,36.578 C30.6396527,36.6525 31.3752985,36.9966494 31.936,37.552 C32.4849544,38.097059 33.2036388,38.4382313 33.973,38.519 L33.973,38.519 Z" id="Path_2657"></path>
                        <path d="M32.614,40.218 C32.074015,40.0592053 31.5817165,39.7692542 31.181,39.374 C30.7405805,38.9378876 30.1899829,38.6295806 29.588,38.482 C30.1899829,38.6295806 30.7405805,38.9378876 31.181,39.374 C31.581869,39.7690557 32.0741146,40.0589757 32.614,40.218 Z" id="Path_2658"></path>
                        <path d="M36.544,33.081 C35.6630518,33.0632801 34.8232499,32.70485 34.201,32.081 C33.5801175,31.4587483 32.7428136,31.1004668 31.864,31.081 C32.7429927,31.0996389 33.5805927,31.4580471 34.201,32.081 C34.8233095,32.704762 35.6630741,33.0631763 36.544,33.081 Z" id="Path_2659"></path>
                        <path d="M37.037,31.235 C36.2509241,31.162808 35.51464,30.8187136 34.955,30.262 C34.4050286,29.7182276 33.686941,29.3769862 32.918,29.294 C33.686941,29.3769862 34.4050286,29.7182276 34.955,30.262 C35.5150287,30.8181573 36.2511016,31.1621529 37.037,31.235 Z" id="Path_2660"></path>
                        <path d="M37.305,29.33 C36.7005967,29.1850657 36.1473185,28.8776505 35.705,28.441 C35.3054589,28.0454575 34.8136381,27.7557266 34.274,27.598 C34.8137224,27.7555317 35.3055885,28.0452893 35.705,28.441 C36.1475332,28.8773638 36.7007267,29.1847319 37.305,29.33 L37.305,29.33 Z" id="Path_2661"></path>
                    </g>
                </g>
            </g>
        </g>
    </g>
</svg>