<?xml version="1.0" encoding="UTF-8"?>
<svg width="33px" height="44px" viewBox="0 0 33 44" version="1.1" xmlns="http://www.w3.org/2000/svg" xmlns:xlink="http://www.w3.org/1999/xlink">
    <!-- Generator: Sketch 64 (93537) - https://sketch.com -->
    <title>Beer_color</title>
    <desc>Created with Sketch.</desc>
    <g id="Food-Discover-(categories-with-listing)" stroke="none" stroke-width="1" fill="none" fill-rule="evenodd">
        <g id="Food-Categories-+search-filed" transform="translate(-56.000000, -600.000000)">
            <g id="Content" transform="translate(37.000000, 263.000000)">
                <g id="Drinks" transform="translate(0.000000, 314.000000)">
                    <g id="Beer_color" transform="translate(19.000000, 23.000000)">
                        <g>
                            <path d="M3.976,23.2580089 C2.86399876,23.2605697 1.82455393,22.706255 1.20712195,21.7814139 C0.58968997,20.8565728 0.476272516,19.6840342 0.905,18.658 C1.45229107,17.3330317 1.73428461,15.9135509 1.735,14.48 L1.735,10.406 C1.73610407,8.6902801 3.12727974,7.29999964 4.843,7.3 L4.843,7.3 C4.84282298,5.95948396 5.51597401,4.70851276 6.63480723,3.9701392 C7.75364045,3.23176564 9.16853403,3.10473258 10.401,3.632 C11.8846326,1.38657474 14.5760089,0.257577406 17.2175847,0.772531366 C19.8591605,1.28748533 21.9294059,3.3447225 22.461,5.983 L22.593,5.97 L22.593,5.97 C24.0614582,5.97110359 25.2514486,7.16154145 25.252,8.63 L25.252,8.63 C25.9574759,8.63026517 26.633952,8.9107687 27.1326112,9.40980301 C27.6312704,9.90883733 27.9110002,10.5855241 27.9110002,11.291 L27.9110002,11.291 C27.9110002,11.9966492 27.6306136,12.6733822 27.1315505,13.1722577 C26.6324874,13.6711332 25.9556491,13.9512653 25.25,13.951 L25.25,11.291 L3.976,11.291 L3.976,23.2580089 Z" id="Path_2299" stroke="#060809" stroke-width="1.3" fill="#F4F7F9" fill-rule="nonzero" stroke-linecap="round" stroke-linejoin="round"></path>
                            <path d="M25.254,40.544 C25.254,42.0136297 24.0626297,43.205 22.593,43.205 L6.635,43.205 C5.92944269,43.205 5.25281237,42.9245818 4.75409561,42.42549 C4.25537885,41.9263981 3.97546931,41.2495571 3.97599925,40.544 L3.97599925,11.288 L25.254,11.288 L25.254,40.544 Z" id="Path_2300" stroke="#060809" stroke-width="1.3" fill="#FFCA40" fill-rule="nonzero" stroke-linecap="round" stroke-linejoin="round"></path>
                            <path d="M29.245,16.609 L25.255,16.609 L25.255,35.227 L31.124,29.357 C31.6239942,28.8592985 31.9044428,28.1824778 31.9030055,27.477 L31.9030055,19.268 C31.9024486,17.8000937 30.712906,16.6101036 29.245,16.609 Z" id="Path_2301" stroke="#060809" stroke-width="1.3" stroke-linecap="round" stroke-linejoin="round"></path>
                            <path d="M3.976,35.226 C3.976,36.6959059 5.16759414,37.8875 6.6375,37.8875 C8.10740586,37.8875 9.299,36.6959059 9.299,35.226 C9.299,36.6945251 10.4894749,37.885 11.958,37.885 C13.4265251,37.885 14.617,36.6945251 14.617,35.226 L14.617,35.226 C14.6170001,36.6945251 15.8074749,37.8849999 17.276,37.8849999 C18.7445251,37.8849999 19.9349999,36.6945251 19.935,35.226 C19.935,36.6950774 21.1259226,37.886 22.595,37.886 C24.0640774,37.886 25.255,36.6950774 25.255,35.226 C25.255,36.6950774 24.0640774,37.886 22.595,37.886 C21.1259226,37.886 19.935,36.6950774 19.935,35.226 C19.935,36.6945251 18.7445251,37.885 17.276,37.885 C15.8074749,37.885 14.617,36.6945251 14.617,35.226 L14.617,35.226 C14.617,36.6945251 13.4265251,37.885 11.958,37.885 C10.4894749,37.885 9.299,36.6945251 9.299,35.226 C9.27090688,36.6747036 8.08847596,37.8344272 6.6395,37.8344272 C5.19052404,37.8344272 4.00809312,36.6747036 3.98,35.226 L3.976,35.226 Z" id="Path_2306" stroke="#060809" stroke-linecap="round" stroke-linejoin="round"></path>
                            <line x1="9.3" y1="34.5" x2="9.3" y2="11.5" id="Line" stroke="#000000" stroke-linecap="square"></line>
                            <path d="M3.976,32.568 L7.299,29.242 L3.976,32.568 Z" id="Path_2307" stroke="#060809" stroke-linecap="round" stroke-linejoin="round"></path>
                            <path d="M3.976,35.227 L5.97,33.227 L3.976,35.227 Z" id="Path_2308" stroke="#060809" stroke-linecap="round" stroke-linejoin="round"></path>
                            <path d="M6.724,8.079 C6.22598383,7.57947571 5.54936787,7.29911197 4.844,7.3 C5.54932397,7.2993332 6.22585839,7.57966315 6.724,8.079 L6.724,8.079 Z" id="Path_2309" stroke="#060809" stroke-width="1.3" stroke-linecap="round" stroke-linejoin="round"></path>
                            <path d="M9.296,7.299 C9.29278884,5.99490213 9.67552148,4.7190107 10.396,3.632 C9.67552148,4.7190107 9.29278884,5.99490213 9.296,7.299 Z" id="Path_2310" stroke="#060809" stroke-width="1.3" stroke-linecap="round" stroke-linejoin="round"></path>
                            <path d="M15.945,8.629 C15.945,7.52719192 16.8381919,6.634 17.94,6.634 C19.0418081,6.634 19.935,7.52719192 19.935,8.629 C19.9349999,7.16086529 21.1248654,5.97055214 22.593,5.97 L22.593,5.97 C21.1260355,5.97 19.9362068,7.15803719 19.934,8.625 C19.934,7.52319192 19.0408081,6.63 17.939,6.63 C16.8371919,6.63 15.944,7.52319192 15.944,8.625 L15.945,8.629 Z" id="Path_2311" stroke="#060809" stroke-width="1.3" stroke-linecap="round" stroke-linejoin="round"></path>
                            <path d="M23.373,9.408 C23.8712668,8.90885029 24.5477199,8.62855405 25.253,8.629 C24.5476541,8.62822263 23.8710789,8.90856947 23.373,9.408 L23.373,9.408 Z" id="Path_2312" stroke="#060809" stroke-width="1.3" stroke-linecap="round" stroke-linejoin="round"></path>
                            <path d="M25.255,18.603 L29.245,18.603 C29.6118792,18.603 29.9094483,18.9001212 29.9100009,19.267 L29.9100009,27.476 C29.910309,27.6831711 29.8278707,27.8818871 29.681,28.028 L29.681,28.028 L25.255,32.453 L25.255,18.603 Z" id="Path_2313" stroke="#060809" stroke-linecap="round" stroke-linejoin="round"></path>
                            <line x1="14.6" y1="35" x2="14.6" y2="12" id="Line-Copy" stroke="#000000" stroke-linecap="square"></line>
                            <line x1="19.95" y1="35" x2="19.95" y2="12" id="Line-Copy-2" stroke="#000000" stroke-linecap="square"></line>
                        </g>
                    </g>
                </g>
            </g>
        </g>
    </g>
</svg>