<?xml version="1.0" encoding="UTF-8"?>
<svg width="59px" height="59px" viewBox="0 0 59 59" version="1.1" xmlns="http://www.w3.org/2000/svg" xmlns:xlink="http://www.w3.org/1999/xlink">
    <!-- Generator: Sketch 64 (93537) - https://sketch.com -->
    <title>driver location</title>
    <desc>Created with Sketch.</desc>
    <defs>
        <filter x="-39.0%" y="-39.0%" width="178.0%" height="178.0%" filterUnits="objectBoundingBox" id="filter-1">
            <feOffset dx="0" dy="2" in="SourceAlpha" result="shadowOffsetOuter1"></feOffset>
            <feGaussianBlur stdDeviation="5" in="shadowOffsetOuter1" result="shadowBlurOuter1"></feGaussianBlur>
            <feColorMatrix values="0 0 0 0 0   0 0 0 0 0   0 0 0 0 0  0 0 0 0.127103365 0" type="matrix" in="shadowBlurOuter1" result="shadowMatrixOuter1"></feColorMatrix>
            <feMerge>
                <feMergeNode in="shadowMatrixOuter1"></feMergeNode>
                <feMergeNode in="SourceGraphic"></feMergeNode>
            </feMerge>
        </filter>
    </defs>
    <g id="driver-location" stroke="none" stroke-width="1" fill="none" fill-rule="evenodd">
        <g filter="url(#filter-1)" fill-rule="nonzero">
            <g id="location_bg" transform="translate(0.217000, 0.510000)">
                <g id="Group" transform="translate(0.780000, 0.490000)" fill="#FFB700" opacity="0.15">
                    <circle id="Ellipse_2397-2" cx="28.5" cy="28.5" r="28"></circle>
                </g>
                <g id="Group" transform="translate(8.780000, 7.490000)" fill="#FFB700" opacity="0.308">
                    <circle id="Ellipse_2369-2" cx="20.7" cy="21" r="20.5"></circle>
                </g>
                <circle id="Ellipse_2368" fill="#FFB700" opacity="0.499" cx="29.482" cy="28.49" r="17.5"></circle>
                <ellipse id="Ellipse_2367" fill="#FFB800" opacity="0.997" cx="29.482" cy="28.99" rx="8.5" ry="8"></ellipse>
            </g>
            <g id="Delivery_service" transform="translate(14.344000, 13.250000)">
                <g id="Group" transform="translate(0.660000, 0.750000)" fill="#FFFFFF">
                    <circle id="Ellipse_2383-2" cx="14.7" cy="15" r="14.5"></circle>
                </g>
                <polygon id="Path_23865" fill="#FFCA40" points="15.475 19.866 18.417 19.866 18.738 19.206 19.343 18.286 20.362 17.569 21.13 17.4 22.05 17.4 23.062 17.569 24.074 18.418 22.452 18.77 21.127 19.403 20.179 20.122 19.242 20.937 15.735 20.82"></polygon>
                <polygon id="Path_23866" fill="#000000" points="21.019 11.865 21.34 11.951 21.34 12.392 20.993 12.563"></polygon>
                <circle id="Ellipse_2356" fill="#FFCA40" cx="13.471" cy="9.597" r="1"></circle>
                <polygon id="Path_23863" fill="#FFCA40" points="9.325 18.693 10.025 17.769 10.877 17.291 12.041 16.961 13.332 16.961 14.357 17.171 15.282 17.908 15.282 20.119 13.977 20.119 13.405 18.965 12.489 18.341 11.273 18.341 10.413 19.041 9.913 20.121 9.157 20.121"></polygon>
                <path d="M14.553,9.573 C14.553,8.97266648 14.0663335,8.486 13.466,8.486 C12.8656665,8.486 12.379,8.97266648 12.379,9.573 C12.379,10.1733335 12.8656665,10.66 13.466,10.66 C14.0663335,10.66 14.553,10.1733335 14.553,9.573 Z M12.783,9.573 C12.783,9.19578952 13.0887895,8.89 13.466,8.89 C13.8432105,8.89 14.149,9.19578952 14.149,9.573 C14.149,9.95021048 13.8432105,10.256 13.466,10.256 C13.2839924,10.2573324 13.1089814,10.1859624 12.9798106,10.0577303 C12.8506398,9.92949828 12.778,9.75501251 12.778,9.573 L12.783,9.573 Z" id="Path_334" fill="#000000"></path>
                <path d="M13.615,12.718 C13.801,12.504 15.442,10.624 15.442,9.598 C15.4787386,8.86741935 15.1098795,8.17605019 14.4825928,7.7997401 C13.8553062,7.42343002 13.0716938,7.42343002 12.4444072,7.7997401 C11.8171205,8.17605019 11.4482614,8.86741935 11.485,9.598 C11.485,10.625 13.126,12.504 13.312,12.718 L13.466,12.888 L13.615,12.718 Z M11.889,9.598 C11.8637243,9.01909022 12.1581717,8.47300335 12.655733,8.17600481 C13.1532944,7.87900628 13.7737056,7.87900628 14.271267,8.17600481 C14.7688283,8.47300335 15.0632757,9.01909022 15.038,9.598 C15.038,10.269 14.011,11.623 13.466,12.274 C12.916,11.623 11.889,10.269 11.889,9.598 Z" id="Path_335" fill="#000000"></path>
                <rect id="Rectangle_163" fill="#000000" x="6.372" y="19.019" width="1.948" height="1"></rect>
                <rect id="Rectangle_164" fill="#000000" x="5.264" y="19.019" width="1" height="1"></rect>
                <rect id="Rectangle_165" fill="#000000" x="7.144" y="20.123" width="1.176" height="1"></rect>
                <rect id="Rectangle_166" fill="#000000" x="11.29" y="16.004" width="1.035" height="1"></rect>
                <path d="M6.254,11.91 L6.254,15.758 L7.842,15.758 L9.976,17.358 C9.968,17.415 9.964,17.471 9.96,17.528 C9.34635177,18.0364954 8.98605948,18.7881397 8.974,19.585 L8.974,20.434 L9.71,20.434 C9.77079619,21.0757928 10.1072067,21.6595855 10.632,22.034 L7.802,22.034 L7.802,22.434 L15.32,22.434 L15.32,22.034 L13.174,22.034 C13.4304524,21.8520892 13.6454982,21.6179585 13.805,21.347 L15.163,21.347 L15.81,21.011 C15.9942081,21.1111085 16.2003494,21.1640181 16.41,21.165 L19.429,21.165 L19.49,21.088 C19.49,21.088 19.563,21.003 19.69,20.874 C19.8508141,21.3509825 20.1679331,21.7597137 20.59,22.034 L17.179,22.034 L17.179,22.434 L24.479,22.434 L24.479,22.034 L22.987,22.034 C23.503331,21.6990876 23.8557707,21.163211 23.9587657,20.5564524 C24.0617608,19.9496938 23.9058935,19.327534 23.529,18.841 C23.7447742,18.8118145 23.962261,18.7971149 24.18,18.797 C24.2838049,18.8052533 24.3806627,18.7442085 24.418,18.647 C24.487,18.465 24.325,18.328 24.083,18.118 C24.0362244,18.0804356 23.991807,18.0400257 23.95,17.997 C23.4700378,17.5171928 22.8529849,17.1981841 22.184,17.084 L20.531,13.026 L21.031,13.026 L21.031,12.836 L21.071,12.836 C21.4267719,12.8360068 21.7158005,12.5487651 21.718,12.193 L21.718,12.177 C21.7158005,11.8212349 21.4267719,11.5339932 21.071,11.534 L21.031,11.534 L21.031,11.344 L19.631,11.344 C19.1665285,11.344 18.79,11.7205285 18.79,12.185 L18.79,12.621 L18.543,12.621 L17.686,11.76 L16.674,11.76 L16.674,12.16 L17.515,12.16 L18.376,13.021 L19.188,13.021 L18.739,14.379 L19.345,17.968 C19.0438333,18.2620104 18.8012064,18.6105109 18.63,18.995 L16.339,18.995 C16.2291147,18.7706292 16.1410433,18.5362186 16.076,18.295 C15.8500085,17.447398 15.8922812,16.550586 16.197,15.728 C16.4132286,15.6727786 16.5646379,15.4781682 16.565,15.255 C16.565,14.9367402 16.4385718,14.6315155 16.2135281,14.4064719 C15.9884845,14.1814282 15.6832598,14.055 15.365,14.055 L11.205,14.055 C10.7392292,14.0571893 10.3621893,14.4342292 10.36,14.9 C10.3611028,15.0555873 10.4042966,15.2079752 10.485,15.341 L10.101,15.341 L10.101,11.897 L6.254,11.91 Z M6.654,15.354 L6.654,12.314 L9.694,12.314 L9.694,15.354 L6.654,15.354 Z M9.374,19.59 C9.52345422,18.0674609 10.8638184,16.9444892 12.389,17.064 L13.154,17.064 C14.1602953,16.9810139 15.0472617,17.7202267 15.147,18.725 L15.147,20.035 L14.099,20.035 C13.9908289,18.9025541 13.0396004,18.0378571 11.902,18.0378571 C10.7643996,18.0378571 9.81317106,18.9025541 9.705,20.035 L9.378,20.035 L9.374,19.59 Z M10.11,20.035 C10.2133227,19.1253392 10.9829901,18.4381447 11.8985,18.4381447 C12.8140099,18.4381447 13.5836773,19.1253392 13.687,20.035 L10.11,20.035 Z M12.495,20.435 C12.4067824,20.6887145 12.1676138,20.8587682 11.899,20.8587682 C11.6303862,20.8587682 11.3912176,20.6887145 11.303,20.435 L12.495,20.435 Z M11.901,22.035 C10.9846749,22.0329184 10.2149671,21.3452955 10.11,20.435 L10.886,20.435 C10.9835562,20.9178433 11.4078999,21.265025 11.9005,21.265025 C12.3931001,21.265025 12.8174438,20.9178433 12.915,20.435 L13.687,20.435 C13.6675799,20.6102177 13.6227776,20.7816792 13.554,20.944 L12.839,20.944 L12.839,21.344 L13.312,21.344 C12.9739898,21.7786774 12.4556153,22.0347331 11.905,22.039 L11.901,22.035 Z M15.062,20.944 L13.99,20.944 C14.0471731,20.7794743 14.0837842,20.6085107 14.099,20.435 L15.267,20.435 C15.3199633,20.5434868 15.3872288,20.6443851 15.467,20.735 L15.062,20.944 Z M23.582,20.188 C23.5897777,21.116295 22.8903084,21.8982459 21.9668875,21.9935667 C21.0434667,22.0888876 20.1990137,21.4663094 20.017,20.556 C20.2578959,20.3423943 20.5102713,20.1420964 20.773,19.956 C20.7552905,20.0314132 20.7459011,20.1085405 20.745,20.186 C20.7444419,20.7122164 21.1388154,21.1550916 21.6615762,21.2153005 C22.184337,21.2755095 22.6690653,20.9338848 22.7881488,20.4213196 C22.9072323,19.9087544 22.622761,19.3884227 22.127,19.212 C22.4285756,19.0860809 22.7412719,18.9886563 23.061,18.921 C23.3966701,19.2589177 23.5853486,19.7156993 23.586,20.192 L23.582,20.188 Z M21.327,19.751 L21.602,20.281 L21.962,20.095 L21.687,19.565 L21.78,19.5569879 C22.0822455,19.5551453 22.34391,19.7665872 22.4055511,20.0624861 C22.4671922,20.358385 22.3117242,20.6567232 22.0338799,20.7757118 C21.7560355,20.8947003 21.4328278,20.8013578 21.2611999,20.5525614 C21.089572,20.3037651 21.1170958,19.9684764 21.327,19.751 L21.327,19.751 Z M21.064,11.938 C21.1280769,11.9369274 21.1899002,11.9616334 21.2355903,12.0065714 C21.2812803,12.0515094 21.307009,12.1129141 21.307,12.177 L21.307,12.193 C21.3048112,12.3254784 21.1964953,12.4315656 21.064,12.431 L21.024,12.431 L21.024,11.938 L21.064,11.938 Z M19.189,12.577 L19.189,12.185 C19.1895514,11.9440422 19.3850415,11.7489994 19.626,11.749 L20.62,11.749 L20.62,12.622 L19.237,12.622 C19.2134405,12.6225899 19.1935994,12.6045125 19.192,12.581 L19.189,12.577 Z M19.149,14.416 L19.61,13.026 L20.091,13.026 L21.728,17.04 L21.628,17.04 C20.9341661,17.0413011 20.2588093,17.2637344 19.7,17.675 L19.149,14.416 Z M21.629,17.4479851 C22.3925842,17.4455322 23.1251312,17.7500094 23.662,18.293 L23.799,18.418 C22.6289312,18.5195165 21.5077354,18.9340066 20.553,19.618 C20.0731556,19.9483954 19.6335144,20.3336687 19.243,20.766 L16.411,20.766 C16.0159474,20.7646259 15.6725172,20.4945818 15.578,20.111 L18.764,20.111 L18.788,19.937 C18.9819671,18.5150388 20.1938801,17.4532819 21.629,17.4479851 Z M18.484,19.412 C18.456,19.512 18.431,19.606 18.411,19.712 L16.771,19.712 C16.698,19.612 16.63,19.518 16.565,19.412 L18.484,19.412 Z M16.273,19.712 L15.554,19.712 L15.554,18.734 C15.4545148,17.5045603 14.3845204,16.5839193 13.154,16.669 L12.394,16.669 C11.6946089,16.6642068 11.0075523,16.8531906 10.409,17.215 C10.5033464,16.6963515 10.7057272,16.2033463 11.003,15.768 L15.764,15.768 C15.479344,16.6266282 15.4511955,17.5496213 15.683,18.424 C15.809395,18.8824805 16.0085979,19.317688 16.273,19.713 L16.273,19.712 Z M11.204,14.482 L15.364,14.482 C15.8058278,14.482 16.1640001,14.8401722 16.1640001,15.282 C16.1640001,15.3274255 16.1283752,15.3648624 16.083,15.367 L11.205,15.367 C10.9698712,15.3557939 10.784994,15.1618957 10.784994,14.9265 C10.784994,14.6911043 10.9698712,14.4972061 11.205,14.486 L11.204,14.482 Z M10.525,15.767 C10.3113933,16.1270011 10.1520139,16.5165202 10.052,16.923 L8.512,15.767 L10.525,15.767 Z" id="Path_336" fill="#000000"></path>
                <rect id="Rectangle_167" fill="#000000" x="8.178" y="12.795" width="1.16" height="1"></rect>
                <rect id="Rectangle_168" fill="#000000" x="15.886" y="22.039" width="1" height="1"></rect>
                <rect id="Rectangle_169" fill="#000000" x="6.699" y="22.039" width="1" height="1"></rect>
            </g>
        </g>
    </g>
</svg>