<?xml version="1.0" encoding="UTF-8"?>
<svg width="45px" height="45px" viewBox="0 0 45 45" version="1.1" xmlns="http://www.w3.org/2000/svg" xmlns:xlink="http://www.w3.org/1999/xlink">
    <!-- Generator: Sketch 64 (93537) - https://sketch.com -->
    <title>fastfood_color</title>
    <desc>Created with Sketch.</desc>
    <g id="Food-Discover-(categories-with-listing)" stroke="none" stroke-width="1" fill="none" fill-rule="evenodd">
        <g id="Food-Categories-+search-filed" transform="translate(-211.000000, -286.000000)">
            <g id="Content" transform="translate(37.000000, 263.000000)">
                <g id="Fast-food" transform="translate(155.000000, 0.000000)">
                    <g id="fastfood_color" transform="translate(19.000000, 23.000000)">
                        <g id="fastfood">
                            <g id="Group_34" transform="translate(0.573000, 0.415000)" fill="#FFCA40" fill-rule="nonzero">
                                <path d="M2.561,17.576 L40.827,17.576 C41.5904777,17.6059064 42.3212631,17.2646539 42.7884532,16.6600665 C43.2556434,16.0554791 43.4015233,15.2622455 43.18,14.531 C39.6436035,5.74947432 31.1263523,-0.00250822132 21.6595,-0.00250822132 C12.1926477,-0.00250822132 3.67539647,5.74947432 0.139,14.531 C-0.0906574736,15.2746353 0.0617540852,16.0837071 0.546238763,16.6928135 C1.03072344,17.30192 1.78475996,17.6324578 2.561,17.576 Z M37.921,14.462 L38.682,14.462 C39.0639527,14.4625508 39.3734492,14.7720473 39.374,15.154 C39.3852058,15.3407402 39.3159049,15.5233394 39.1836222,15.6556222 C39.0513394,15.7879049 38.8687402,15.8572058 38.682,15.846 L37.921,15.846 C37.5390473,15.8454492 37.2295508,15.5359527 37.229,15.154 C37.2178223,14.9674441 37.2869912,14.7850188 37.4190472,14.6527718 C37.5511031,14.5205248 37.7334281,14.4510921 37.92,14.462 L37.921,14.462 Z M35.015,8.511 L35.776,8.511 C36.1579527,8.51155076 36.4674492,8.82104732 36.468,9.203 C36.4792058,9.38974019 36.4099049,9.57233937 36.2776222,9.70462215 C36.1453394,9.83690494 35.9627402,9.90620578 35.776,9.895 L35.015,9.895 C34.632819,9.895 34.323,9.58518105 34.323,9.203 C34.323,8.82081895 34.632819,8.511 35.015,8.511 L35.015,8.511 Z M30.932,11.971 L31.693,11.971 C32.0749527,11.9715508 32.3844492,12.2810473 32.385,12.663 C32.3962058,12.8497402 32.3269049,13.0323394 32.1946222,13.1646222 C32.0623394,13.2969049 31.8797402,13.3662058 31.693,13.355 L30.932,13.355 C30.549819,13.355 30.24,13.045181 30.24,12.663 C30.24,12.280819 30.549819,11.971 30.932,11.971 Z M28.372,4.844 L29.133,4.844 C29.5149527,4.84455076 29.8244492,5.15404732 29.825,5.536 C29.8362058,5.72274019 29.7669049,5.90533937 29.6346222,6.03762215 C29.5023394,6.16990494 29.3197402,6.23920578 29.133,6.228 L28.372,6.228 C27.9900473,6.22744924 27.6805508,5.91795268 27.68,5.536 C27.6688223,5.34944409 27.7379912,5.16701883 27.8700472,5.0347718 C28.0021031,4.90252476 28.1844281,4.83309213 28.371,4.844 L28.372,4.844 Z M27.68,9.411 L28.441,9.411 C28.8229527,9.41155076 29.1324492,9.72104732 29.133,10.103 C29.1442058,10.2897402 29.0749049,10.4723394 28.9426222,10.6046222 C28.8103394,10.7369049 28.6277402,10.8062058 28.441,10.795 L27.68,10.795 C27.297819,10.795 26.988,10.485181 26.988,10.103 C26.988,9.72081895 27.297819,9.411 27.68,9.411 Z M24.012,7.4 L24.773,7.4 C25.1549527,7.40055076 25.4644492,7.71004732 25.465,8.092 C25.4762058,8.27874019 25.4069049,8.46133937 25.2746222,8.59362215 C25.1423394,8.72590494 24.9597402,8.79520578 24.773,8.784 L24.012,8.784 C23.629819,8.784 23.32,8.47418105 23.32,8.092 C23.32,7.70981895 23.629819,7.4 24.012,7.4 L24.012,7.4 Z M22.559,13.42 C22.5584492,13.8019527 22.2489527,14.1114492 21.867,14.112 L21.106,14.112 C20.7240473,14.1114492 20.4145508,13.8019527 20.414,13.42 C20.4027942,13.2332598 20.4720951,13.0506606 20.6043778,12.9183778 C20.7366606,12.7860951 20.9192598,12.7167942 21.106,12.728 L21.867,12.728 C22.239682,12.7533846 22.5357638,13.0511779 22.559,13.424 L22.559,13.42 Z M20.552,2.42 L21.313,2.42 C21.6949527,2.42055076 22.0044492,2.73004732 22.005,3.112 C22.0162058,3.29874019 21.9469049,3.48133937 21.8146222,3.61362215 C21.6823394,3.74590494 21.4997402,3.81520578 21.313,3.804 L20.552,3.804 C20.1700473,3.80344924 19.8605508,3.49395268 19.86,3.112 C19.8493894,2.9255966 19.9189535,2.7435454 20.0511649,2.61171612 C20.1833763,2.47988684 20.3656281,2.41084994 20.552,2.422 L20.552,2.42 Z M17.922,6.3 L18.683,6.3 C19.0649527,6.30055076 19.3744492,6.61004732 19.375,6.992 C19.3862058,7.17874019 19.3169049,7.36133937 19.1846222,7.49362215 C19.0523394,7.62590494 18.8697402,7.69520578 18.683,7.684 L17.922,7.684 C17.539819,7.684 17.23,7.37418105 17.23,6.992 C17.23,6.60981895 17.539819,6.3 17.922,6.3 L17.922,6.3 Z M15.708,9 L16.469,9 C16.8509527,9.00055076 17.1604492,9.31004732 17.161,9.692 C17.1722058,9.87874019 17.1029049,10.0613394 16.9706222,10.1936222 C16.8383394,10.3259049 16.6557402,10.3952058 16.469,10.384 L15.708,10.384 C15.325819,10.384 15.016,10.074181 15.016,9.692 C15.016,9.30981895 15.325819,9 15.708,9 L15.708,9 Z M14.324,13.913 C14.7059527,13.9135508 15.0154492,14.2230473 15.016,14.605 C15.0272058,14.7917402 14.9579049,14.9743394 14.8256222,15.1066222 C14.6933394,15.2389049 14.5107402,15.3082058 14.324,15.297 L13.563,15.297 C13.1810473,15.2964492 12.8715508,14.9869527 12.871,14.605 C12.8597942,14.4182598 12.9290951,14.2356606 13.0613778,14.1033778 C13.1936606,13.9710951 13.3762598,13.9017942 13.563,13.913 L14.324,13.913 Z M11.833,4.779 L12.598,4.779 C12.9799527,4.77955076 13.2894492,5.08904732 13.29,5.471 C13.3012058,5.65774019 13.2319049,5.84033937 13.0996222,5.97262215 C12.9673394,6.10490494 12.7847402,6.17420578 12.598,6.163 L11.837,6.163 C11.454819,6.163 11.145,5.85318105 11.145,5.471 C11.145,5.08881895 11.454819,4.779 11.837,4.779 L11.833,4.779 Z M10.103,10.868 L10.864,10.868 C11.2459527,10.8685508 11.5554492,11.1780473 11.556,11.56 C11.5672058,11.7467402 11.4979049,11.9293394 11.3656222,12.0616222 C11.2333394,12.1939049 11.0507402,12.2632058 10.864,12.252 L10.103,12.252 C9.72081895,12.252 9.411,11.942181 9.411,11.56 C9.411,11.177819 9.72081895,10.868 10.103,10.868 L10.103,10.868 Z M4.152,12.668 L4.913,12.668 C5.29495268,12.6685508 5.60444924,12.9780473 5.605,13.36 C5.61620578,13.5467402 5.54690494,13.7293394 5.41462215,13.8616222 C5.28233937,13.9939049 5.09974019,14.0632058 4.913,14.052 L4.152,14.052 C3.76981895,14.052 3.46,13.742181 3.46,13.36 C3.46,12.977819 3.76981895,12.668 4.152,12.668 Z" id="Path_780"></path>
                                <path d="M42.625,36.536 L31.554,36.536 L29.27,39.511 L23.6,36.536 L0.7,36.536 C0.318047319,36.5365508 0.00855076175,36.8460473 0.008,37.228 L0.008,39.236 C0.0118533526,41.4893806 1.83761941,43.3151466 4.091,43.319 L39.235,43.319 C41.4883806,43.3151466 43.3141466,41.4893806 43.318,39.236 L43.318,37.229 C43.318,37.045205 43.2449877,36.8689377 43.115025,36.738975 C42.9850623,36.6090123 42.808795,36.536 42.625,36.536 L42.625,36.536 Z" id="Path_781"></path>
                                <path d="M27.402,28.578 C27.134418,28.578 26.9175,28.794918 26.9175,29.0625 C26.9175,29.330082 27.134418,29.547 27.402,29.547 L37.228,29.547 C37.495582,29.547 37.7125,29.330082 37.7125,29.0625 C37.7125,28.794918 37.495582,28.578 37.228,28.578 L27.402,28.578 Z" id="Path_782"></path>
                                <path d="M15.569,28.578 C15.301418,28.578 15.0845,28.794918 15.0845,29.0625 C15.0845,29.330082 15.301418,29.547 15.569,29.547 L24.011,29.547 C24.278582,29.547 24.4955,29.330082 24.4955,29.0625 C24.4955,28.794918 24.278582,28.578 24.011,28.578 L15.569,28.578 Z" id="Path_783"></path>
                                <path d="M9.48,28.578 C9.21241804,28.578 8.9955,28.794918 8.9955,29.0625 C8.9955,29.330082 9.21241804,29.547 9.48,29.547 L12.18,29.547 C12.447582,29.547 12.6645,29.330082 12.6645,29.0625 C12.6645,28.794918 12.447582,28.578 12.18,28.578 L9.48,28.578 Z" id="Path_784"></path>
                            </g>
                            <g id="Group_35" transform="translate(1.957000, 32.177000)" fill="#00A1F1" fill-rule="nonzero">
                                <path d="M2.007,0 C0.898793133,0.000551758562 0.000551758562,0.898793133 0,2.007 L0,2.699 C0.000551758562,3.80720687 0.898793133,4.70544824 2.007,4.706 L22.143,4.706 L13.078,0 L2.007,0 Z" id="Path_785"></path>
                                <path d="M37.159,-1.62630326e-19 L33.701,-1.62630326e-19 L30.101,4.705 L37.159,4.705 C38.2672069,4.70444824 39.1654482,3.80620687 39.166,2.698 L39.166,2.006 C39.1775891,1.47033249 38.9698283,0.95318371 38.5908711,0.574415365 C38.2119139,0.19564702 37.6946617,-0.0118560485 37.159,-1.62630326e-19 L37.159,-1.62630326e-19 Z" id="Path_786"></path>
                            </g>
                            <path d="M23.616,22.074 L22.024,24.496 L18.08,22.074 L4.31,22.074 L4.31,25.119 C4.28550728,25.9036589 4.71695875,26.6317089 5.417,26.987 C7.4224031,27.8835653 9.75673046,27.6184489 11.51,26.295 C13.6455406,24.7016356 16.5744594,24.7016356 18.71,26.295 C20.8455406,27.8883644 23.7744594,27.8883644 25.91,26.295 C28.0455406,24.7016356 30.9744594,24.7016356 33.11,26.295 C34.8623587,27.6169112 37.1946975,27.8819758 39.199,26.987 C39.9120391,26.6457479 40.3490486,25.9083191 40.306,25.119 L40.306,22.074 L23.616,22.074 Z" id="Path_787" fill="#7CBB00" fill-rule="nonzero"></path>
                            <g id="Group_36" transform="translate(11.437000, 17.991000)" fill="#C8171D" fill-rule="nonzero">
                                <polygon id="Path_788" points="3.667 14.185 18.406 21.935 24.219 14.185"></polygon>
                                <polygon id="Path_789" points="14.808 0 0 0 10.587 6.5"></polygon>
                            </g>
                            <path d="M40.639,24.288 L40.639,22.558 C41.8279519,22.3315393 42.6776652,21.2769126 42.646,20.067 C42.6623566,19.4738863 42.4375722,18.8994776 42.023,18.475 C42.741343,18.3038834 43.3777415,17.888103 43.823,17.299 C44.3111006,16.5644723 44.4384335,15.6477492 44.169,14.808 C40.917,5.951 32.059,1.13686838e-13 22.169,1.13686838e-13 C12.279,1.13686838e-13 3.417,5.951 0.169,14.808 C-0.134806327,15.6444486 -0.00527269,16.577016 0.515,17.299 C0.718235098,17.6404653 1.00353471,17.9257649 1.345,18.129 C0.702025323,18.5970176 0.317350793,19.3407958 0.307,20.136 C0.305401931,20.8154429 0.574602233,21.4675178 1.05504222,21.9479578 C1.5354822,22.4283978 2.18755714,22.6975981 2.867,22.696 L3.697,22.696 L3.697,24.7 C2.26048736,25.3181106 1.33361907,26.7361837 1.344,28.3 L1.344,28.992 C1.34240424,30.0202023 1.75014953,31.0067511 2.4771992,31.7338008 C3.20424888,32.4608505 4.19079773,32.8685958 5.219,32.867 L14.829,32.867 L21.956,36.604 L1.197,36.604 C0.555669538,36.6232815 0.040281487,37.1386695 0.021,37.78 L0.021,39.787 C0.0432619147,42.3000055 2.0749945,44.3317381 4.588,44.354 L39.739,44.354 C42.2520055,44.3317381 44.2837381,42.3000055 44.306,39.787 L44.306,37.78 C44.2867185,37.1386695 43.7713305,36.6232815 43.13,36.604 L33.096,36.604 L35.933,32.867 L40.5,32.867 C41.5282023,32.8685958 42.5147511,32.4608505 43.2418008,31.7338008 C43.9688505,31.0067511 44.3762046,30.0202023 44.375,28.992 L44.375,28.3 C44.4273372,26.1694326 42.7678911,24.3873937 40.639,24.288 Z M40.155,21.588 L24.516,21.588 L26.523,18.543 L40.155,18.543 C40.9958535,18.543 41.6775,19.2246465 41.6775,20.0655 C41.6775,20.9063535 40.9958535,21.588 40.155,21.588 Z M21.818,24.909 C21.8993047,24.9639519 21.9974184,24.9883917 22.095,24.978 C22.259363,24.9822062 22.4150056,24.9041974 22.51,24.77 L23.894,22.625 L39.67,22.625 L39.67,25.116 C39.6862133,25.6995379 39.3624055,26.2394777 38.84,26.5 C37.0192526,27.3181896 34.897358,27.0793998 33.304,25.877 C30.9847036,24.1471283 27.8042964,24.1471283 25.485,25.877 C23.5609376,27.3270242 20.9090624,27.3270242 18.985,25.877 C17.8829132,25.0062326 16.5144303,24.5418313 15.11,24.562 C13.7014119,24.5300887 12.3268459,24.9968957 11.229,25.88 C9.63564195,27.0823998 7.51374736,27.3211896 5.693,26.503 C5.17059453,26.2424777 4.84678672,25.7025379 4.863,25.119 L4.863,22.628 L18.011,22.628 L21.818,24.909 Z M13.307,18.543 L25.347,18.543 L21.956,23.8 L13.307,18.543 Z M1.407,16.675 C1.07073649,16.2412594 0.991445137,15.6610601 1.199,15.153 C4.66503619,6.57949061 12.9873803,0.96728151 22.235,0.96728151 C31.4826197,0.96728151 39.8049638,6.57949061 43.271,15.153 C43.4830832,15.6604772 43.4034694,16.2430359 43.063,16.675 C42.6929048,17.2234718 42.0628186,17.5383252 41.402,17.505 L3.134,17.505 C2.46455908,17.492882 1.83334222,17.1907735 1.404,16.677 L1.407,16.675 Z M2.999,21.588 C2.15814647,21.588 1.4765,20.9063535 1.4765,20.0655 C1.4765,19.2246465 2.15814647,18.543 2.999,18.543 L11.369,18.543 L16.351,21.588 L2.999,21.588 Z M43.199,37.434 C43.2729168,37.4392824 43.3317176,37.4980832 43.337,37.572 L43.337,39.579 C43.3287825,41.5245989 41.7535989,43.0997825 39.808,43.108 L4.656,43.108 C2.71040107,43.0997825 1.13521748,41.5245989 1.127,39.579 L1.127,37.572 C1.13228236,37.4980832 1.19108315,37.4392824 1.265,37.434 L23.965,37.434 L29.565,40.34 C29.620335,40.3932651 29.6968004,40.418631 29.773,40.409 C29.9336376,40.3981552 30.0831768,40.3232054 30.188,40.201 L32.333,37.433 L43.199,37.434 Z M29.706,39.3 L17.181,32.73 L34.688,32.73 L29.706,39.3 Z M43.338,28.851 C43.3308898,30.4549671 42.0329618,31.7537874 40.429,31.762 L5.348,31.762 C3.74714774,31.7521752 2.4518248,30.4568523 2.44194334,28.856 L2.44194334,28.164 C2.43545751,27.1485167 2.99596383,26.2142109 3.895,25.742 C4.03220734,26.4954448 4.52075251,27.1381696 5.21,27.472 C6.06411066,27.8346788 6.98208184,28.0230329 7.91,28.026 C9.33211667,28.0247051 10.7156594,27.5634073 11.854,26.711 C13.7780624,25.2609758 16.4299376,25.2609758 18.354,26.711 C20.6732964,28.4408717 23.8537036,28.4408717 26.173,26.711 C28.0970624,25.2609758 30.7489376,25.2609758 32.673,26.711 C34.56701,28.1309883 37.078673,28.421736 39.247,27.472 C40.0818619,27.0819795 40.6197036,26.2484026 40.631,25.327 C42.1473028,25.3931026 43.3399671,26.6462835 43.331,28.164 L43.338,28.851 Z" id="Path_790" fill="#1A171B" fill-rule="nonzero"></path>
                        </g>
                    </g>
                </g>
            </g>
        </g>
    </g>
</svg>