<?xml version="1.0" encoding="UTF-8"?>
<svg width="44px" height="44px" viewBox="0 0 44 44" version="1.1" xmlns="http://www.w3.org/2000/svg" xmlns:xlink="http://www.w3.org/1999/xlink">
    <!-- Generator: Sketch 64 (93537) - https://sketch.com -->
    <title>fast_food_white</title>
    <desc>Created with Sketch.</desc>
    <g id="Food-Discover-(categories-with-listing)" stroke="none" stroke-width="1" fill="none" fill-rule="evenodd">
        <g id="Food-Categories-+search-filed" transform="translate(-208.000000, -298.000000)" fill="#FFFFFF" fill-rule="nonzero">
            <g id="Content" transform="translate(37.000000, 263.000000)">
                <g id="Fast-food" transform="translate(148.000000, 0.000000)">
                    <g id="fast_food_white" transform="translate(23.000000, 34.000000)">
                        <path d="M18.218,9.293 L18.874,9.293 C19.2365749,9.293 19.5305,8.99907494 19.5305,8.6365 C19.5305,8.27392506 19.2365749,7.98 18.874,7.98 L18.218,7.98 C17.8554251,7.98 17.5615,8.27392506 17.5615,8.6365 C17.5615,8.99907494 17.8554251,9.293 18.218,9.293 L18.218,9.293 Z" id="Path_2158"></path>
                        <path d="M16.249,11.922 L16.905,11.922 C17.2678511,11.922 17.562,11.6278511 17.562,11.265 C17.562,10.9021489 17.2678511,10.608 16.905,10.608 L16.249,10.608 C15.8861489,10.608 15.592,10.9021489 15.592,11.265 C15.592,11.6278511 15.8861489,11.922 16.249,11.922 Z" id="Path_2159"></path>
                        <path d="M12.773,7.782 L13.43,7.782 C13.7928511,7.782 14.087,7.48785108 14.087,7.125 C14.087,6.76214892 13.7928511,6.468 13.43,6.468 L12.773,6.468 C12.4101489,6.468 12.116,6.76214892 12.116,7.125 C12.116,7.48785108 12.4101489,7.782 12.773,7.782 Z" id="Path_2160"></path>
                        <path d="M11.218,13.73 L11.874,13.73 C12.2368511,13.73 12.531,13.4358511 12.531,13.073 C12.531,12.7101489 12.2368511,12.416 11.874,12.416 L11.218,12.416 C10.8551489,12.416 10.561,12.7101489 10.561,13.073 C10.561,13.4358511 10.8551489,13.73 11.218,13.73 Z" id="Path_2161"></path>
                        <path d="M13.673,15.996 C13.673,16.3584609 13.9665395,16.6524483 14.329,16.653 L14.985,16.653 C15.3478511,16.653 15.642,16.3588511 15.642,15.996 C15.642,15.6331489 15.3478511,15.339 14.985,15.339 L14.329,15.339 C13.9667678,15.3401006 13.6735488,15.6337666 13.673,15.996 Z" id="Path_2162"></path>
                        <path d="M23.663,10.348 L24.319,10.348 C24.681851,10.348 24.9759998,10.053851 24.9759998,9.691 C24.9759998,9.32814898 24.681851,9.034 24.319,9.034 L23.663,9.034 C23.3001489,9.034 23.006,9.32814892 23.006,9.691 C23.006,10.0538511 23.3001489,10.348 23.663,10.348 L23.663,10.348 Z" id="Path_2163"></path>
                        <path d="M26.943,12.317 L27.599,12.317 C27.9618511,12.317 28.256,12.0228511 28.256,11.66 C28.256,11.2971489 27.9618511,11.003 27.599,11.003 L26.943,11.003 C26.5801489,11.003 26.286,11.2971489 26.286,11.66 C26.286,12.0228511 26.5801489,12.317 26.943,12.317 Z" id="Path_2164"></path>
                        <path d="M27.552,7.881 L28.208,7.881 C28.5705749,7.881 28.8645,7.58707494 28.8645,7.2245 C28.8645,6.86192506 28.5705749,6.568 28.208,6.568 L27.552,6.568 C27.1894251,6.568 26.8955,6.86192506 26.8955,7.2245 C26.8955,7.58707494 27.1894251,7.881 27.552,7.881 L27.552,7.881 Z" id="Path_2165"></path>
                        <path d="M33.531,11.462 L34.187,11.462 C34.549851,11.462 34.8439998,11.167851 34.8439998,10.805 C34.8439998,10.442149 34.549851,10.148 34.187,10.148 L33.531,10.148 C33.1681489,10.148 32.874,10.4421489 32.874,10.805 C32.874,11.1678511 33.1681489,11.462 33.531,11.462 L33.531,11.462 Z" id="Path_2166"></path>
                        <path d="M29.885,14.784 L30.542,14.784 C30.9045749,14.784 31.1985,14.4900749 31.1985,14.1275 C31.1985,13.7649251 30.9045749,13.471 30.542,13.471 L29.885,13.471 C29.5224251,13.471 29.2285,13.7649251 29.2285,14.1275 C29.2285,14.4900749 29.5224251,14.784 29.885,14.784 Z" id="Path_2167"></path>
                        <path d="M36.107,17.21 L36.764,17.21 C37.126851,17.21 37.4209998,16.915851 37.4209998,16.553 C37.4209998,16.190149 37.126851,15.896 36.764,15.896 L36.107,15.896 C35.744149,15.896 35.4500002,16.190149 35.4500002,16.553 C35.4500002,16.915851 35.744149,17.21 36.107,17.21 L36.107,17.21 Z" id="Path_2168"></path>
                        <path d="M20.551,5.515 L21.207,5.515 C21.5698511,5.515 21.864,5.22085108 21.864,4.858 C21.864,4.49514892 21.5698511,4.201 21.207,4.201 L20.551,4.201 C20.1881489,4.201 19.894,4.49514892 19.894,4.858 C19.894,5.22085108 20.1881489,5.515 20.551,5.515 Z" id="Path_2169"></path>
                        <path d="M5.894,15.441 L6.55,15.441 C6.91285108,15.441 7.207,15.1468511 7.207,14.784 C7.207,14.4211489 6.91285108,14.127 6.55,14.127 L5.894,14.127 C5.53114892,14.127 5.237,14.4211489 5.237,14.784 C5.237,15.1468511 5.53114892,15.441 5.894,15.441 Z" id="Path_2170"></path>
                        <path d="M21.086,14.227 C20.7234251,14.227 20.4295,14.5209251 20.4295,14.8835 C20.4295,15.2460749 20.7234251,15.54 21.086,15.54 L21.743,15.54 C22.1055749,15.54 22.3995,15.2460749 22.3995,14.8835 C22.3995,14.5209251 22.1055749,14.227 21.743,14.227 L21.086,14.227 Z" id="Path_2171"></path>
                        <path d="M40.686,36.287 L40.18,36.287 C40.4303927,35.8803363 40.563943,35.4125643 40.566,34.935 L40.566,34.18 C40.5644807,33.7051101 40.4323239,33.2397937 40.184,32.835 C42.0020276,32.6034158 43.3517819,31.0365523 43.3116421,29.2042739 C43.2715023,27.3719954 41.8544252,25.865745 40.028,25.714 L40.028,24.092 C41.3563007,23.9486008 42.3635323,22.8280179 42.365,21.492 L42.365,21.11 C42.3640861,20.4849759 42.1375293,19.8812979 41.727,19.41 C42.1422289,19.1854724 42.5004156,18.8686808 42.774,18.484 C43.3228931,17.722089 43.4609364,16.7385771 43.143,15.855 C39.772181,6.91159384 31.214059,0.991380193 21.6565,0.991380193 C12.098941,0.991380193 3.54081904,6.91159384 0.17,15.855 C-0.148114461,16.7385587 -0.0100591888,17.7221557 0.539,18.484 C0.928302506,19.0317858 1.48593108,19.4373658 2.127,19.639 C1.83389423,20.0724202 1.67749193,20.5837756 1.678,21.107 L1.678,21.489 C1.67930464,22.5421036 2.30891284,23.492812 3.278,23.905 L3.278,25.705 C1.36963823,25.8741509 -0.0680117174,27.5146077 0.0146845803,29.4286657 C0.097380878,31.3427237 1.67116043,32.8530725 3.587,32.857 L3.843,32.857 C3.60675581,33.2544289 3.48076096,33.7076652 3.478,34.17 L3.478,34.925 C3.48005699,35.4025643 3.61360729,35.8703363 3.864,36.277 L2.627,36.277 C1.17793788,36.2786532 0.00365323849,37.4529379 0.00165379386,38.902 L0.00165379386,39.802 C0.00530544725,42.3378257 2.06017428,44.3926946 4.596,44.396 L38.717,44.396 C41.2528257,44.3926946 43.3076946,42.3378257 43.311,39.802 L43.311,38.902 C43.3049446,37.456388 42.1316246,36.2875378 40.686,36.287 Z M41.053,21.497 C41.053,22.2221499 40.4651499,22.81 39.74,22.81 L23.219,22.81 L25.174,19.803 L39.74,19.803 C40.4647595,19.803 41.052448,20.3902407 41.053,21.115 L41.053,21.497 Z M20.401,25.977 C20.70376,26.1609151 21.0977494,26.0725767 21.293,25.777 L22.365,24.127 L38.714,24.127 L38.714,26.407 C38.7311743,26.9120863 38.4564983,27.3820701 38.008,27.615 C36.2601927,28.3863455 34.2336106,28.1663798 32.692,27.038 C30.3528589,25.277652 27.1311411,25.277652 24.792,27.038 C22.9279251,28.4134352 20.3850749,28.4134352 18.521,27.038 C16.1804178,25.2753119 12.9555822,25.2753119 10.615,27.038 C9.07369925,28.1662023 7.04749769,28.3861681 5.3,27.615 C4.85167603,27.3818869 4.57707092,26.9120243 4.594,26.407 L4.594,24.127 L17.367,24.127 L20.401,25.977 Z M12.811,19.804 L23.611,19.804 L20.544,24.523 L12.811,19.804 Z M1.611,17.738 C1.31142695,17.3234607 1.23408306,16.7884055 1.404,16.306 C4.58870019,7.8857972 12.6516597,2.31498166 21.654,2.31498166 C30.6563403,2.31498166 38.7192998,7.8857972 41.904,16.306 C42.075263,16.7881392 41.998222,17.3236861 41.698,17.738 C41.3582564,18.2131266 40.8090915,18.4938606 40.225,18.4910217 L3.084,18.4910217 C2.50044289,18.4937661 1.95175718,18.2134593 1.612,17.739 L1.611,17.738 Z M2.989,21.498 L2.989,21.116 C2.98955148,20.391631 3.57663096,19.8045515 4.301,19.804 L10.291,19.804 L15.215,22.811 L4.302,22.811 C3.95377072,22.8107349 3.61990933,22.672147 3.37386158,22.4257242 C3.12781383,22.1793014 2.98973468,21.8452293 2.99,21.497 L2.989,21.498 Z M3.589,31.5560238 C2.37943978,31.5614903 1.37900677,30.6156201 1.31672384,29.407652 C1.25444091,28.1996839 2.15228917,27.1559382 3.356,27.037 C3.52067935,27.8161622 4.04220406,28.4725129 4.764,28.809 C6.95698081,29.7890309 9.50886189,29.5034896 11.431,28.063 C13.295389,26.6873965 15.838611,26.6873965 17.703,28.063 C20.0421411,29.823348 23.2638589,29.823348 25.603,28.063 C27.4667608,26.687733 30.0092392,26.687733 31.873,28.063 C33.7951219,29.5044907 36.3478463,29.7900835 38.541,28.809 C39.2631856,28.4719786 39.784745,27.8148434 39.949,27.035 C41.1508354,27.1538487 42.0482673,28.1943804 41.9893019,29.4006376 C41.9303364,30.6068948 40.9356971,31.5549364 39.728,31.5560238 L3.588,31.5560238 L3.589,31.5560238 Z M17.327,32.868 L33.317,32.868 L28.774,38.868 L17.327,32.868 Z M20.952,36.249 L6.104,36.249 C5.37930681,36.2478986 4.79210136,35.6606932 4.791,34.936 L4.791,34.181 C4.791,33.4558501 5.37885012,32.868 6.104,32.868 L14.497,32.868 L20.952,36.249 Z M34.965,32.868 L37.943,32.868 C38.6681499,32.868 39.256,33.4558501 39.256,34.181 L39.256,34.936 C39.2554485,35.6609213 38.6679213,36.2484485 37.943,36.249 L32.405,36.249 L34.965,32.868 Z M42.001,39.808 C41.998796,41.6191326 40.5311326,43.086796 38.72,43.089 L4.596,43.089 C2.78486745,43.086796 1.317204,41.6191326 1.315,39.808 L1.315,38.908 C1.31555199,38.1832407 1.90324047,37.596 2.628,37.596 L23.528,37.596 L28.653,40.281 C28.7453359,40.3303416 28.8483091,40.3564282 28.953,40.357 C29.1585604,40.3563889 29.3521736,40.2603213 29.477,40.097 L31.371,37.597 L40.679,37.597 C41.4035314,37.5975506 41.9908974,38.1844692 41.992,38.909 L41.992,39.809 L42.001,39.808 Z" id="Path_2172"></path>
                    </g>
                </g>
            </g>
        </g>
    </g>
</svg>