<?xml version="1.0" encoding="UTF-8"?>
<svg width="44px" height="44px" viewBox="0 0 44 44" version="1.1" xmlns="http://www.w3.org/2000/svg" xmlns:xlink="http://www.w3.org/1999/xlink">
    <!-- Generator: Sketch 64 (93537) - https://sketch.com -->
    <title>fast-food_icon_line</title>
    <desc>Created with Sketch.</desc>
    <g id="Food-Discover-(categories-with-listing)" stroke="none" stroke-width="1" fill="none" fill-rule="evenodd">
        <g id="Discovery-Anything-with-black-icons" transform="translate(-156.000000, -238.000000)" fill="#000000">
            <g id="Categories" transform="translate(36.000000, 216.000000)">
                <g id="Fast-food" transform="translate(91.000000, 0.000000)">
                    <g id="fast-food_icon_line" transform="translate(29.000000, 22.000000)">
                        <g>
                            <path d="M18.666836,8 L19.333164,8 C19.7014474,8 20,7.77614237 20,7.5 C20,7.22385763 19.7014474,7 19.333164,7 L18.666836,7 C18.2985526,7 18,7.22385763 18,7.5 C18,7.77614237 18.2985526,8 18.666836,8 L18.666836,8 Z" id="Path_2158" fill-rule="nonzero"></path>
                            <path d="M16.6670051,11 L17.3329949,11 C17.7013717,11 18,10.7761424 18,10.5 C18,10.2238576 17.7013717,10 17.3329949,10 L16.6670051,10 C16.2986283,10 16,10.2238576 16,10.5 C16,10.7761424 16.2986283,11 16.6670051,11 Z" id="Path_2159" fill-rule="nonzero"></path>
                            <path d="M12.6666667,7 L13.3333333,7 C13.7015232,7 14,6.77614237 14,6.5 C14,6.22385763 13.7015232,6 13.3333333,6 L12.6666667,6 C12.2984768,6 12,6.22385763 12,6.5 C12,6.77614237 12.2984768,7 12.6666667,7 Z" id="Path_2160" fill-rule="nonzero"></path>
                            <path d="M11.6670051,13 L12.3329949,13 C12.7013717,13 13,12.7761424 13,12.5 C13,12.2238576 12.7013717,12 12.3329949,12 L11.6670051,12 C11.2986283,12 11,12.2238576 11,12.5 C11,12.7761424 11.2986283,13 11.6670051,13 Z" id="Path_2161" fill-rule="nonzero"></path>
                            <path d="M14,15.5 C14,15.7758454 14.298161,15.9995801 14.6663281,16 L15.3326562,16 C15.70122,16 16,15.7761424 16,15.5 C16,15.2238576 15.70122,15 15.3326562,15 L14.6663281,15 C14.2983929,15.0008376 14.0005575,15.2243277 14,15.5 Z" id="Path_2162" fill-rule="nonzero"></path>
                            <path d="M24.6670051,9 L25.332995,9 C25.7013717,9 26,8.77614233 26,8.5 C26,8.22385767 25.7013717,8 25.332995,8 L24.6670051,8 C24.2986284,8 24,8.22385763 24,8.5 C24,8.77614237 24.2986284,9 24.6670051,9 L24.6670051,9 Z" id="Path_2163" fill-rule="nonzero"></path>
                            <path d="M27.6670051,11 L28.3329949,11 C28.7013717,11 29,10.7761424 29,10.5 C29,10.2238576 28.7013717,10 28.3329949,10 L27.6670051,10 C27.2986283,10 27,10.2238576 27,10.5 C27,10.7761424 27.2986283,11 27.6670051,11 Z" id="Path_2164" fill-rule="nonzero"></path>
                            <path d="M28.666836,7 L29.333164,7 C29.7014474,7 30,6.77614237 30,6.5 C30,6.22385763 29.7014474,6 29.333164,6 L28.666836,6 C28.2985526,6 28,6.22385763 28,6.5 C28,6.77614237 28.2985526,7 28.666836,7 L28.666836,7 Z" id="Path_2165" fill-rule="nonzero"></path>
                            <path d="M34.6670051,11 L35.332995,11 C35.7013717,11 36,10.7761423 36,10.5 C36,10.2238577 35.7013717,10 35.332995,10 L34.6670051,10 C34.2986284,10 34,10.2238576 34,10.5 C34,10.7761424 34.2986284,11 34.6670051,11 L34.6670051,11 Z" id="Path_2166" fill-rule="nonzero"></path>
                            <path d="M30.6664975,14 L31.3335025,14 C31.7015989,14 32,13.7761424 32,13.5 C32,13.2238576 31.7015989,13 31.3335025,13 L30.6664975,13 C30.2984011,13 30,13.2238576 30,13.5 C30,13.7761424 30.2984011,14 30.6664975,14 Z" id="Path_2167" fill-rule="nonzero"></path>
                            <path d="M36.6666666,16 L37.3333334,16 C37.7015232,16 38,15.7761423 38,15.5 C38,15.2238577 37.7015232,15 37.3333334,15 L36.6666666,15 C36.2984768,15 36,15.2238577 36,15.5 C36,15.7761423 36.2984768,16 36.6666666,16 L36.6666666,16 Z" id="Path_2168" fill-rule="nonzero"></path>
                            <path d="M20.6670051,4 L21.3329949,4 C21.7013717,4 22,3.77614237 22,3.5 C22,3.22385763 21.7013717,3 21.3329949,3 L20.6670051,3 C20.2986283,3 20,3.22385763 20,3.5 C20,3.77614237 20.2986283,4 20.6670051,4 Z" id="Path_2169" fill-rule="nonzero"></path>
                            <path d="M5.66700508,15 L6.33299492,15 C6.70137166,15 7,14.7761424 7,14.5 C7,14.2238576 6.70137166,14 6.33299492,14 L5.66700508,14 C5.29862834,14 5,14.2238576 5,14.5 C5,14.7761424 5.29862834,15 5.66700508,15 Z" id="Path_2170" fill-rule="nonzero"></path>
                            <path d="M21.6664975,14 C21.2984011,14 21,14.2238576 21,14.5 C21,14.7761424 21.2984011,15 21.6664975,15 L22.3335025,15 C22.7015989,15 23,14.7761424 23,14.5 C23,14.2238576 22.7015989,14 22.3335025,14 L21.6664975,14 Z" id="Path_2171" fill-rule="nonzero"></path>
                            <path d="M41.331694,35.779769 L40.8176428,35.779769 C41.0720196,35.3675272 41.2076949,34.8933387 41.2097846,34.4092237 L41.2097846,33.6438674 C41.2082411,33.1624634 41.0739815,32.6907643 40.8217064,32.280418 C42.6686615,32.0456572 44.0398924,30.4573011 43.9991139,28.5998893 C43.9583354,26.7424775 42.5187105,25.2155659 40.6632242,25.0617394 L40.6632242,23.4174905 C42.0126601,23.2721243 43.0359183,22.1361704 43.0374093,20.7818263 L43.0374093,20.3945865 C43.0364809,19.7609889 42.8063192,19.1490303 42.3892578,18.6712676 C42.8110937,18.4436601 43.1749796,18.1225231 43.4529171,17.7325657 C44.0105439,16.9602036 44.1507837,15.9632008 43.8277885,15.0675037 C40.4033347,6.00142109 31.7090405,0 21.9994067,0 C12.2897728,0 3.59547857,6.00142109 0.171024842,15.0675037 C-0.152151288,15.9631822 -0.0118993534,16.9602712 0.545896174,17.7325657 C0.941393056,18.2878654 1.50789432,18.6990087 2.15916359,18.9034088 C1.86139408,19.3427742 1.70250319,19.8611438 1.70301934,20.3915453 L1.70301934,20.7787852 C1.70434474,21.8463342 2.34397093,22.8100834 3.32847769,23.2279254 L3.32847769,25.052616 C1.38975108,25.2240872 -0.070773992,26.887046 0.0132381254,28.8273591 C0.0972502428,30.7676722 1.69607094,32.2987384 3.64239434,32.3027198 L3.90246767,32.3027198 C3.66246449,32.7056003 3.53446488,33.1650536 3.53165999,33.6337302 L3.53165999,34.3990865 C3.5337497,34.8832015 3.66942499,35.35739 3.92380181,35.7696319 L2.66711933,35.7696319 C1.19500049,35.7713078 0.00203125873,36.9617001 -4.97379915e-14,38.4306389 L-4.97379915e-14,39.3429842 C0.00370975656,41.9135938 2.09127458,43.9966492 4.66744901,44 L39.3313643,44 C41.9075387,43.9966492 43.9951036,41.9135938 43.9984616,39.3429842 L43.9984616,38.4306389 C43.9923098,36.9651975 42.8003206,35.7803142 41.331694,35.779769 Z M41.7045335,20.7868949 C41.7045335,21.5219917 41.1073298,22.1179053 40.3706417,22.1179053 L23.5867683,22.1179053 L25.5728753,19.0696584 L40.3706417,19.0696584 C41.1069333,19.0696584 41.7039727,19.6649542 41.7045335,20.399655 L41.7045335,20.7868949 Z M20.7239298,25.328347 C21.0315072,25.5147849 21.4317655,25.4252347 21.6301228,25.1256036 L22.7191799,23.4529706 L39.3283166,23.4529706 L39.3283166,25.7642453 C39.3457641,26.2762598 39.0667177,26.7526904 38.6110831,26.9888154 C36.8354656,27.7707414 34.7766376,27.5477584 33.2104977,26.4039007 C30.8341374,24.619406 27.5611573,24.619406 25.1847971,26.4039007 C23.291062,27.7982027 20.7077513,27.7982027 18.8140162,26.4039007 C16.4361919,24.6170338 13.1600445,24.6170338 10.7822202,26.4039007 C9.21639504,27.5475785 7.15795363,27.7705616 5.38265069,26.9888154 C4.92719322,26.7525046 4.64821874,26.276197 4.66541719,25.7642453 L4.66541719,23.4529706 L17.6416544,23.4529706 L20.7239298,25.328347 Z M13.0131617,19.0706721 L23.9850056,19.0706721 L20.8692051,23.8544025 L13.0131617,19.0706721 Z M1.63495327,16.9763328 C1.33061357,16.5561073 1.25203903,16.0137127 1.4246596,15.5246901 C4.66003305,6.98898757 12.8512861,1.34175727 21.9968669,1.34175727 C31.1424476,1.34175727 39.3337007,6.98898757 42.5690742,15.5246901 C42.7430622,16.0134428 42.6647954,16.5563358 42.3597964,16.9763328 C42.014647,17.4579767 41.456744,17.7425616 40.8633588,17.7396836 L3.13139087,17.7396836 C2.5385485,17.7424658 1.9811324,17.458314 1.63596918,16.9773465 L1.63495327,16.9763328 Z M3.03487928,20.7879086 L3.03487928,20.4006688 C3.03543953,19.6663636 3.63186031,19.0712311 4.36775513,19.0706721 L10.4530648,19.0706721 L15.4554129,22.118919 L4.36877104,22.118919 C4.01500092,22.1186503 3.6758273,21.9781614 3.42586457,21.7283584 C3.17590184,21.4785554 3.03562565,21.1399009 3.03589519,20.7868949 L3.03487928,20.7879086 Z M3.64442616,30.9838981 C2.41562006,30.9894396 1.39926869,30.0305949 1.33599474,28.8060572 C1.2727208,27.5815194 2.18485514,26.5234566 3.40771879,26.402887 C3.57501843,27.1927369 4.10484136,27.8580907 4.83812214,28.1991935 C7.0659965,29.1926674 9.65848176,28.9032094 11.6112039,27.4429606 C13.5052581,26.048488 16.0889465,26.048488 17.9830007,27.4429606 C20.3593609,29.2274553 23.632341,29.2274553 26.0087013,27.4429606 C27.9021173,26.0488291 30.4850502,26.0488291 32.3784662,27.4429606 C34.3311719,28.9042242 36.9245138,29.1937344 39.1525639,28.1991935 C39.8862405,27.8575492 40.4160987,27.1914001 40.5829672,26.4008596 C41.8039256,26.5213385 42.715637,27.5761432 42.6557333,28.7989466 C42.5958296,30.02175 41.5853641,30.9827958 40.3584508,30.9838981 L3.64341025,30.9838981 L3.64442616,30.9838981 Z M17.6010179,32.3138707 L33.8454424,32.3138707 L29.2301565,38.3961725 L17.6010179,32.3138707 Z M21.283697,35.7412478 L6.19944351,35.7412478 C5.46321939,35.7401313 4.86667063,35.1448712 4.86555175,34.4102374 L4.86555175,33.6448811 C4.86555175,32.9097843 5.46275543,32.3138707 6.19944351,32.3138707 L14.7259885,32.3138707 L21.283697,35.7412478 Z M35.5196645,32.3138707 L38.5450488,32.3138707 C39.2817369,32.3138707 39.8789406,32.9097843 39.8789406,33.6448811 L39.8789406,34.4102374 C39.8783803,35.1451024 39.2815047,35.7406887 38.5450488,35.7412478 L32.9189311,35.7412478 L35.5196645,32.3138707 Z M42.6676176,39.3490665 C42.6653785,41.1850423 41.1743624,42.6728377 39.334412,42.6750719 L4.66744901,42.6750719 C2.82749868,42.6728377 1.33648254,41.1850423 1.33424348,39.3490665 L1.33424348,38.4367212 C1.33480425,37.7020204 1.93184371,37.1067246 2.66813524,37.1067246 L23.900685,37.1067246 L29.1072313,39.8285546 C29.2010364,39.8785731 29.305648,39.9050174 29.4120047,39.9055971 C29.6208359,39.9049776 29.8175298,39.8075923 29.9443423,39.6420307 L31.8684786,37.1077383 L41.3245826,37.1077383 C42.0606424,37.1082964 42.6573542,37.7032658 42.6584744,38.4377349 L42.6584744,39.3500802 L42.6676176,39.3490665 Z" id="Path_2172" fill-rule="nonzero"></path>
                        </g>
                    </g>
                </g>
            </g>
        </g>
    </g>
</svg>