<?xml version="1.0" encoding="UTF-8"?>
<svg width="15px" height="15px" viewBox="0 0 15 15" version="1.1" xmlns="http://www.w3.org/2000/svg" xmlns:xlink="http://www.w3.org/1999/xlink">
    <!-- Generator: Sketch 64 (93537) - https://sketch.com -->
    <title>Path</title>
    <desc>Created with Sketch.</desc>
    <g id="Restaurant" stroke="none" stroke-width="1" fill="none" fill-rule="evenodd">
        <g id="Reach-Destination-with-down-widow" transform="translate(-178.000000, -660.000000)" fill="#000000" fill-rule="nonzero">
            <g id="drop-down-date-window" transform="translate(-1.000000, 492.000000)">
                <g id="Delivery-process-icons" transform="translate(52.000000, 162.000000)">
                    <path d="M134.500046,6.05691691 C134.455619,6.01109093 134.394518,5.98522561 134.330694,5.98522561 C134.26687,5.98522561 134.20577,6.01109093 134.161342,6.05691691 C134.068397,6.15304804 134.068397,6.30556439 134.161342,6.40169552 L141.147116,13.2428289 L127.242099,13.2428289 C127.108484,13.2428289 127.000167,13.3511535 127.000167,13.4847788 C127.000167,13.618404 127.108484,13.7267287 127.242099,13.7267287 L141.189454,13.7267287 L134.20368,20.5739108 C134.157858,20.6183419 134.131994,20.6794467 134.131994,20.7432757 C134.131994,20.8071048 134.157858,20.8682095 134.20368,20.9126406 C134.247957,20.9587955 134.309076,20.9849915 134.373032,20.9852256 C134.435652,20.9841627 134.495786,20.9605371 134.542384,20.9186894 L141.927346,13.6783387 C141.975681,13.6330568 142.002134,13.5691233 141.999925,13.502925 C142.000408,13.438818 141.974098,13.3774222 141.927346,13.3335601 L134.500046,6.05691691 Z" id="Path"></path>
                </g>
            </g>
        </g>
    </g>
</svg>