<?xml version="1.0" encoding="UTF-8"?>
<svg width="20px" height="20px" viewBox="0 0 20 20" version="1.1" xmlns="http://www.w3.org/2000/svg" xmlns:xlink="http://www.w3.org/1999/xlink">
    <!-- Generator: Sketch 64 (93537) - https://sketch.com -->
    <title>Delivery_delivered_line</title>
    <desc>Created with Sketch.</desc>
    <g id="Restaurant" stroke="none" stroke-width="1" fill="none" fill-rule="evenodd">
        <g id="Reach-Destination-with-down-widow" transform="translate(-292.000000, -656.000000)" fill="#1A171B" fill-rule="nonzero">
            <g id="drop-down-date-window" transform="translate(-1.000000, 492.000000)">
                <g id="Delivery-process-icons" transform="translate(53.000000, 162.000000)">
                    <g id="Delivery_delivered_line" transform="translate(240.000000, 2.000000)">
                        <path d="M19.9991081,7.15332572 C19.9976033,7.12359941 19.9917564,7.09425616 19.9817546,7.06623556 C19.9817546,7.05926834 19.9817546,7.05230113 19.9748131,7.04533392 C19.9625541,7.01602389 19.9455495,6.98895088 19.9244878,6.96521096 L16.0685277,2.6612149 C16.0109707,2.59761331 15.9294031,2.56126148 15.8437991,2.56106121 L14.8199393,2.56106121 C14.8157981,1.27301842 13.8620494,0.187134033 12.5894202,0.021517994 C11.3167909,-0.144098045 10.1186773,0.661749648 9.78740808,1.90614315 C9.33237016,1.41006865 8.65203583,1.18890794 7.99364841,1.32303402 C7.335261,1.4571601 6.79466599,1.92704741 6.56832344,2.56193211 L4.15617915,2.56193211 C4.0702958,2.56199568 3.98840778,2.59834995 3.93058292,2.6620858 L0.0754904522,6.96608186 C0.054407871,6.98997705 0.0371389339,7.01700493 0.024297462,7.04620482 C0.024297462,7.05317203 0.024297462,7.06013924 0.0173560396,7.06710646 C0.00731753935,7.09511683 0.00146951489,7.12446559 1.23507078e-06,7.15419662 C1.23507078e-06,7.16029294 1.23507078e-06,7.16464744 1.23507078e-06,7.17074376 L1.23507078e-06,9.66065164 C-0.000228833682,9.74156471 0.0316924065,9.81923072 0.0886950304,9.87644514 C0.145697654,9.93365955 0.223076162,9.9656994 0.303689714,9.96546722 L1.29371009,9.96546722 L1.29371009,19.6951807 C1.29347953,19.7759426 1.32528183,19.8534761 1.38209652,19.9106653 C1.43891121,19.9678544 1.51606634,20 1.59652964,20 L18.402581,20 C18.4831945,20.0002285 18.560573,19.9681886 18.6175757,19.9109742 C18.6745783,19.8537598 18.7064995,19.7760938 18.7062682,19.6951807 L18.7062682,9.96198361 L19.6962886,9.96198361 C19.8640104,9.96198361 20.0000012,9.82551303 20.0000012,9.65716803 L20.0000012,7.16987285 C20.0000012,7.16434333 19.9997966,7.15881303 19.9991081,7.15332572 L19.9991081,7.15332572 Z M10.3010733,3.21597927 L10.3010733,2.57673744 C10.3010733,1.49307663 11.1763021,0.614595972 12.2559514,0.614595972 C13.3356008,0.614595972 14.2108295,1.49307663 14.2108295,2.57673744 C14.2108295,3.66039825 13.3356008,4.5388789 12.2559514,4.5388789 L10.3010733,4.5388789 L10.3010733,3.21597927 Z M10.3010733,5.14763917 L12.2559514,5.14763917 C13.4419504,5.14604445 14.4719704,4.32797244 14.7461867,3.16982148 L15.7058384,3.16982148 L16.9327348,4.53974981 L15.0871841,4.53974981 C14.9194623,4.53974981 14.7834969,4.67622039 14.7834969,4.84456539 C14.7834969,5.01291039 14.9194623,5.14938098 15.0871841,5.14938098 L17.4776364,5.14938098 L19.0151615,6.86679907 L10.3002057,6.86679907 L10.3002057,5.14763917 L10.3010733,5.14763917 Z M8.37222559,1.89307963 C9.10041918,1.89356001 9.69061724,2.48595096 9.69109585,3.21685017 L9.69109585,4.54062071 L8.37222559,4.54062071 C7.89312964,4.55295796 7.44507146,4.30346478 7.2019048,3.88894852 C6.95873814,3.47443226 6.95873814,2.96013898 7.2019048,2.54562272 C7.44507146,2.13110645 7.89312964,1.88161327 8.37222559,1.89395053 L8.37222559,1.89307963 Z M2.51366507,5.14763917 L5.8038993,5.14763917 C5.97162112,5.14763917 6.10758653,5.01116859 6.10758653,4.84282359 C6.10758653,4.67447859 5.97162112,4.538008 5.8038993,4.538008 L3.05856673,4.538008 L4.28546314,3.16807967 L6.44945158,3.16807967 C6.44945158,3.182885 6.44945158,3.19856123 6.44945158,3.21423746 C6.45040834,4.28066574 7.31148033,5.14493706 8.37396094,5.14589737 L9.6928312,5.14589737 L9.6928312,6.86505727 L0.978743043,6.86505727 L2.51366507,5.14763917 Z M0.598700166,7.47381754 L9.69109585,7.47381754 L9.69109585,9.35322335 L0.602170878,9.35322335 L0.598700166,7.47381754 Z M1.89154009,9.96111271 L9.69022817,9.96111271 L9.69022817,19.3860106 L1.89154009,19.3860106 L1.89154009,9.96111271 Z M18.095423,19.3860106 L10.296735,19.3860106 L10.296735,9.96111271 L18.095423,9.96111271 L18.095423,19.3860106 Z M19.3917337,9.35322335 L10.3010733,9.35322335 L10.3010733,7.47381754 L19.3917337,7.47381754 L19.3917337,9.35322335 Z" id="Path_1797"></path>
                    </g>
                </g>
            </g>
        </g>
    </g>
</svg>