<svg id="Edit" xmlns="http://www.w3.org/2000/svg" xmlns:xlink="http://www.w3.org/1999/xlink" width="18" height="15" viewBox="0 0 18 15">
  <defs>
    <clipPath id="clip-path">
      <path id="Path_21706" d="M17.308,14.624H.339a.339.339,0,1,1,0-.678H17.308a.339.339,0,1,1,0,.678ZM3.322,12.99a1.156,1.156,0,0,1-1.136-1.362L2.6,8.717,6.843,4.477a.342.342,0,0,1,.478,0,.337.337,0,0,1,.1.238.333.333,0,0,1-.1.239l-3.6,3.6,1.2,1.2,6.238-6.238-1.206-1.2-1.2,1.2a.338.338,0,1,1-.479-.477L10.916.4a1.359,1.359,0,0,1,1.915,0l1.928,1.928a1.359,1.359,0,0,1,0,1.915L6.441,12.556l-2.913.416A1.156,1.156,0,0,1,3.322,12.99Zm-.09-3.958-.383,2.687a.479.479,0,0,0,.573.576l2.689-.384L3.233,9.032h0Zm8.4-5.039h0L5.395,10.231l1.2,1.2,6.239-6.238-1.2-1.2Zm.233-3.32a.675.675,0,0,0-.478.2l-.956.965,2.879,2.879.96-.96a.682.682,0,0,0,0-.956L12.344.869A.675.675,0,0,0,11.866.673Z" transform="translate(0 0)" fill="#3b5998"/>
    </clipPath>
  </defs>
  <g id="Group_9" data-name="Group 9">
    <path id="Path_21706-2" data-name="Path_21706" d="M17.308,14.624H.339a.339.339,0,1,1,0-.678H17.308a.339.339,0,1,1,0,.678ZM3.322,12.99a1.156,1.156,0,0,1-1.136-1.362L2.6,8.717,6.843,4.477a.342.342,0,0,1,.478,0,.337.337,0,0,1,.1.238.333.333,0,0,1-.1.239l-3.6,3.6,1.2,1.2,6.238-6.238-1.206-1.2-1.2,1.2a.338.338,0,1,1-.479-.477L10.916.4a1.359,1.359,0,0,1,1.915,0l1.928,1.928a1.359,1.359,0,0,1,0,1.915L6.441,12.556l-2.913.416A1.156,1.156,0,0,1,3.322,12.99Zm-.09-3.958-.383,2.687a.479.479,0,0,0,.573.576l2.689-.384L3.233,9.032h0Zm8.4-5.039h0L5.395,10.231l1.2,1.2,6.239-6.238-1.2-1.2Zm.233-3.32a.675.675,0,0,0-.478.2l-.956.965,2.879,2.879.96-.96a.682.682,0,0,0,0-.956L12.344.869A.675.675,0,0,0,11.866.673Z" transform="translate(0 0)" fill="#3b5998"/>
  </g>
</svg>
