<?xml version="1.0" encoding="UTF-8"?>
<svg width="46px" height="46px" viewBox="0 0 46 46" version="1.1" xmlns="http://www.w3.org/2000/svg" xmlns:xlink="http://www.w3.org/1999/xlink">
    <!-- Generator: Sketch 64 (93537) - https://sketch.com -->
    <title>restaurants_icon_line</title>
    <desc>Created with Sketch.</desc>
    <g id="restaurants_icon_line" stroke="none" stroke-width="1" fill="none" fill-rule="evenodd" stroke-linecap="round" stroke-linejoin="round">
        <g stroke="#000000">
            <path d="M31.252,38.94 C31.2517346,38.1241128 31.575727,37.3415659 32.1526465,36.7646465 C32.7295659,36.187727 33.5121128,35.8637346 34.328,35.864 L34.328,35.864 C40.0778122,35.8673039 44.8140411,31.3491181 45.0815331,25.6055304 C45.349025,19.8619427 41.0532309,14.9231151 35.328,14.392 C35.853158,13.6269958 36.1322634,12.7199031 36.128,11.792 L36.128,11.792 C36.127291,9.94519258 35.0258835,8.2765602 33.328,7.55 C32.8121078,7.8858734 32.2668853,8.17438275 31.699,8.412 L31.699,8.412 C29.5894421,9.28582936 27.8340944,10.8422259 26.714,12.832 C26.6226689,13.0895195 26.4979373,13.3339398 26.343,13.559 C26.28,13.692 26.21,13.822 26.153,13.959 L26.153,13.959 C25.111269,16.4685152 23.1173273,18.4628165 20.608,19.505 C18.099114,20.5468073 16.1052597,22.5403019 15.063,25.049 C14.7417055,25.8135189 14.3286768,26.5361513 13.833,27.201 C13.7044506,28.6321232 13.076446,29.9723856 12.059,30.987 L12.059,30.987 C10.2985089,32.7450622 9.77093377,35.3907657 10.7224417,37.6896229 C11.6739496,39.9884801 13.9170066,41.4874058 16.405,41.487 L16.405,41.487 C18.0359569,41.4853031 19.6004857,42.1329921 20.753,43.287 C22.5100913,45.04929 25.1563806,45.5782882 27.4559354,44.6269295 C29.7554903,43.6755709 31.2545546,41.4315806 31.253,38.943 L31.252,38.94 Z" id="Path_2459" stroke-width="1.3"></path>
            <path d="M29.478,0.65 L29.478,0.65 C28.5285008,1.60309203 27.3998356,2.35893406 26.157,2.874 L26.157,2.874 C24.9128149,3.38673591 23.7831837,4.14208965 22.834,5.096 C21.8822634,6.04697095 21.1272181,7.17614097 20.612,8.419 C19.5679765,10.9264031 17.5752148,12.9195243 15.068,13.964 L15.068,13.964 C12.5604259,15.0070754 10.567623,17.0002378 9.525,19.508 C8.47938514,22.0150274 6.48515738,24.0070985 3.977,25.05 C2.73162764,25.5640824 1.60075266,26.3203784 0.65,27.275 L0.65,27.275 C2.11574307,29.4700827 4.00086051,31.3538408 6.197,32.818 C7.14708799,31.8646893 8.27645127,31.108835 9.52,30.594 L9.52,30.594 C12.028336,29.5510238 14.0221191,27.5579596 15.066,25.05 C16.1085374,22.5414877 18.1022997,20.548085 20.611,19.506 C23.1203931,18.4633968 25.1143018,16.4687689 26.156,13.959 L26.156,13.959 C27.1988246,11.4507945 29.1919826,9.45727697 31.7,8.414 C32.9442619,7.89939614 34.0743233,7.14352949 35.025,6.19 L35.025,6.19 C33.5597055,3.99537694 31.6744716,2.11252211 29.478,0.65 Z" id="Path_2460" stroke-width="1.3"></path>
            <path d="M34.329,31.2520001 C30.9331313,31.2525521 28.1797367,28.5002018 28.1790003,25.1043332 C28.1782642,21.7084646 30.9304651,18.9549207 34.3263337,18.9540001 C37.7222023,18.9530799 40.4758954,21.7051315 40.477,25.101 C40.477,28.4969323 37.7249319,31.2503437 34.329,31.2520001 Z" id="Path_2461" stroke-width="1.3"></path>
            <path d="M35.128,28.639 C36.6357654,28.636244 37.8568999,27.4137675 37.858,25.906 C37.8568999,27.4137675 36.6357654,28.636244 35.128,28.639 Z" id="Path_2462"></path>
            <path d="M5.826,26.9 C8.33481082,25.8594631 10.3285579,23.8664352 11.37,21.358 C11.8855562,20.115132 12.6413292,18.9862301 13.594,18.036 C12.6412885,18.9861966 11.8855097,20.1151072 11.37,21.358 C10.3285579,23.8664352 8.33481082,25.8594631 5.826,26.9 L5.826,26.9 Z" id="Path_2463"></path>
            <path d="M22.459,10.269 C23.5030323,7.76090992 25.4967217,5.76757999 28.005,4.724 L28.005,4.724 C29.2478356,4.20893406 30.3765008,3.45309203 31.326,2.5 C30.3765008,3.45309203 29.2478356,4.20893406 28.005,4.724 L28.005,4.724 C25.4967217,5.76757999 23.5030323,7.76090992 22.459,10.269 L22.459,10.269 Z" id="Path_2464"></path>
            <path d="M29.849,6.571 C27.3416824,7.61273438 25.3485438,9.60443492 24.305,12.111 C23.7898523,13.3536017 23.0347901,14.4824571 22.083,15.433 C23.0349731,14.4826075 23.7900611,13.3537134 24.305,12.111 C25.3478906,9.60330228 27.3411142,7.61043822 29.849,6.568 L29.849,6.571 Z" id="Path_2465"></path>
            <path d="M13.218,23.201 C12.1735069,25.7087815 10.1799698,27.7019591 7.672,28.746 L7.672,28.746 C6.42937288,29.2610022 5.30075709,30.0164713 4.351,30.969 C5.30075709,30.0164713 6.42937288,29.2610022 7.672,28.746 L7.672,28.746 C10.1799698,27.7019591 12.1735069,25.7087815 13.218,23.201 L13.218,23.201 Z" id="Path_2466"></path>
        </g>
    </g>
</svg>