<?xml version="1.0" encoding="UTF-8"?>
<svg width="46px" height="46px" viewBox="0 0 46 46" version="1.1" xmlns="http://www.w3.org/2000/svg" xmlns:xlink="http://www.w3.org/1999/xlink">
    <!-- Generator: Sketch 64 (93537) - https://sketch.com -->
    <title>restaur_color</title>
    <desc>Created with Sketch.</desc>
    <g id="Food-Discover-(categories-with-listing)" stroke="none" stroke-width="1" fill="none" fill-rule="evenodd" stroke-linecap="round" stroke-linejoin="round">
        <g id="Food-Categories-+search-filed" transform="translate(-56.000000, -441.000000)" stroke="#060809">
            <g id="Content" transform="translate(37.000000, 263.000000)">
                <g id="Restaurants" transform="translate(0.000000, 157.000000)">
                    <g id="restaur_color" transform="translate(19.000000, 21.000000)">
                        <g>
                            <path d="M31.214,38.892 C31.2124063,38.0763078 31.5353908,37.2934928 32.1117042,36.7162414 C32.6880176,36.13899 33.4703063,35.8147328 34.286,35.815 L34.286,35.815 C40.0247085,35.8128948 44.749083,31.3020325 45.0163937,25.5695526 C45.2837045,19.8370728 40.9996098,14.9061372 35.286,14.37 C35.8099495,13.6074095 36.0890159,12.7032341 36.086,11.778 L36.086,11.778 C36.0848744,9.93253351 34.9832737,8.26557557 33.286,7.541 C32.7707419,7.87647864 32.226189,8.16465321 31.659,8.402 L31.659,8.402 C29.5521807,9.27475458 27.7990034,10.8289872 26.68,12.816 C26.5886315,13.0731904 26.4638994,13.3172752 26.309,13.542 C26.246,13.675 26.176,13.804 26.119,13.942 L26.119,13.942 C25.0785879,16.44835 23.0871621,18.4401353 20.581,19.481 C18.0762205,20.5230637 16.0863489,22.5150928 15.047,25.021 C14.7262317,25.7844335 14.3138757,26.5060565 13.819,27.17 C13.6899806,28.5985479 13.0627289,29.9362365 12.047,30.949 L12.047,30.949 C10.2899845,32.7052467 9.7639385,35.3469747 10.7141639,37.642313 C11.6643893,39.9376513 13.9037484,41.4345553 16.388,41.435 L16.388,41.435 C18.0170314,41.4341256 19.579392,42.0818108 20.73,43.235 C22.4854664,44.9923799 25.126849,45.5189357 27.4220064,44.5690417 C29.7171639,43.6191478 31.2138908,41.3799578 31.214,38.896 L31.214,38.892 Z" id="Path_2451" stroke-width="1.3" fill="#F4F7F9" fill-rule="nonzero"></path>
                            <path d="M29.442,0.65 L29.442,0.65 C28.4936276,1.60184331 27.3663207,2.35666651 26.125,2.871 L26.125,2.871 C24.8823299,3.38300329 23.7540569,4.13733821 22.806,5.09 C21.8551532,6.0397547 21.1007828,7.1675725 20.586,8.409 C19.5441825,10.9141813 17.5542398,12.9059213 15.05,13.95 L15.05,13.95 C12.5455911,14.9917565 10.5553042,16.982403 9.514,19.487 C8.47082572,21.9916163 6.47980462,23.982278 3.975,25.025 C2.73093287,25.536337 1.60075496,26.2895624 0.65,27.241 L0.65,27.241 C2.11389958,29.4333062 3.99663706,31.3146843 6.19,32.777 C7.13889382,31.8248561 8.26691616,31.070009 9.509,30.556 L9.509,30.556 C12.0143579,29.5154821 14.0063159,27.5260406 15.05,25.022 C16.0912186,22.5166529 18.0824649,20.5257661 20.588,19.485 C23.0942279,18.4437156 25.0856206,16.4516037 26.126,13.945 L26.126,13.945 C27.1675058,11.4399597 29.1581478,9.44895813 31.663,8.407 C32.905772,7.89317543 34.0344838,7.13832179 34.984,6.186 L34.984,6.186 C33.5202717,3.99287959 31.6367047,2.11135182 29.442,0.65 Z" id="Path_2452" stroke-width="1.3" fill="#B25B28" fill-rule="nonzero"></path>
                            <path d="M34.286,31.214 C31.8021064,31.214 29.5628117,29.7176851 28.6123602,27.4228279 C27.6619087,25.1279707 28.1874899,22.4865387 29.9440109,20.7303037 C31.700532,18.9740687 34.3420496,18.4489176 36.636752,19.3997429 C38.9314543,20.3505681 40.4274045,22.5901064 40.4270001,25.074 C40.4253443,28.4647328 37.676733,31.2128965 34.286,31.214 Z" id="Path_2453" stroke-width="1.3" fill="#FFCA40" fill-rule="nonzero"></path>
                            <path d="M35.085,28.607 C35.8094796,28.6067349 36.5041664,28.3186138 37.0161695,27.806048 C37.5281726,27.2934823 37.8155306,26.5984795 37.8150007,25.874 C37.8155306,26.5984795 37.5281726,27.2934823 37.0161695,27.806048 C36.5041664,28.3186138 35.8094796,28.6067349 35.085,28.607 L35.085,28.607 Z" id="Path_2454"></path>
                            <path d="M5.82,26.868 C8.32564562,25.8287819 10.3168768,23.83827 11.357,21.333 C11.871847,20.0916594 12.6265983,18.96412 13.578,18.015 C12.6265372,18.9640698 11.8717773,20.091622 11.357,21.333 C10.3168768,23.83827 8.32564562,25.8287819 5.82,26.868 L5.82,26.868 Z" id="Path_2455"></path>
                            <path d="M22.432,10.256 C23.4744787,7.75126442 25.4652644,5.76047873 27.97,4.718 L27.97,4.718 C29.2112832,4.20359649 30.3385771,3.44878198 31.287,2.497 C30.3387679,3.44926378 29.2114419,4.20443968 27.97,4.719 L27.97,4.719 C25.4648869,5.76126115 23.4737134,7.75207512 22.431,10.257 L22.432,10.256 Z" id="Path_2456"></path>
                            <path d="M29.812,6.564 C27.3050111,7.60518591 25.3126384,9.59719906 24.271,12.104 C23.7562876,13.3451702 23.0019003,14.4726734 22.051,15.422 C23.0020834,14.4728238 23.7564965,13.345282 24.271,12.104 C25.3125718,9.59946748 27.3032794,7.60911938 29.808,6.568 L29.812,6.564 Z" id="Path_2457"></path>
                            <path d="M13.202,23.172 C12.1588257,25.6766163 10.1678046,27.667278 7.663,28.71 L7.663,28.71 C6.42192515,29.2243396 5.29468062,29.9787812 4.346,30.93 C5.29468062,29.9787812 6.42192515,29.2243396 7.663,28.71 L7.663,28.71 C10.1678046,27.667278 12.1588257,25.6766163 13.202,23.172 Z" id="Path_2458"></path>
                        </g>
                    </g>
                </g>
            </g>
        </g>
    </g>
</svg>