<?xml version="1.0" encoding="UTF-8"?>
<svg width="44px" height="49px" viewBox="0 0 44 49" version="1.1" xmlns="http://www.w3.org/2000/svg" xmlns:xlink="http://www.w3.org/1999/xlink">
    <!-- Generator: Sketch 64 (93537) - https://sketch.com -->
    <title>grocery_color</title>
    <desc>Created with Sketch.</desc>
    <g id="Food-Discover-(categories-with-listing)" stroke="none" stroke-width="1" fill="none" fill-rule="evenodd" stroke-linecap="round" stroke-linejoin="round">
        <g id="Food-Categories-+search-filed" transform="translate(-211.000000, -755.000000)" stroke="#060809">
            <g id="Content" transform="translate(37.000000, 263.000000)">
                <g id="Grocery" transform="translate(155.000000, 471.000000)">
                    <g id="grocery_color" transform="translate(19.000000, 21.000000)">
                        <g id="Milk_color" transform="translate(14.499000, 0.500000)">
                            <rect id="Rectangle_346" fill="#FFCA40" fill-rule="nonzero" x="20.001" y="8.25" width="8" height="37"></rect>
                            <polygon id="Path_2519" fill="#FFCA40" fill-rule="nonzero" points="28.281 8.484 19.798 8.484 24.039 2.829"></polygon>
                            <rect id="Rectangle_347" fill="#F4F7F9" fill-rule="nonzero" x="0.001" y="8.25" width="20" height="37"></rect>
                            <polygon id="Path_2520" fill="#FBD314" fill-rule="nonzero" points="-7.10542736e-15 37.472 19.8 34.644 19.8 33.23 -7.10542736e-15 36.059"></polygon>
                            <polygon id="Path_2521" fill="#FBD314" fill-rule="nonzero" points="-7.10542736e-15 19.09 -7.10542736e-15 20.504 19.8 17.676 19.8 16.261"></polygon>
                            <polygon id="Path_2522" fill="#E79AC2" fill-rule="nonzero" points="-7.10542736e-15 36.059 19.8 33.226 19.8 17.676 -7.10542736e-15 20.504"></polygon>
                            <rect id="Rectangle_348" fill="#F4F7F9" fill-rule="nonzero" x="4.243" y="0" width="19.796" height="2.828"></rect>
                            <polygon id="Path_2523" fill="#F4F7F9" fill-rule="nonzero" points="19.8 8.484 -7.10542736e-15 8.484 4.243 2.829 24.043 2.829"></polygon>
                            <polygon id="Path_2524" points="12.02 31.109 12.02 22.625 9.898 28.987 7.778 22.625 7.778 22.625 9.898 28.987 12.02 22.625"></polygon>
                            <rect id="Rectangle_349" x="0.001" y="8.25" width="20" height="37"></rect>
                        </g>
                        <g id="Jam_color" transform="translate(0.170000, 18.829000)">
                            <path d="M18.832,9.852 L18.832,9.852 C17.8064113,8.83104818 17.2305098,7.44312561 17.232,5.9959982 C16.5510431,5.99519394 15.8978475,6.26582925 15.417,6.748 L15.417,6.748 C14.9359066,7.2295027 14.2831583,7.50004254 13.6025,7.50004254 C12.9218417,7.50004254 12.2690934,7.2295027 11.788,6.748 C10.7852138,5.74560048 9.15978621,5.74560048 8.157,6.748 L8.157,6.748 C7.67573587,7.22956346 7.02282195,7.50012817 6.342,7.50012817 C5.66117805,7.50012817 5.00826413,7.22956346 4.527,6.748 C4.04574361,6.26595008 3.39215935,5.99566276 2.711,5.997 C2.71260105,7.44414764 2.13668259,8.83211113 1.111,9.853 L1.111,9.853 C0.610133468,10.3519165 0.329019269,11.030046 0.329997442,11.737 L0.329997442,26.993 C0.330552082,28.0579667 1.19403312,28.921 2.259,28.921 L17.683,28.921 C18.7479669,28.921 19.6114479,28.0579667 19.612003,26.993 L19.612003,11.737 L19.612003,11.737 C19.613069,11.0299313 19.3323704,10.3515765 18.832,9.852 L18.832,9.852 Z" id="Path_2487" fill="#EF484A" fill-rule="nonzero"></path>
                            <path d="M0.33,1.928 C0.33,1.4164893 0.533265185,0.925943348 0.895051633,0.564344451 C1.25683808,0.202745553 1.74748937,-0.00026530638 2.259,-2.59711385e-07 L17.684,-2.59711385e-07 C18.4636506,-0.000328026396 19.1666774,0.469174292 19.4650812,1.18945922 C19.763485,1.90974414 19.5984603,2.73886779 19.047,3.29 L19.047,3.29 C18.0947818,4.24405831 18.0947818,5.78894169 19.047,6.743 C18.0446736,5.74326319 16.4223264,5.74326319 15.42,6.743 L15.42,6.743 C14.9389066,7.2245027 14.2861583,7.49504254 13.6055,7.49504254 C12.9248417,7.49504254 12.2720934,7.2245027 11.791,6.743 C10.7882138,5.74060048 9.16278621,5.74060048 8.16,6.743 L8.16,6.743 C7.67873587,7.22456346 7.02582195,7.49512817 6.345,7.49512817 C5.66417805,7.49512817 5.01126413,7.22456346 4.53,6.743 C3.52710039,5.74181774 1.90289961,5.74181774 0.9,6.743 C1.85421609,5.7885973 1.85421609,4.2414027 0.9,3.287 L0.9,3.287 C0.537072631,2.92766559 0.331995539,2.43871863 0.33,1.928 L0.33,1.928 Z" id="Path_2488" fill="#A2D9D7" fill-rule="nonzero"></path>
                            <rect id="Rectangle_344" fill="#FFCA40" fill-rule="nonzero" x="0.33" y="13.014" width="19.281" height="9.641"></rect>
                            <path d="M7.078,15.424 L7.078,19.039 C7.078,19.704227 6.53872698,20.2435 5.8735,20.2435 C5.20827302,20.2435 4.669,19.704227 4.669,19.039 C4.669,19.704227 5.20827302,20.2435 5.8735,20.2435 C6.53872698,20.2435 7.078,19.704227 7.078,19.039 L7.078,15.424 Z" id="Path_2491"></path>
                            <polygon id="Path_2492" points="10.695 20.244 9.489 15.424 8.284 20.244 9.489 15.424"></polygon>
                            <polygon id="Path_2493" points="14.309 20.244 14.309 15.424 13.109 19.039 11.909 15.424 11.909 15.424 13.109 19.039 14.309 15.424"></polygon>
                            <path d="M7.079,24.101 L2.259,28.921 L7.079,24.101 Z" id="Path_2494" stroke-width="0.8"></path>
                            <path d="M6.116,26.994 L4.189,28.925 L6.116,26.994 Z" id="Path_2495" stroke-width="0.8"></path>
                            <path d="M6.116,9.159 L2.259,13.014 L6.116,9.159 Z" id="Path_2496" stroke-width="0.8"></path>
                            <path d="M5.634,11.568 L4.189,13.015 L5.634,11.568 Z" id="Path_2497" stroke-width="0.8"></path>
                        </g>
                    </g>
                </g>
            </g>
        </g>
    </g>
</svg>