<?xml version="1.0" encoding="UTF-8"?>
<svg width="19px" height="19px" viewBox="0 0 19 19" version="1.1" xmlns="http://www.w3.org/2000/svg" xmlns:xlink="http://www.w3.org/1999/xlink">
    <!-- Generator: Sketch 64 (93537) - https://sketch.com -->
    <title>ic_marker</title>
    <desc>Created with Sketch.</desc>
    <defs>
        <path d="M8.54600638,16.571 C4.28500638,12.782 2.14000638,9.646 2.14000638,7.115 C2.14000638,3.185494 5.32550038,0 9.25500638,0 C13.1845124,0 16.3700064,3.185494 16.3700064,7.115 C16.3700064,9.647 14.2250064,12.782 9.96400638,16.571 C9.55952523,16.9300489 8.95048752,16.9300489 8.54600638,16.571 Z M9.49100638,16.039 C13.6120064,12.375 15.6590064,9.383 15.6590064,7.114 C15.6590064,3.5793776 12.7936288,0.714 9.25900638,0.714 C5.72438398,0.714 2.85900638,3.5793776 2.85900638,7.114 C2.85900638,9.383 4.90500638,12.374 9.02600638,16.039 C9.16072872,16.1582889 9.36328403,16.1582889 9.49800638,16.039 L9.49100638,16.039 Z M11.4780064,9.419 L11.4780064,9.419 C12.52612,8.40775074 12.7591643,6.81630917 12.0450064,5.547 C11.3323628,4.27794489 9.85308659,3.64966341 8.44500638,4.018 C7.03513847,4.3863984 6.05220744,5.66079664 6.05400638,7.118 L6.05400638,7.118 C6.05333145,7.94787741 6.37618707,8.74533078 6.95400638,9.341 C7.08882453,9.48185754 7.08480643,9.70508558 6.94500638,9.841 C6.80393565,9.97527186 6.58115349,9.97126178 6.44500638,9.832 C5.73269145,9.09737808 5.33762813,8.11223383 5.34500638,7.089 C5.3502325,6.0054947 5.8059787,4.97300132 6.60300638,4.239 C7.33147812,3.56409183 8.28997273,3.19249634 9.28300638,3.2 C10.3665117,3.20522613 11.3990051,3.66097233 12.1330064,4.458 C12.8079145,5.18647175 13.17951,6.14496635 13.1720064,7.138 C13.1669088,8.18315893 12.7425156,9.18253642 11.9940064,9.912 C11.2635264,10.6280983 10.280941,11.0285305 9.25800638,11.0270044 C9.061393,11.0270044 8.90200638,10.8676134 8.90200638,10.671 C8.90200638,10.4743866 9.061393,10.315 9.25800638,10.315 C10.0878428,10.3154638 10.8852198,9.99263913 11.4810064,9.415 L11.4780064,9.419 Z M0.178006375,17.788 L18.3230064,17.788 C18.4213131,17.788 18.5010064,17.8676933 18.5010064,17.966 L18.5010064,18.322 C18.5010064,18.3692085 18.4822529,18.4144835 18.4488714,18.447865 C18.4154899,18.4812465 18.3702149,18.5 18.3230064,18.5 L0.178006375,18.5 C0.13079784,18.5 0.0855228434,18.4812465 0.052141368,18.447865 C0.0187598927,18.4144835 3.15219275e-06,18.3692085 3.15219275e-06,18.322 L3.15219275e-06,17.966 C-0.000283827564,17.917739 0.0190352537,17.8714288 0.0535365218,17.8376817 C0.0880377899,17.8039345 0.134763584,17.7856435 0.183006375,17.787 L0.178006375,17.788 Z" id="path-1"></path>
    </defs>
    <g id="ic_marker" stroke="none" stroke-width="1" fill="none" fill-rule="evenodd">
        <mask id="mask-2" fill="white">
            <use xlink:href="#path-1"></use>
        </mask>
        <use id="Path_21500" fill="#000000" xlink:href="#path-1"></use>
    </g>
</svg>