<?xml version="1.0" encoding="UTF-8"?>
<svg width="93px" height="72px" viewBox="0 0 93 72" version="1.1" xmlns="http://www.w3.org/2000/svg" xmlns:xlink="http://www.w3.org/1999/xlink">
    <!-- Generator: Sketch 64 (93537) - https://sketch.com -->
    <title>Yellow Delivery_service icon</title>
    <desc>Created with Sketch.</desc>
    <g id="Yellow-Delivery_service-icon" stroke="none" stroke-width="1" fill="none" fill-rule="evenodd">
        <g id="Delivery_service-icon">
            <circle id="Oval" fill="#FFB800" cx="39.5" cy="9.5" r="3.5"></circle>
            <path d="M45,9.5 C45,6.46243388 42.5375661,4 39.5,4 C36.4624339,4 34,6.46243388 34,9.5 C34,12.5375661 36.4624339,15 39.5,15 C42.5375661,15 45,12.5375661 45,9.5 Z M39.5,6.04439081 C41.4084803,6.04439081 42.9556092,7.59151974 42.9556092,9.5 C42.9556092,11.4084803 41.4084803,12.9556092 39.5,12.9556092 C37.5915197,12.9556092 36.0443908,11.4084803 36.0443908,9.5 C36.0443908,7.59151974 37.5915197,6.04439081 39.5,6.04439081 Z" id="Path_334" fill="#000000" fill-rule="nonzero"></path>
            <path d="M40.2270826,25.1763822 C41.119175,24.1368969 48.9903847,15.0195367 48.9903847,10.0390846 C49.1473215,6.50715154 47.3735714,3.17341888 44.3725994,1.36003666 C41.3716274,-0.453345554 37.6283726,-0.453345554 34.6274006,1.36003666 C31.6264286,3.17341888 29.8526785,6.50715154 30.0096153,10.0390846 C30.0096153,15.0206437 37.8813723,24.1374504 38.7729174,25.1763822 L39.5095777,26 L40.2270826,25.1763822 Z M31.9481374,10.0385311 C31.8139846,7.22184204 33.2234584,4.55906301 35.6155313,3.11008761 C38.0076042,1.66111221 40.9940377,1.66111221 43.3861106,3.11008761 C45.7781834,4.55906301 47.1876573,7.22184204 47.0535045,10.0385311 C47.0535045,13.2937032 42.1278413,19.8621657 39.5117669,23.0193671 C36.872706,19.8621657 31.9481374,13.2937032 31.9481374,10.0385311 Z" id="Path_335" fill="#000000" fill-rule="nonzero"></path>
            <rect id="Rectangle_163" fill="#000000" fill-rule="nonzero" x="6" y="55" width="9" height="2"></rect>
            <rect id="Rectangle_164" fill="#000000" fill-rule="nonzero" x="0" y="55" width="3" height="2"></rect>
            <rect id="Rectangle_165" fill="#000000" fill-rule="nonzero" x="9" y="60" width="6" height="2"></rect>
            <rect id="Rectangle_166" fill="#000000" fill-rule="nonzero" x="29" y="41" width="5" height="2"></rect>
            <path d="M5,20.7343459 L5,39.4621721 L12.6698991,39.4621721 L22.9720909,47.2720504 C22.9329757,47.5497054 22.9136935,47.8229178 22.8938604,48.0983516 C19.9298993,50.5731704 18.1896881,54.2321029 18.1317135,58.1111442 L18.1317135,62.2420945 L21.6834906,62.2420945 C21.9764716,65.367059 23.6013772,68.2097501 26.1365717,70.032537 L12.4737719,70.032537 L12.4737719,72 L48.7743985,72 L48.7743985,70.032537 L38.4121565,70.032537 C39.6497057,69.1468909 40.6872415,68.0072177 41.4565368,66.6884609 L48.0124771,66.6884609 L51.1350879,65.0558498 C52.0279106,65.5440355 53.0271148,65.8008841 54.0428402,65.8032969 L68.6218189,65.8032969 L68.9143571,65.4295733 C68.9336393,65.4101375 69.2658436,65.0164228 69.8707531,64.3867014 C70.6438547,66.7062208 72.1701962,68.6952833 74.2031828,70.032537 L57.753282,70.032537 L57.753282,72 L93,72 L93,70.032537 L85.7983823,70.032537 C88.2928661,68.4034346 89.9956048,65.7949206 90.4926697,62.8411143 C90.9897345,59.8873079 90.2356012,56.8587369 88.4135964,54.4916344 C89.454393,54.3490609 90.503474,54.2767096 91.5538367,54.2750635 C92.0554978,54.3172589 92.524591,54.0206645 92.7052581,53.5470522 C93.0358098,52.6618883 92.2562589,51.9921845 91.0855553,50.969859 C90.8590199,50.7866566 90.6439349,50.5895159 90.4415306,50.3795646 C88.123886,48.0432269 85.1437958,46.4897909 81.9127481,45.9337536 L73.9304777,26.1830466 L76.3308333,26.1830466 L76.3308333,25.2584556 L76.5258588,25.2584556 C78.242927,25.2584886 79.6378667,23.8611143 79.6484696,22.130395 L79.6484696,22.0537622 C79.6378667,20.3230429 78.242927,18.9256686 76.5258588,18.9257016 L76.3308333,18.9257016 L76.3308333,18 L69.5798677,18 C67.3380479,18 65.5206939,19.8318374 65.5206939,22.0915233 L65.5206939,24.216139 L64.3301572,24.216139 L60.1927529,20.0257705 L55.3138112,20.0257705 L55.3138112,21.9932334 L59.3729849,21.9932334 L63.5302223,26.1836019 L67.4527681,26.1836019 L65.2865532,32.7917896 L68.2141386,50.2635048 C66.7593861,51.6941435 65.5872242,53.3900814 64.7598743,55.2612939 L53.6935574,55.2612939 C53.1653219,54.176676 52.7410254,53.0437015 52.4264429,51.8777907 C51.3355778,47.7520829 51.5401739,43.3869847 53.0120701,39.3833181 C54.0555932,39.1140996 54.7861935,38.1673028 54.7882341,37.0815586 C54.7773518,33.8594361 52.1886585,31.2501122 48.9920117,31.2391432 L28.9098996,31.2391432 C26.6632276,31.2509847 24.8448444,33.0838595 24.8330965,35.3484364 C24.8393236,36.1051661 25.0487391,36.8460724 25.4391078,37.4924879 L23.579755,37.4924879 L23.579755,20.7343459 L5,20.7343459 Z M6.95190725,37.4947091 L6.95190725,22.7012536 L21.6283986,22.7012536 L21.6283986,37.4947091 L6.95190725,37.4947091 Z M23.6381524,60.2768528 C24.10804,55.8258966 27.8333935,52.4492332 32.2740886,52.4492332 C36.7147838,52.4492332 40.4401373,55.8258966 40.9100249,60.2768528 L23.6381524,60.2768528 Z M35.1523668,62.2437605 C34.7293701,63.4821661 33.573205,64.3134545 32.2738132,64.3134545 C30.9744214,64.3134545 29.8182562,63.4821661 29.3952596,62.2437605 L35.1523668,62.2437605 Z M32.2842806,70.032537 C27.8595303,70.0216749 24.143619,66.6735434 23.6387033,62.2426499 L27.3849549,62.2426499 C27.8530103,64.5954891 29.9030289,66.2886365 32.2837297,66.2886365 C34.6644305,66.2886365 36.7144491,64.5954891 37.1825046,62.2426499 L40.9100249,62.2426499 C40.8157655,63.0960624 40.5988181,63.9311105 40.2660001,64.7215532 L36.8117358,64.7215532 L36.8117358,66.6890162 L39.0952965,66.6890162 C37.4522895,68.7955097 34.9426396,70.0274943 32.2842806,70.032537 Z M47.5447465,64.7209979 L42.3523317,64.7209979 C42.6286053,63.919742 42.8055076,63.0871214 42.8790106,62.2420945 L48.5226284,62.2420945 C48.7742471,62.7749729 49.0959387,63.2712554 49.4790244,63.7175529 L47.5447465,64.7209979 Z M80.8748452,69.7114048 C76.4589142,70.1706918 72.4075928,67.2067037 71.4722756,62.832389 C72.6354817,61.7957428 73.8539041,60.8238033 75.1221163,59.9208992 C75.035961,60.2884488 74.9901433,60.6644296 74.9854883,61.0420699 C74.9840411,63.6018106 76.8878134,65.7554439 79.4106712,66.0480367 C81.933529,66.3406295 84.2728035,64.679091 84.8481477,62.1859089 C85.4234919,59.6927269 84.0518553,57.1611286 81.6598762,56.3013893 C83.1154876,55.6885232 84.6247876,55.2142584 86.1680492,54.8847938 C87.7754481,56.5254293 88.6792058,58.7368211 88.6846488,61.0426252 C88.6562911,65.5167279 85.2907762,69.2521177 80.8748452,69.7114048 Z M79.1228926,61.4946474 L80.8599413,60.5894923 L79.5327766,58.0122991 L79.9817758,57.9728721 C81.4402463,57.9636994 82.703008,58.9919867 83.0006313,60.4311748 C83.2982545,61.870363 82.5482467,63.3215507 81.2076048,63.9004959 C79.866963,64.479441 78.3072743,64.0256767 77.4788929,62.8156921 C76.6505116,61.6057074 76.783041,59.9748752 77.7957279,58.9168989 L79.1228926,61.4946474 Z M76.5286134,20.8914986 C76.8374111,20.8861364 77.1354007,21.006042 77.3556428,21.2242802 C77.5758849,21.4425184 77.6999137,21.7407914 77.6998679,22.0520963 L77.6998679,22.1309503 C77.689338,22.7752783 77.1679336,23.2919386 76.5286134,23.2915482 L76.3335879,23.2915482 L76.3335879,20.8914986 L76.5286134,20.8914986 Z M67.4742539,23.9973469 L67.4742539,22.0893021 C67.4742539,20.9159092 68.4179559,19.9646864 69.5820713,19.9646864 L74.3833334,19.9646864 L74.3833334,24.2139177 L67.6869088,24.2139177 C67.5691072,24.2126998 67.4742539,24.1160935 67.4742539,23.9973469 Z M67.2792285,32.9478317 L69.5038408,26.1808254 L71.8265167,26.1808254 L79.7305566,45.7149615 L79.2424421,45.7149615 C75.8920053,45.7200876 72.6304897,46.8020475 69.9319051,48.8035951 L67.2792285,32.9478317 Z M64.058554,57.2259803 C63.921926,57.6979937 63.8045801,58.1700071 63.7070674,58.6620117 L55.7820926,58.6620117 C55.4306061,58.1899983 55.0989526,57.7179848 54.7865814,57.2259803 L64.058554,57.2259803 Z M49.9087415,58.6620117 L49.9087415,53.9013399 C49.9087415,48.3537941 44.7174285,43.8502309 38.3355787,43.8502309 L34.6444191,43.8502309 C31.2682372,43.8267753 27.9515182,44.7458825 25.061728,46.5057228 C25.517619,43.9814179 26.4951769,41.5819956 27.930916,39.4632827 L50.9213312,39.4632827 C49.5474429,43.6415015 49.4117054,48.1327991 50.5307294,52.3875652 C51.141062,54.6195191 52.1030999,56.7381706 53.3800843,58.662567 L49.9087415,58.6620117 Z M28.9098996,33.2066061 L48.9925626,33.2066061 C50.0122845,33.2066061 50.9902412,33.6149174 51.7112935,34.3417161 C52.4323458,35.0685148 52.837429,36.0542653 52.837429,37.0821139 C52.837429,37.3027062 52.6659699,37.4845908 52.4473778,37.4952644 L28.9098996,37.4952644 C27.7349828,37.4952644 26.7825246,36.5352156 26.7825246,35.3509353 C26.7825246,34.166655 27.7349828,33.2066061 28.9098996,33.2066061 Z M25.6313786,39.4621721 C24.5993176,41.2142395 23.8291179,43.110083 23.3456142,45.0885719 L15.9082031,39.4621721 L25.6313786,39.4621721 Z" id="Path_336" fill="#000000" fill-rule="nonzero"></path>
            <path d="M20.0863754,58.1111442 C20.0863754,51.3441379 26.6241353,45.8160279 34.645521,45.8160279 L38.3366806,45.8160279 C43.6453394,45.8160279 47.958487,49.4355378 47.958487,53.9013399 L47.958487,60.2751869 L42.8839689,60.2751869 C42.3593249,54.7660724 37.7675228,50.5606854 32.2768432,50.5606854 C26.7861636,50.5606854 22.1943616,54.7660724 21.6697176,60.2751869 L20.0863754,60.2751869 L20.0863754,58.1111442 Z" id="Path_336-path" fill="#FFB800" fill-rule="nonzero"></path>
            <path d="M79.242993,47.6635439 C82.9297096,47.6502397 86.4670526,49.1309598 89.0598248,51.7728371 L89.720928,52.383678 C83.0658223,52.8362556 77.5814202,55.7671812 74.0489254,58.2460846 C71.7326322,59.8540771 69.6104564,61.7290875 67.7254731,63.8330574 L54.0450439,63.8330574 C52.1379548,63.8263165 50.4800041,62.5125072 50.0233327,60.6461339 L65.4022462,60.6461339 L65.5195921,59.8003969 C66.4453347,52.8702411 72.3001288,47.689997 79.2374838,47.6629886 L79.242993,47.6635439 Z" id="Path_336-path" fill="#FFB800" fill-rule="nonzero"></path>
            <rect id="Rectangle_167" fill="#000000" fill-rule="nonzero" x="14" y="26" width="6" height="2"></rect>
            <rect id="Rectangle_168" fill="#000000" fill-rule="nonzero" x="51" y="70" width="3" height="2"></rect>
            <rect id="Rectangle_169" fill="#000000" fill-rule="nonzero" x="7" y="70" width="3" height="2"></rect>
        </g>
    </g>
</svg>