<?xml version="1.0" encoding="UTF-8"?>
<svg width="27px" height="21px" viewBox="0 0 27 21" version="1.1" xmlns="http://www.w3.org/2000/svg" xmlns:xlink="http://www.w3.org/1999/xlink">
    <!-- Generator: Sketch 64 (93537) - https://sketch.com -->
    <title>Delivery_on_the_way_line</title>
    <desc>Created with Sketch.</desc>
    <g id="Restaurant" stroke="none" stroke-width="1" fill="none" fill-rule="evenodd">
        <g id="Reach-Destination-with-down-widow" transform="translate(-133.000000, -655.000000)">
            <g id="drop-down-date-window" transform="translate(-1.000000, 492.000000)">
                <g id="Delivery-process-icons" transform="translate(53.000000, 162.000000)">
                    <g id="Delivery_on_the_way_line" transform="translate(81.000000, 0.000000)">
                        <polygon id="Path_23865" points="14.194 18.152 18.281 18.152 18.727 17.234 19.569 15.955 20.982 14.955 22.052 14.724 23.33 14.724 24.74 14.959 26.147 16.14 23.893 16.629 22.051 17.509 20.734 18.509 19.434 19.642 14.556 19.474"></polygon>
                        <polygon id="Path_23866" fill="#000000" fill-rule="nonzero" points="21.902 7.029 22.349 7.148 22.349 7.762 21.867 8"></polygon>
                        <circle id="Ellipse_2356" cx="11.409" cy="3.877" r="1.219"></circle>
                        <polygon id="Path_23863" points="5.646 16.523 6.612 15.235 7.8 14.571 9.418 14.113 11.212 14.113 12.639 14.402 13.929 15.423 13.929 18.503 12.112 18.503 11.317 16.903 10.044 16.031 8.353 16.031 7.153 17.002 6.459 18.502 5.412 18.502"></polygon>
                        <path d="M12.912,3.843 C12.912,3.00849774 12.2355023,2.332 11.401,2.332 C10.5664977,2.332 9.89,3.00849774 9.89,3.843 C9.89,4.67750226 10.5664977,5.354 11.401,5.354 C12.2355023,5.354 12.912,4.67750226 12.912,3.843 L12.912,3.843 Z M10.451,3.843 C10.451,3.31832949 10.8763295,2.893 11.401,2.893 C11.9256705,2.893 12.351,3.31832949 12.351,3.843 C12.351,4.36767051 11.9256705,4.793 11.401,4.793 C10.8763295,4.793 10.451,4.36767051 10.451,3.843 L10.451,3.843 Z" id="Path_334" fill="#000000" fill-rule="nonzero"></path>
                        <path d="M11.609,8.213 C11.867,7.913 14.149,5.303 14.149,3.875 C14.1963359,2.86187461 13.6827876,1.90477792 12.8124364,1.38405491 C11.9420852,0.863331893 10.8559148,0.863331893 9.98556361,1.38405491 C9.11521237,1.90477792 8.60166407,2.86187461 8.649,3.875 C8.649,5.302 10.93,7.915 11.189,8.213 L11.403,8.449 L11.609,8.213 Z M9.209,3.875 C9.17042383,3.06816749 9.5789074,2.30555357 10.2719228,1.89058795 C10.9649382,1.47562232 11.8300618,1.47562232 12.5230772,1.89058795 C13.2160926,2.30555357 13.6245762,3.06816749 13.586,3.875 C13.586,4.808 12.159,6.69 11.4,7.595 C10.637,6.692 9.209,4.813 9.209,3.877 L9.209,3.875 Z" id="Path_335" fill="#000000" fill-rule="nonzero"></path>
                        <rect id="Rectangle_163" fill="#000000" fill-rule="nonzero" x="1.54" y="16.975" width="2.708" height="1"></rect>
                        <rect id="Rectangle_164" fill="#000000" fill-rule="nonzero" x="0" y="16.975" width="1" height="1"></rect>
                        <rect id="Rectangle_165" fill="#000000" fill-rule="nonzero" x="2.613" y="18.508" width="1.635" height="1"></rect>
                        <rect id="Rectangle_166" fill="#000000" fill-rule="nonzero" x="8.377" y="12.783" width="1.438" height="1"></rect>
                        <path d="M1.377,7.091 L1.377,12.44 L3.585,12.44 L6.552,14.671 C6.541,14.75 6.535,14.828 6.53,14.907 C5.67668153,15.6139163 5.17568627,16.6590268 5.159,17.767 L5.159,18.947 L6.177,18.947 C6.26109167,19.8393528 6.72850981,20.6512227 7.458,21.172 L3.529,21.172 L3.529,21.734 L13.977,21.734 L13.977,21.172 L10.996,21.172 C11.3523818,20.919044 11.6512514,20.5935931 11.873,20.217 L13.761,20.217 L14.661,19.751 C14.9179647,19.890568 15.2055803,19.9641042 15.498,19.965 L19.698,19.965 L19.782,19.858 C19.788,19.852 19.882,19.74 20.057,19.558 C20.2794035,20.220624 20.7187354,20.7889017 21.304,21.171 L16.564,21.171 L16.564,21.733 L26.711,21.733 L26.711,21.171 L24.638,21.171 C25.3561126,20.7056163 25.8462907,19.9605499 25.9894055,19.1168759 C26.1325202,18.2732019 25.9154682,17.4081662 25.391,16.732 C25.6892921,16.6913872 25.9899567,16.6706748 26.291,16.67 C26.4352775,16.6818487 26.5700868,16.5971347 26.622,16.462 C26.722,16.209 26.493,16.018 26.156,15.726 C26.0909482,15.6734879 26.0291664,15.6170493 25.971,15.557 C25.3039235,14.8896575 24.4461017,14.4458963 23.516,14.287 L21.216,8.646 L21.907,8.646 L21.907,8.382 L21.963,8.382 C22.4573354,8.38201495 22.8591552,7.98332044 22.863,7.489 L22.863,7.466 C22.8591552,6.97167956 22.4573354,6.57298505 21.963,6.573 L21.907,6.573 L21.907,6.31 L19.969,6.31 C19.3233791,6.31 18.8,6.83337913 18.8,7.479 L18.8,8.086 L18.457,8.086 L17.266,6.886 L15.866,6.886 L15.866,7.448 L17.035,7.448 L18.235,8.648 L19.357,8.648 L18.733,10.536 L19.576,15.526 C19.1556692,15.933754 18.8166552,16.4176717 18.577,16.952 L15.395,16.952 C15.2428714,16.6423483 15.1206504,16.3188811 15.03,15.986 C14.716306,14.807775 14.7753459,13.5613002 15.199,12.418 C15.4991228,12.3409955 15.7092413,12.0708432 15.71,11.761 C15.7072543,10.8403765 14.9616235,10.0947457 14.041,10.092 L8.26,10.092 C7.61298188,10.0952816 7.08928164,10.6189819 7.086,11.266 C7.08769686,11.4822803 7.14781658,11.6940813 7.26,11.879 L6.726,11.879 L6.726,7.092 L1.377,7.091 Z M1.939,11.878 L1.939,7.653 L6.164,7.653 L6.164,11.878 L1.939,11.878 Z M5.72,17.766 C5.72,15.833 7.602,14.254 9.911,14.254 L10.977,14.254 C12.3756364,14.1390865 13.6082132,15.1665305 13.747,16.563 L13.747,18.383 L12.283,18.383 C12.1296639,16.8114459 10.8085169,15.6129291 9.2295,15.6129291 C7.65048311,15.6129291 6.32933608,16.8114459 6.176,18.383 L5.721,18.383 L5.72,17.766 Z M6.743,18.384 C6.87810762,17.1127212 7.95056196,16.1482045 9.229,16.1482045 C10.507438,16.1482045 11.5798924,17.1127212 11.715,18.384 L6.743,18.384 Z M10.058,18.946 C9.93647395,19.2998479 9.60363485,19.5374587 9.2295,19.5374587 C8.85536515,19.5374587 8.52252605,19.2998479 8.401,18.946 L10.058,18.946 Z M9.232,21.171 C7.95820177,21.1676776 6.88852964,20.211462 6.743,18.946 L7.822,18.946 C7.95557346,19.6191608 8.54621482,20.1041183 9.2325,20.1041183 C9.91878518,20.1041183 10.5094265,19.6191608 10.643,18.946 L11.716,18.946 C11.6889835,19.1897208 11.6266646,19.4282169 11.531,19.654 L10.537,19.654 L10.537,20.216 L11.194,20.216 C10.7207706,20.8180121 9.99774378,21.1699442 9.232,21.171 L9.232,21.171 Z M13.626,19.654 L12.131,19.654 C12.2106677,19.4251707 12.2617221,19.1873649 12.283,18.946 L13.907,18.946 C13.9793792,19.0980267 14.0718749,19.2396291 14.182,19.367 L13.626,19.654 Z M25.47,18.603 C25.4620454,19.881525 24.4928802,20.9490606 23.2210729,21.0801932 C21.9492656,21.2113259 20.7826645,20.3640036 20.514,19.114 C20.8489268,18.8177415 21.1997825,18.5399946 21.565,18.282 C21.540324,18.3869172 21.5272456,18.4942272 21.526,18.602 C21.525949,19.3326744 22.0738541,19.9472284 22.7997462,20.0306888 C23.5256384,20.1141492 24.1987209,19.6399797 24.3644994,18.9283601 C24.530278,18.2167404 24.1360435,17.4939294 23.448,17.248 C23.867897,17.0743785 24.3031304,16.9404605 24.748,16.848 C25.2088806,17.3160932 25.4680627,17.9460994 25.47,18.603 L25.47,18.603 Z M22.335,17.996 L22.717,18.732 L23.217,18.474 L22.835,17.738 L22.964,17.727 C23.3838072,17.7240762 23.7474947,18.0174599 23.8334555,18.4283825 C23.9194162,18.8393052 23.7038238,19.2538682 23.3180459,19.4194644 C22.9322681,19.5850607 22.4832338,19.4557905 22.2445547,19.1104226 C22.0058756,18.7650548 22.0437083,18.2993174 22.335,17.997 L22.335,17.996 Z M21.97,7.135 C22.058915,7.13366077 22.1446507,7.16804712 22.2079984,7.23045495 C22.2713461,7.29286277 22.3070101,7.37807493 22.307,7.467 L22.307,7.49 C22.3037276,7.67377264 22.1538018,7.82102913 21.97,7.821 L21.914,7.821 L21.914,7.135 L21.97,7.135 Z M19.363,8.023 L19.363,7.478 C19.363,7.14276316 19.6347632,6.871 19.97,6.871 L21.352,6.871 L21.352,8.085 L19.424,8.085 C19.3901451,8.085 19.362546,8.0578505 19.362,8.024 L19.363,8.023 Z M19.307,10.579 L19.948,8.646 L20.617,8.646 L22.893,14.225 L22.753,14.225 C21.7886099,14.2265634 20.8498282,14.5355206 20.073,15.107 L19.307,10.579 Z M22.751,14.7789886 C23.8129269,14.7764519 24.8312898,15.20095 25.577,15.957 L25.768,16.131 C24.141029,16.2739889 22.5825262,16.85221 21.256,17.805 C20.5890972,18.2656405 19.9782907,18.8026132 19.436,19.405 L15.497,19.405 C14.9487314,19.4016021 14.4724903,19.0270304 14.34,18.495 L18.767,18.495 L18.801,18.253 C19.0657622,16.272295 20.7516934,14.7908615 22.75,14.783 L22.751,14.7789886 Z M18.377,17.51 C18.338,17.645 18.304,17.78 18.277,17.92 L15.997,17.92 C15.897,17.785 15.797,17.65 15.71,17.51 L18.377,17.51 Z M15.304,17.92 L14.304,17.92 L14.304,16.56 C14.1661811,14.852411 12.6812021,13.5728868 10.972,13.689 L9.912,13.689 C8.93989886,13.6824391 7.98496029,13.9451424 7.153,14.448 C7.28418325,13.726827 7.5656104,13.0413169 7.979,12.436 L14.598,12.436 C14.2027304,13.6292992 14.1638102,14.9119302 14.486,16.127 C14.6616392,16.764379 14.9384975,17.3694156 15.306,17.919 L15.304,17.92 Z M8.258,10.649 L14.04,10.649 C14.6513792,10.649 15.1470001,11.1446208 15.1470001,11.756 C15.1470814,11.8188966 15.0978153,11.8708019 15.035,11.874 L8.26,11.874 C7.92172559,11.874 7.6475,11.5997744 7.6475,11.2615 C7.6475,10.9232256 7.92172559,10.649 8.26,10.649 L8.258,10.649 Z M7.314,12.436 C7.01725686,12.9364887 6.79587931,13.4779708 6.657,14.043 L4.516,12.436 L7.314,12.436 Z" id="Path_336" fill="#000000" fill-rule="nonzero"></path>
                        <rect id="Rectangle_167" fill="#000000" fill-rule="nonzero" x="4.051" y="8.322" width="1.613" height="1"></rect>
                        <rect id="Rectangle_168" fill="#000000" fill-rule="nonzero" x="14.766" y="21.172" width="1" height="1"></rect>
                        <rect id="Rectangle_169" fill="#000000" fill-rule="nonzero" x="1.995" y="21.172" width="1" height="1"></rect>
                    </g>
                </g>
            </g>
        </g>
    </g>
</svg>