<?xml version="1.0" encoding="UTF-8"?>
<svg width="15px" height="15px" viewBox="0 0 15 15" version="1.1" xmlns="http://www.w3.org/2000/svg" xmlns:xlink="http://www.w3.org/1999/xlink">
    <!-- Generator: Sketch 64 (93537) - https://sketch.com -->
    <title>Path</title>
    <desc>Created with Sketch.</desc>
    <g id="Restaurant" stroke="none" stroke-width="1" fill="none" fill-rule="evenodd">
        <g id="Reach-Destination-with-down-widow" transform="translate(-99.000000, -660.000000)" fill="#FFB800" fill-rule="nonzero">
            <g id="drop-down-date-window" transform="translate(-1.000000, 492.000000)">
                <g id="Delivery-process-icons" transform="translate(52.000000, 162.000000)">
                    <path d="M55.4998789,6.0716913 C55.4554511,6.02586532 55.394351,6 55.3305268,6 C55.2667026,6 55.2056025,6.02586532 55.1611747,6.0716913 C55.0682291,6.16782243 55.0682291,6.32033878 55.1611747,6.41646991 L62.146949,13.2576033 L48.2419316,13.2576033 C48.1083165,13.2576033 48,13.3659279 48,13.4995532 C48,13.6331784 48.1083165,13.7415031 48.2419316,13.7415031 L62.189287,13.7415031 L55.2035127,20.5886852 C55.1576902,20.6331163 55.1318268,20.6942211 55.1318268,20.7580501 C55.1318268,20.8218791 55.1576902,20.8829839 55.2035127,20.927415 C55.2477897,20.9735699 55.308909,20.9997659 55.3728648,21 C55.4354848,20.9989371 55.4956183,20.9753115 55.5422169,20.9334638 L62.9271783,13.6931131 C62.9755135,13.6478312 63.0019667,13.5838977 62.9997578,13.5176994 C63.0002406,13.4535924 62.9739301,13.3921966 62.9271783,13.3483345 L55.4998789,6.0716913 Z" id="Path"></path>
                </g>
            </g>
        </g>
    </g>
</svg>