<?xml version="1.0" encoding="UTF-8"?>
<svg width="24px" height="24px" viewBox="0 0 24 24" version="1.1" xmlns="http://www.w3.org/2000/svg" xmlns:xlink="http://www.w3.org/1999/xlink">
    <!-- Generator: Sketch 64 (93537) - https://sketch.com -->
    <title>Delivery_picked-up_line</title>
    <desc>Created with Sketch.</desc>
    <g id="Restaurant" stroke="none" stroke-width="1" fill="none" fill-rule="evenodd">
        <g id="Reach-Destination-with-down-widow" transform="translate(-213.000000, -654.000000)" fill="#1A171B" fill-rule="nonzero">
            <g id="drop-down-date-window" transform="translate(-1.000000, 492.000000)">
                <g id="Delivery-process-icons" transform="translate(53.000000, 162.000000)">
                    <g id="Delivery_picked-up_line" transform="translate(161.000000, 0.000000)">
                        <path d="M23.341,22.981 L21.183,22.981 L21.183,14.641 C22.5392556,14.6064795 23.6370698,13.5274575 23.695,12.172 L23.695,12.172 C23.695,12.162 23.695,12.151 23.695,12.14 C23.695,12.129 23.695,12.126 23.695,12.117 C23.6930737,12.0849349 23.6866786,12.053296 23.676,12.023 C23.6725921,12.0117936 23.6685864,12.0007778 23.664,11.99 C23.6471526,11.9528157 23.6237839,11.9189481 23.595,11.89 L23.595,11.89 L18.995,7.29 C18.9276137,7.22269251 18.8362429,7.18492113 18.741,7.185 L17.951,7.185 L17.951,5.745 L18.741,5.745 C18.8362127,5.745 18.9275258,5.70717689 18.9948513,5.63985133 C19.0621769,5.57252577 19.1,5.48121272 19.1,5.386 L19.1,0.718 L19.747,0.718 C19.9452702,0.718 20.106,0.557270225 20.106,0.359 C20.106,0.160729775 19.9452702,0 19.747,0 L3.947,0 C3.74872977,0 3.588,0.160729775 3.588,0.359 C3.588,0.557270225 3.74872977,0.718 3.947,0.718 L4.594,0.718 L4.594,5.391 C4.594,5.48621272 4.63182311,5.57752577 4.69914867,5.64485133 C4.76647423,5.71217689 4.85778728,5.75 4.953,5.75 L5.743,5.75 L5.743,7.187 L4.952,7.187 C4.85671339,7.18669979 4.765261,7.22450492 4.698,7.292 L0.103,11.892 L0.103,11.892 C0.0744245196,11.9211207 0.0510827555,11.9549493 0.034,11.992 C0.0294064298,12.002775 0.0254005484,12.0137912 0.022,12.025 C0.0115935599,12.0553704 0.0052060011,12.086972 0.003,12.119 C0.003,12.127 0.003,12.133 0.003,12.142 C0.003,12.151 0.003,12.164 0.003,12.174 L0.003,12.174 C0.0609301797,13.5294575 1.15874439,14.6084795 2.515,14.643 L2.515,22.983 L0.359,22.983 C0.160729775,22.983 -7.10542736e-15,23.1437298 -7.10542736e-15,23.342 C-7.10542736e-15,23.5402702 0.160729775,23.701 0.359,23.701 L23.34,23.701 C23.5382702,23.701 23.699,23.5402702 23.699,23.342 C23.699,23.1437298 23.5382702,22.983 23.34,22.983 L23.341,22.981 Z M21.041,13.93 C20.1509408,13.9529809 19.3629429,13.3582499 19.141,12.496 L22.941,12.496 C22.7195314,13.3582754 21.9319807,13.9533967 21.042,13.931 L21.041,13.93 Z M18.593,7.9 L22.472,11.778 L18.948,11.778 L16.62,7.9 L18.595,7.9 L18.593,7.9 Z M5.593,11.778 L7.918,7.9 L10.035,7.9 L9.261,11.778 L5.59,11.778 L5.593,11.778 Z M9.157,12.496 C8.91593806,13.3456025 8.1401394,13.9319035 7.257,13.9319035 C6.3738606,13.9319035 5.59806194,13.3456025 5.357,12.496 L9.157,12.496 Z M13.23,7.181 L6.464,7.181 L6.464,5.745 L17.235,5.745 L17.235,7.182 L13.228,7.182 L13.23,7.181 Z M13.399,10.213 L13.713,11.778 L9.993,11.778 L10.767,7.9 L12.933,7.9 L13.399,10.213 Z M13.753,12.496 C13.5119381,13.3456025 12.7361394,13.9319035 11.853,13.9319035 C10.9698606,13.9319035 10.1940619,13.3456025 9.953,12.496 L13.753,12.496 Z M13.669,7.896 L15.783,7.896 L18.111,11.774 L14.443,11.774 L13.983,9.464 L13.669,7.896 Z M18.35,12.496 C18.1089381,13.3456025 17.3331394,13.9319035 16.45,13.9319035 C15.5668606,13.9319035 14.7910619,13.3456025 14.55,12.496 L18.35,12.496 Z M5.317,5.026 L5.317,0.718 L18.383,0.718 L18.383,5.027 L5.314,5.027 L5.317,5.026 Z M5.107,7.9 L7.081,7.9 L4.753,11.778 L1.226,11.778 L5.107,7.9 Z M0.762,12.5 L4.562,12.5 C4.32093806,13.3496025 3.5451394,13.9359035 2.662,13.9359035 C1.7788606,13.9359035 1.00306194,13.3496025 0.762,12.5 Z M9.915,22.985 L9.915,14.655 C9.915,14.4567298 9.75427023,14.296 9.556,14.296 C9.35772977,14.296 9.197,14.4567298 9.197,14.655 L9.197,22.985 L3.237,22.985 L3.237,14.585 C3.95072619,14.4406902 4.57394965,14.0097839 4.961,13.393 C5.46235453,14.1780608 6.32950824,14.653177 7.261,14.653177 C8.19249176,14.653177 9.05964547,14.1780608 9.561,13.393 C10.0623545,14.1780608 10.9295082,14.653177 11.861,14.653177 C12.7924918,14.653177 13.6596455,14.1780608 14.161,13.393 C14.6623545,14.1780608 15.5295082,14.653177 16.461,14.653177 C17.3924918,14.653177 18.2596455,14.1780608 18.761,13.393 C19.1478766,14.0099501 19.7711797,14.4409114 20.485,14.585 L20.485,22.985 L9.915,22.985 Z" id="Path_1770"></path>
                        <circle id="Ellipse_315" cx="7.902" cy="19.063" r="1"></circle>
                        <path d="M16.772,16.372 C16.7046624,16.3045834 16.6132856,16.2667026 16.518,16.2667026 C16.4227144,16.2667026 16.3313376,16.3045834 16.264,16.372 L11.907,20.728 C11.7667197,20.8682803 11.7667197,21.0957197 11.907,21.236 C12.0472803,21.3762803 12.2747197,21.3762803 12.415,21.236 L16.772,16.88 C16.8394166,16.8126624 16.8772974,16.7212856 16.8772974,16.626 C16.8772974,16.5307144 16.8394166,16.4393376 16.772,16.372 L16.772,16.372 Z" id="Path_1771"></path>
                        <path d="M18.396,18.574 L16.237,20.728 C16.1462545,20.8187455 16.1108144,20.9510099 16.1440295,21.0749705 C16.1772447,21.1989311 16.2740689,21.2957553 16.3980295,21.3289705 C16.5219901,21.3621856 16.6542545,21.3267455 16.745,21.236 L18.9,19.082 C19.0402803,18.9417197 19.0402803,18.7142804 18.9,18.574 C18.7597196,18.4337197 18.5322803,18.4337197 18.392,18.574 L18.396,18.574 Z" id="Path_1772"></path>
                        <path d="M13.877,16.88 C14.0172803,16.7397197 14.0172803,16.5122803 13.877,16.372 C13.7367197,16.2317197 13.5092803,16.2317197 13.369,16.372 L11.382,18.358 C11.2912545,18.4487455 11.2558144,18.5810099 11.2890295,18.7049705 C11.3222446,18.8289311 11.4190689,18.9257554 11.5430295,18.9589705 C11.6669901,18.9921856 11.7992545,18.9567455 11.89,18.866 L13.877,16.88 Z" id="Path_1773"></path>
                    </g>
                </g>
            </g>
        </g>
    </g>
</svg>