<?xml version="1.0" encoding="UTF-8"?>
<svg width="19px" height="19px" viewBox="0 0 19 19" version="1.1" xmlns="http://www.w3.org/2000/svg" xmlns:xlink="http://www.w3.org/1999/xlink">
    <!-- Generator: Sketch 64 (93537) - https://sketch.com -->
    <title>Path_14608</title>
    <desc>Created with Sketch.</desc>
    <g id="Food-Discover-(categories-with-listing)" stroke="none" stroke-width="1" fill="none" fill-rule="evenodd">
        <g id="Discovery-Anything-with-black-icons" transform="translate(-36.000000, -1897.000000)" fill="#333333" fill-rule="nonzero">
            <g id="Browse-by-category" transform="translate(36.000000, 1892.000000)">
                <path d="M3.54566668,15.2550042 C2.96008594,15.2533443 2.48656551,14.7775877 2.48766664,14.1920057 C2.48877162,13.6064236 2.96408103,13.1324544 3.54966386,13.1330042 C4.13524668,13.1335551 4.60966668,13.6084169 4.60966668,14.194 C4.60966668,14.4759153 4.49747248,14.7462404 4.29784707,14.945303 C4.09822165,15.1443655 3.82758081,15.2557971 3.54566668,15.2550042 Z M14.8616667,15.255 C14.2756926,15.255 13.8006667,14.7799741 13.8006667,14.194 C13.8006667,13.6080259 14.2756926,13.133 14.8616667,13.133 C15.4476408,13.133 15.9226667,13.6080259 15.9226667,14.194 C15.9226667,14.4753947 15.8108831,14.7452642 15.611907,14.9442403 C15.4129309,15.1432164 15.1430614,15.255 14.8616667,15.255 L14.8616667,15.255 Z M9.20366668,9.6 C8.61769256,9.6 8.14266668,9.12497412 8.14266668,8.539 C8.14266668,7.95302588 8.61769256,7.478 9.20366668,7.478 C9.7896408,7.478 10.2646667,7.95302588 10.2646667,8.539 C10.2646667,9.12497412 9.7896408,9.6 9.20366668,9.6 Z M9.20366668,20.916 C8.61769256,20.916 8.14266668,20.4409741 8.14266668,19.855 C8.14266668,19.2690259 8.61769256,18.794 9.20366668,18.794 C9.7896408,18.794 10.2646667,19.2690259 10.2646667,19.855 C10.2635636,20.4401929 9.78886064,20.914001 9.20366668,20.914 L9.20366668,20.916 Z M14.8616667,14.551 C15.0571755,14.551 15.2156667,14.3925088 15.2156667,14.197 C15.2156667,14.0014912 15.0571755,13.843 14.8616667,13.843 C14.6661579,13.843 14.5076667,14.0014912 14.5076667,14.197 C14.5093137,14.3913362 14.6673235,14.548007 14.8616667,14.548 L14.8616667,14.551 Z M9.20366668,20.209 C9.39917548,20.209 9.55766668,20.0505088 9.55766668,19.855 C9.55766668,19.6594912 9.39917548,19.501 9.20366668,19.501 C9.00815788,19.501 8.84966668,19.6594912 8.84966668,19.855 C8.85131366,20.0493362 9.00932349,20.206007 9.20366668,20.206 L9.20366668,20.209 Z M9.20366668,8.893 C9.39917548,8.893 9.55766668,8.7345088 9.55766668,8.539 C9.55766668,8.3434912 9.39917548,8.185 9.20366668,8.185 C9.00815788,8.185 8.84966668,8.3434912 8.84966668,8.539 C8.85131366,8.73333622 9.00932349,8.89000698 9.20366668,8.89 L9.20366668,8.893 Z M3.54566668,14.551 C3.74117548,14.551 3.89966668,14.3925088 3.89966668,14.197 C3.89966668,14.0014912 3.74117548,13.843 3.54566668,13.843 C3.35015788,13.843 3.19166668,14.0014912 3.19166668,14.197 C3.19331366,14.3913362 3.35132349,14.548007 3.54566668,14.548 L3.54566668,14.551 Z M6.86766668,14.586 C6.90254979,14.4599709 7.00406959,14.3634372 7.13169431,14.3349399 C7.25931902,14.3064426 7.39225904,14.3506238 7.47743807,14.4498443 C7.5626171,14.5490647 7.58615977,14.6871617 7.53866668,14.809 L7.02266668,16.357 L9.81566668,15.31 L8.09166668,13.586 C7.92166398,13.4159829 7.84971659,13.1712228 7.90067358,12.9362545 C7.95163057,12.7012862 8.11850672,12.5083192 8.34366668,12.424 L11.1356667,11.377 C11.3909284,11.2811842 11.678538,11.3406886 11.8748242,11.5299264 C12.0711104,11.7191642 12.1410879,12.0044065 12.0546667,12.263 L11.5386667,13.811 C11.4711993,13.9884557 11.2757588,14.0810968 11.0956797,14.020981 C10.9156006,13.9608652 10.8150041,13.769398 10.8676667,13.587 L11.3836667,12.04 L8.59066668,13.087 L10.3146667,14.811 C10.4846694,14.9810171 10.5566168,15.2257772 10.5056598,15.4607455 C10.4547028,15.6957138 10.2878266,15.8886808 10.0626667,15.973 L7.26966668,17.02 C7.01440495,17.1158158 6.72679538,17.0563114 6.5305092,16.8670736 C6.33422302,16.6778358 6.26424547,16.3925935 6.35066668,16.134 L6.86666668,14.587 L6.86766668,14.586 Z M14.6096667,7.646 C11.134425,4.77786834 6.02372185,5.12506638 2.96831638,8.43686066 C-0.0870890999,11.7486549 -0.0222427271,16.8707276 3.11602586,20.1041088 C6.25429445,23.33749 11.3721494,23.5551927 14.7736667,20.6 C14.921961,20.4812738 15.1375297,20.5007613 15.2621283,20.644157 C15.3867268,20.7875527 15.3759314,21.003731 15.2376667,21.134 C11.6265705,24.2747725 6.21059674,24.1224172 2.78177601,20.7836067 C-0.64704473,17.4447962 -0.943386741,12.0347901 2.10023584,8.34144085 C5.14385842,4.64809158 10.5107873,3.905085 14.4433309,6.63264218 C18.3758745,9.36019937 19.560449,14.6472371 17.1676667,18.792 C17.1081921,18.9086615 16.9891753,18.9829623 16.8582468,18.9851672 C16.7273183,18.9873721 16.6058671,18.9171209 16.5424981,18.8025282 C16.479129,18.6879355 16.4841942,18.5477216 16.5556667,18.438 C18.3598123,15.3134315 17.9920409,11.3898674 15.6386667,8.655 C15.3234646,8.29144255 14.97934,7.95400647 14.6096667,7.646 Z" id="Path_14608"></path>
            </g>
        </g>
    </g>
</svg>