<?xml version="1.0" encoding="UTF-8"?>
<svg width="52px" height="52px" viewBox="0 0 52 52" version="1.1" xmlns="http://www.w3.org/2000/svg" xmlns:xlink="http://www.w3.org/1999/xlink">
    <!-- Generator: Sketch 64 (93537) - https://sketch.com -->
    <title>Restaurant Marker</title>
    <desc>Created with Sketch.</desc>
    <g id="Restaurant" stroke="none" stroke-width="1" fill="none" fill-rule="evenodd">
        <g id="Reach-Destination-with-down-widow" transform="translate(-177.000000, -269.000000)">
            <g id="Le-Casa" transform="translate(109.000000, 221.000000)">
                <g id="Restaurant-Marker" transform="translate(71.000000, 49.000000)">
                    <g>
                        <g id="Group_18951" transform="translate(0.010000, 0.010000)" fill-rule="nonzero">
                            <circle id="Ellipse_2368" fill="#FFB700" opacity="0.223" cx="22.99" cy="22.99" r="15"></circle>
                            <circle id="Ellipse_2369" fill="#FFB700" opacity="0.137" cx="22.99" cy="22.99" r="22"></circle>
                            <circle id="Ellipse_2367" fill="#FFB800" opacity="0.997" cx="23.49" cy="23.49" r="6.5"></circle>
                        </g>
                        <g id="restaurant_Marker-2" transform="translate(10.285000, 10.985000)">
                            <g id="Group" transform="translate(0.710000, 0.020000)">
                                <g id="Ellipse_2391-2" transform="translate(0.500000, 0.000000)">
                                    <circle id="Oval" fill="#D63229" fill-rule="nonzero" cx="11.822" cy="11.822" r="11.822"></circle>
                                    <circle id="Oval" stroke="#FFFFFF" stroke-width="2" cx="11.822" cy="11.822" r="10.822"></circle>
                                </g>
                            </g>
                        </g>
                        <g id="restaurant-icon" transform="translate(19.000000, 18.000000)" fill="#FFFFFF" fill-rule="nonzero">
                            <path d="M3.656,1.264 C3.8012282,2.01271519 3.89511364,2.77048099 3.937,3.532 C3.94771321,3.93972438 3.8343815,4.34109298 3.612,4.683 C3.39765907,5.00318213 3.08648524,5.24637429 2.724,5.377 L2.953,9.561 C2.96578127,9.67590988 2.92351519,9.79010244 2.839,9.869 C2.75895157,9.95362305 2.64748457,10.0013946 2.531,10.0010024 L1.406,10.0010024 C1.29006058,10.0005842 1.17939903,9.95248618 1.1,9.868 C1.01504902,9.78970899 0.972048409,9.67590566 0.984,9.561 L1.213,5.375 C0.850514759,5.24437429 0.539340928,5.00118213 0.325,4.681 C0.102813666,4.339376 -0.0105096227,3.9383859 2.16840434e-19,3.531 C0.0419317144,2.76981595 0.135816969,2.0123858 0.281,1.264 C0.310221239,1.15182352 0.397823521,1.06422124 0.51,1.035 C0.639020468,0.987039652 0.780979532,0.987039652 0.91,1.035 C1.027861,1.06242052 1.11586072,1.16082021 1.13,1.281 L1.13,3.76 C1.142,3.79533333 1.189,3.813 1.271,3.813 C1.353,3.813 1.398,3.80033333 1.406,3.775 L1.547,1.275 C1.57130133,1.15661636 1.65965649,1.06170209 1.776,1.029 C1.90072364,0.982025547 2.03827636,0.982025547 2.163,1.029 C2.27934351,1.06170209 2.36769867,1.15661636 2.392,1.275 L2.533,3.775 C2.545,3.79833333 2.592,3.81 2.674,3.81 C2.756,3.81 2.803,3.79233333 2.815,3.757 L2.815,1.281 C2.82913928,1.16082021 2.917139,1.06242052 3.035,1.035 C3.16402047,0.987039652 3.30597953,0.987039652 3.435,1.035 C3.54409289,1.06669317 3.62820449,1.15384953 3.656,1.264 Z M5.748,6.291 C5.15932258,5.87108676 4.74122967,5.25353016 4.57,4.551 C4.4419215,3.97863608 4.50370261,3.38013157 4.746,2.846 C4.95444096,2.33664457 5.28151327,1.88443453 5.7,1.527 C6.02064995,1.21612612 6.44135665,1.02934227 6.887,0.999913585 C6.99971985,0.997678537 7.10835259,1.04221796 7.187,1.123 C7.26778204,1.20164741 7.31232146,1.31028015 7.31,1.423 L7.31,9.575 C7.31232146,9.68771985 7.26778204,9.79635259 7.187,9.875 C7.10835259,9.95578204 6.99971985,10.0003215 6.887,9.998 L5.906,9.998 C5.78506499,10.0018449 5.66888886,9.95074207 5.59,9.859 C5.51037425,9.77410549 5.47167525,9.65873866 5.484,9.543 L5.748,6.291 Z" id="restaurant_icon"></path>
                        </g>
                    </g>
                </g>
            </g>
        </g>
    </g>
</svg>