<?xml version="1.0" encoding="UTF-8"?>
<svg width="43px" height="43px" viewBox="0 0 43 43" version="1.1" xmlns="http://www.w3.org/2000/svg" xmlns:xlink="http://www.w3.org/1999/xlink">
    <!-- Generator: Sketch 64 (93537) - https://sketch.com -->
    <title>Pizza_color</title>
    <desc>Created with Sketch.</desc>
    <g id="Food-Discover-(categories-with-listing)" stroke="none" stroke-width="1" fill="none" fill-rule="evenodd" stroke-linecap="round" stroke-linejoin="round">
        <g id="Food-Categories-+search-filed" transform="translate(-211.000000, -445.000000)" stroke="#060809">
            <g id="Content" transform="translate(37.000000, 263.000000)">
                <g id="Pizza" transform="translate(155.000000, 157.000000)">
                    <g id="Pizza_color" transform="translate(19.000000, 25.000000)">
                        <g>
                            <path d="M17.773,0.65 L0.65,41.985 L41.985,24.863 C37.4574839,13.8919595 28.7438535,5.17796923 17.773,0.65 Z" id="Path_2569" stroke-width="1.3" fill="#FFCA40" fill-rule="nonzero"></path>
                            <path d="M21.05,19.411 C20.8708584,19.8459649 20.6074733,20.2412123 20.275,20.574 L20.275,20.574 C19.6048632,21.2452521 19.2261834,22.1535086 19.221,23.102 C19.2184598,24.0515125 18.8415185,24.9617055 18.172,25.635 L18.172,25.635 C17.8395604,25.9681993 17.5761894,26.3637656 17.397,26.799 C17.2147323,27.2326757 17.1215513,27.698581 17.123,28.169 C17.1215943,28.6388128 17.0285216,29.1038364 16.849,29.538 C16.6694754,29.9732446 16.4053763,30.3685436 16.072,30.701 C15.7400376,31.0344107 15.4764307,31.4294813 15.296,31.864 L15.296,31.864 C16.0637722,32.3761197 16.9247833,32.7322127 17.83,32.912 C18.0086385,32.4762309 18.2724587,32.0805005 18.606,31.748 C18.9403354,31.4163329 19.2045717,31.0208286 19.383,30.585 C19.5625383,30.1512954 19.6546344,29.6863967 19.654,29.217 C19.6556234,28.7473071 19.7483355,28.2823881 19.927,27.848 C20.10662,27.4125114 20.3706991,27.0169026 20.704,26.684 C21.3738693,26.0119999 21.7500134,25.1018462 21.75,24.153 L21.75,24.153 C21.7512339,23.2042061 22.1275971,22.2943921 22.797,21.622 C23.1295297,21.2884651 23.3935002,20.8930188 23.574,20.458 C22.8101525,19.9455792 21.9522742,19.5897161 21.05,19.411 L21.05,19.411 Z" id="Path_2570" fill="#A5CF64" fill-rule="nonzero"></path>
                            <path d="M16.433,3.88 C17.424,4.289 17.805,6.004 18.744,6.48 C19.698,6.965 21.305,6.263 22.206,6.813 C23.107,7.363 23.224,9.122 24.077,9.742 C24.93,10.362 26.642,9.929 27.445,10.615 C28.248,11.301 28.087,13.054 28.834,13.801 C29.581,14.548 31.334,14.388 32.02,15.193 C32.706,15.998 32.27,17.703 32.892,18.56 C33.514,19.417 35.268,19.53 35.821,20.434 C36.374,21.338 35.675,22.949 36.156,23.895 C36.637,24.841 38.349,25.22 38.756,26.202 C38.35,25.221 36.639,24.841 36.156,23.895 C35.673,22.949 36.374,21.34 35.821,20.434 C35.268,19.528 33.513,19.42 32.892,18.56 C32.271,17.7 32.711,16.003 32.02,15.193 C31.329,14.383 29.588,14.555 28.834,13.801 C28.08,13.047 28.254,11.301 27.445,10.615 C26.636,9.929 24.945,10.369 24.077,9.742 C23.209,9.115 23.116,7.37 22.206,6.813 C21.296,6.256 19.698,6.964 18.744,6.48 C17.805,6.005 17.424,4.289 16.433,3.88 Z" id="Path_2571" stroke-width="1.3"></path>
                            <path d="M32.291,26.166 C30.3561717,24.2301846 27.3043714,23.9796299 25.0797168,25.5739491 C22.8550622,27.1682684 22.1116233,30.1387163 23.323,32.593 L33.629,28.326 C33.3543879,27.512994 32.8966059,26.7739737 32.291,26.166 L32.291,26.166 Z" id="Path_2572" fill="#EF484A" fill-rule="nonzero"></path>
                            <path d="M31.303,27.154 C29.843672,25.6812042 27.5256881,25.4996531 25.8548549,26.7272858 C24.1840217,27.9549186 23.6645931,30.2212381 24.634,32.054 L32.32,28.872 C32.1267863,28.2246987 31.7775585,27.6347543 31.303,27.154 Z" id="Path_2573" fill="#EF484A" fill-rule="nonzero"></path>
                            <path d="M14.494,20.233 C13.3949412,19.1338902 11.8871857,18.543111 10.334,18.603 L6.447,27.987 C6.494,28.039 6.535,28.087 6.586,28.141 C7.99182836,29.5867586 10.0671812,30.1636167 12.0174353,29.6507036 C13.9676895,29.1377905 15.490724,27.6145634 16.0033904,25.6642444 C16.5160569,23.7139254 15.9389363,21.6386455 14.493,20.233 L14.494,20.233 Z" id="Path_2574" fill="#EF484A" fill-rule="nonzero"></path>
                            <path d="M13.506,21.222 C12.5176807,20.2311725 11.0998476,19.7993318 9.727,20.071 L7.057,26.518 C7.9465848,27.8409828 9.50947369,28.5450247 11.0897886,28.3346691 C12.6701035,28.1243136 13.9944065,27.0359579 14.5069439,25.5263387 C15.0194814,24.0167194 14.6315701,22.3470424 13.506,21.218 L13.506,21.222 Z" id="Path_2575" fill="#EF484A" fill-rule="nonzero"></path>
                            <path d="M11.257,34.404 C10.6881422,33.0350021 9.6006216,31.9467625 8.232,31.377 C7.7026846,31.1805955 7.11286542,31.4383533 6.89744166,31.9602174 C6.6820179,32.4820815 6.91827041,33.0808389 7.432,33.315 L7.432,33.315 C7.525,33.353 7.609,33.41 7.7,33.455 L6.095,35.055 C5.8302662,35.3199124 5.72697118,35.7059354 5.82402518,36.0676578 C5.92107917,36.4293803 6.20373738,36.7118479 6.56552518,36.8086578 C6.92731298,36.9054678 7.3132662,36.8019124 7.578,36.537 L9.178,34.937 C9.225,35.027 9.278,35.112 9.321,35.205 L9.321,35.205 C9.45961674,35.5573362 9.77750098,35.8075086 10.1525482,35.8594218 C10.5275955,35.911335 10.9014824,35.7569161 11.1305928,35.4554798 C11.3597033,35.1540435 11.4084085,34.7524661 11.258,34.405 L11.257,34.404 Z" id="Path_2576" fill="#F4F7F9" fill-rule="nonzero"></path>
                            <path d="M20.427,14.794 L18.822,13.194 C18.913,13.148 18.997,13.094 19.09,13.051 L19.09,13.051 C19.5972639,12.8131346 19.8280712,12.2186339 19.6141994,11.7007966 C19.4003275,11.1829593 18.8172765,10.9245901 18.29,11.114 L18.29,11.114 C16.9184489,11.6788646 15.8279407,12.7661347 15.259,14.136 C15.1007533,14.4847248 15.1453153,14.8919977 15.3752268,15.198252 C15.6051384,15.5045063 15.9837876,15.6609729 16.3628222,15.6063493 C16.7418569,15.5517257 17.0609181,15.2947103 17.195,14.936 L17.195,14.936 C17.236,14.844 17.295,14.759 17.338,14.668 L18.943,16.268 C19.3525191,16.677243 20.016257,16.6770191 20.4255,16.2675 C20.834743,15.8579808 20.8345191,15.194243 20.425,14.785 L20.427,14.794 Z" id="Path_2577" fill="#F4F7F9" fill-rule="nonzero"></path>
                            <path d="M29.752,21.446 L29.752,21.446 C30.3203973,20.0762936 30.3203973,18.5367064 29.752,17.167 C29.6090938,16.8211669 29.2925432,16.5778435 28.9215898,16.5286874 C28.5506365,16.4795312 28.1816369,16.6320104 27.9535898,16.9286874 C27.7255427,17.2253644 27.6730937,17.6211669 27.816,17.967 L27.816,17.967 C27.854,18.06 27.874,18.16 27.905,18.257 L25.634,18.257 C25.054101,18.257 24.584,18.727101 24.584,19.307 C24.584,19.886899 25.054101,20.357 25.634,20.357 L27.902,20.357 C27.871,20.457 27.851,20.557 27.813,20.646 L27.813,20.646 C27.6165955,21.1753154 27.8743533,21.7651346 28.3962174,21.9805583 C28.9180815,22.1959821 29.5168389,21.9597296 29.751,21.446 L29.752,21.446 Z" id="Path_2578" fill="#F4F7F9" fill-rule="nonzero"></path>
                            <path d="M11.938,31.515 L13.338,31.515 L11.938,31.515 Z" id="Path_2581"></path>
                            <path d="M22,11.81 L22.987,12.798 L22,11.81 Z" id="Path_2584"></path>
                            <path d="M13.038,33.358 L14.026,34.346 L13.038,33.358 Z" id="Path_2585"></path>
                            <path d="M3.868,38.768 L4.856,37.78 L3.868,38.768 Z" id="Path_2588"></path>
                        </g>
                    </g>
                </g>
            </g>
        </g>
    </g>
</svg>