<?xml version="1.0" encoding="UTF-8"?>
<svg width="46px" height="36px" viewBox="0 0 46 36" version="1.1" xmlns="http://www.w3.org/2000/svg" xmlns:xlink="http://www.w3.org/1999/xlink">
    <!-- Generator: Sketch 64 (93537) - https://sketch.com -->
    <title>Bagel_color</title>
    <desc>Created with Sketch.</desc>
    <g id="Food-Discover-(categories-with-listing)" stroke="none" stroke-width="1" fill="none" fill-rule="evenodd" stroke-linecap="round" stroke-linejoin="round">
        <g id="Food-Categories-+search-filed" transform="translate(-211.000000, -609.000000)" stroke="#060809">
            <g id="Content" transform="translate(37.000000, 263.000000)">
                <g id="Backery" transform="translate(155.000000, 314.000000)">
                    <g id="Bagel_color" transform="translate(19.000000, 32.000000)">
                        <path d="M45.0320028,13.965 C44.9968941,19.6437169 42.5493622,25.0397757 38.3,28.807 L35.274,25.781 C38.6357495,22.7695418 40.5677623,18.4772697 40.593,13.964 C40.5966807,10.4168278 38.4859964,7.20878969 35.2270263,5.80823336 C31.9680562,4.40767703 28.1879909,5.08414035 25.617,7.528 C24.8907162,6.22612814 23.9525295,5.05440859 22.841,4.061 C26.7472551,0.549821032 32.354042,-0.333602776 37.1507026,1.80631613 C41.9473633,3.94623504 45.0353908,8.70864863 45.0320028,13.961 L45.0320028,13.965 Z" id="Path_2257" stroke-width="1.3" fill="#FFCA40" fill-rule="nonzero"></path>
                        <path d="M11.004,31.468 C18.3130399,35.7539056 27.3679601,35.7539056 34.677,31.468 L31.589,28.38 C26.1138045,31.2621925 19.5701955,31.2621925 14.095,28.38 L11.004,31.468 Z" id="Path_2258" stroke-width="1.3" fill="#FFCA40" fill-rule="nonzero"></path>
                        <path d="M20.064,7.529 C21.6696672,9.04753749 22.6479913,11.1126506 22.806,13.317 L25.98,16.491 L26.412,16.059 C26.9686471,15.5053435 27.2808166,14.752104 27.2790079,13.967 C27.2809041,11.7149751 26.7089079,9.49960836 25.617,7.53 C24.8905067,6.2276972 23.9519738,5.05562938 22.84,4.062 C18.933288,0.551123236 13.3262321,-0.331680852 8.52972281,1.80891543 C3.73321351,3.94951172 0.645778791,8.71251144 0.649995677,13.965 C0.684444523,19.6445727 3.13290723,25.0414441 7.384,28.808 L10.408,25.784 C7.04656184,22.7714708 5.11467408,18.4787501 5.089,13.965 C5.08531935,10.4178278 7.19600358,7.20978969 10.4549737,5.80923336 C13.7139438,4.40867703 17.4940091,5.08514035 20.065,7.529 L20.064,7.529 Z" id="Path_2259" stroke-width="1.3" fill="#FFCA40" fill-rule="nonzero"></path>
                        <path d="M36.003,32.791 C36.8692586,33.6572586 38.2737414,33.6572586 39.14,32.791 C40.0062586,31.9247414 40.0062586,30.5202586 39.14,29.654 L39.14,29.654 L22.803,13.315 C22.6443114,11.1114068 21.6660574,9.04715535 20.061,7.529 C18.9704031,9.49858617 18.3997777,11.7136313 18.4029864,13.965 C18.4021825,14.749906 18.7141991,15.5027767 19.27,16.057 L36.003,32.791 Z" id="Path_2260" stroke-width="1.3" fill="#FFCA40" fill-rule="nonzero"></path>
                        <path d="M22.845,19.626 L19.705,16.488 L6.54,29.652 C5.97962888,30.2125497 5.76087433,31.0294734 5.96613907,31.7950439 C6.17140382,32.5606144 6.76950326,33.1585232 7.53513911,33.3635439 C8.30077497,33.5685647 9.11762893,33.3495498 9.678,32.789 L22.845,19.626 Z" id="Path_2261" stroke-width="1.3" fill="#FFCA40" fill-rule="nonzero"></path>
                        <path d="M13.441,2.757 L13.965,3.28 L13.441,2.757 Z" id="Path_2266"></path>
                        <path d="M21.948,15.965 L22.472,16.488 L21.948,15.965 Z" id="Path_2267"></path>
                        <path d="M5.211,23.201 L5.735,23.724 L5.211,23.201 Z" id="Path_2268"></path>
                        <path d="M5.996,6.483 L5.472,7.006 L5.996,6.483 Z" id="Path_2269"></path>
                        <path d="M40.055,5.955 L39.532,6.478 L40.055,5.955 Z" id="Path_2270"></path>
                        <path d="M16.984,22.417 L16.46,22.94 L16.984,22.417 Z" id="Path_2271"></path>
                        <path d="M28.434,31.638 L27.913,32.161 L28.434,31.638 Z" id="Path_2272"></path>
                        <path d="M40.316,23.463 L39.795,22.941 L40.316,23.463 Z" id="Path_2273"></path>
                    </g>
                </g>
            </g>
        </g>
    </g>
</svg>