<?xml version="1.0" encoding="UTF-8"?>
<svg width="19px" height="19px" viewBox="0 0 19 19" version="1.1" xmlns="http://www.w3.org/2000/svg" xmlns:xlink="http://www.w3.org/1999/xlink">
    <!-- Generator: Sketch 64 (93537) - https://sketch.com -->
    <title>account</title>
    <desc>Created with Sketch.</desc>
    <g id="Food-Discover-(categories-with-listing)" stroke="none" stroke-width="1" fill="none" fill-rule="evenodd">
        <g id="Food-Categories-+search-filed" transform="translate(-178.000000, -918.000000)">
            <g id="Bottom-Menu" transform="translate(0.000000, 900.000000)">
                <g id="account" transform="translate(177.000000, 17.000000)">
                    <polygon id="Path_14575" points="0 0 20.51 0 20.51 20.51 0 20.51"></polygon>
                    <path d="M10.259,10.608 C8.89154296,10.608 7.783,9.49945704 7.783,8.132 C7.783,6.76454296 8.89154296,5.656 10.259,5.656 C11.626457,5.656 12.735,6.76454296 12.735,8.132 C12.735,9.49945704 11.626457,10.608 10.259,10.608 Z M10.259,9.901 C11.2354394,9.901 12.027,9.10943944 12.027,8.133 C12.027,7.15656056 11.2354394,6.365 10.259,6.365 C9.28256056,6.365 8.491,7.15656056 8.491,8.133 C8.491,9.10943944 9.28256056,9.901 10.259,9.901 L10.259,9.901 Z M16.81,15.655 C19.6758815,12.1784354 19.326119,7.068473 16.0132627,4.01482565 C12.7004065,0.961178301 7.57892365,1.02798369 4.3468455,4.16700414 C1.11476735,7.30602459 0.898411319,12.4233715 3.854,15.824 C3.94305993,15.9185263 3.97320854,16.0542308 3.9325516,16.1775755 C3.89189467,16.3009202 3.78696072,16.3920987 3.65914828,16.4151394 C3.53133585,16.4381802 3.40116856,16.3893832 3.32,16.288 C0.181977726,12.6742973 0.338748596,7.25822704 3.68054268,3.83208589 C7.02233677,0.405944751 12.4328179,0.114245318 16.1236028,3.16123362 C19.8143877,6.20822192 20.5525587,11.5760425 17.8212535,15.5061828 C15.0899482,19.436323 9.80156721,20.615908 5.659,18.219 C5.4938053,18.1193927 5.43877035,17.9058612 5.53523823,17.7388138 C5.63170611,17.5717663 5.84415939,17.512706 6.013,17.606 C9.13787742,19.4103149 13.0618158,19.042546 15.797,16.689 C16.1610989,16.372239 16.4988755,16.0264361 16.807,15.655 L16.81,15.655 Z M7.459,10.819 C7.54475589,10.6519341 7.74604421,10.580903 7.91765987,10.6571471 C8.08927553,10.7333912 8.17149197,10.9303756 8.105,11.106 L7.132,13.294 C7.08236182,13.4036424 7.0918311,13.5309938 7.15713879,13.6320893 C7.22244649,13.7331848 7.33464483,13.7941733 7.455,13.794 L13.059,13.794 C13.1793552,13.7941733 13.2915535,13.7331848 13.3568612,13.6320893 C13.4221689,13.5309938 13.4316382,13.4036424 13.382,13.294 L12.409,11.106 C12.3577324,10.9898887 12.3723038,10.8552464 12.4472253,10.7527917 C12.5221469,10.650337 12.6460362,10.5956351 12.7722254,10.6092917 C12.8984145,10.6229483 13.0077324,10.7028887 13.059,10.819 L14.032,13.007 C14.1781573,13.3357691 14.1477411,13.7162072 13.9512039,14.0175777 C13.7546667,14.3189482 13.4187911,14.5001825 13.059,14.4990058 L7.459,14.4990058 C7.09974079,14.4991641 6.7648016,14.3175167 6.56898111,14.0163166 C6.37316062,13.7151164 6.34306147,13.3352821 6.489,13.007 L7.462,10.819 L7.459,10.819 Z" id="Path_14576" fill="#333333" fill-rule="nonzero"></path>
                </g>
            </g>
        </g>
    </g>
</svg>