<?xml version="1.0" encoding="UTF-8"?>
<svg width="18px" height="18px" viewBox="0 0 18 18" version="1.1" xmlns="http://www.w3.org/2000/svg" xmlns:xlink="http://www.w3.org/1999/xlink">
    <!-- Generator: Sketch 64 (93537) - https://sketch.com -->
    <title>Path_14610</title>
    <desc>Created with Sketch.</desc>
    <g id="Profile" stroke="none" stroke-width="1" fill="none" fill-rule="evenodd">
        <g id="Menu" transform="translate(-36.000000, -590.000000)" fill="#000000">
            <g id="Content" transform="translate(34.000000, 247.000000)">
                <g id="Support" transform="translate(2.000000, 340.000000)">
                    <path d="M14.2868076,5.58937242 C10.8849387,2.78514237 5.88491432,3.12744635 2.89692585,6.36912899 C-0.0910626171,9.61081163 -0.0258137776,14.6222687 3.04556044,17.785054 C6.11693466,20.9478393 11.1241761,21.1598412 14.4518824,18.2679872 C14.5961843,18.1426031 14.8148049,18.1579426 14.9401852,18.302249 C15.0655654,18.4465554 15.0502263,18.6651828 14.9059244,18.7905669 C11.3738601,21.8629843 6.07625226,21.7144001 2.72194098,18.4488376 C-0.632370309,15.1832752 -0.923078292,9.89140007 2.05334086,6.2780389 C5.02976001,2.66467774 10.2792118,1.93665739 14.12657,4.60366282 C17.9739281,7.27066826 19.1342132,12.4419461 16.7951129,16.4970994 C16.7337336,16.6050591 16.6192155,16.6718533 16.4950305,16.6721263 C16.3708454,16.6723993 16.2560348,16.6061094 16.1941814,16.4984206 C16.1323281,16.3907318 16.132916,16.2581561 16.1957221,16.1510202 C17.9610572,13.0938649 17.6017383,9.25490553 15.2997504,6.57846703 C14.9898987,6.22192442 14.6516003,5.89113868 14.2881919,5.58937242 L14.2868076,5.58937242 Z M5.05611972,8.10882964 L5.73302992,7.43155248 C5.87826697,7.28632592 6.0804989,7.21310476 6.28504213,7.23168802 C6.48958537,7.25027128 6.6753114,7.35873938 6.79199985,7.52776252 L8.12574825,9.45888495 C8.3155608,9.73379743 8.28192976,10.1050606 8.04580641,10.3413871 L7.47098645,10.9148405 L10.2519938,13.6962798 L10.8285441,13.1193656 C11.0619889,12.8859061 11.4278193,12.849829 11.7023673,13.0331918 L13.4527823,14.2022477 C13.6249203,14.3175598 13.7363484,14.5039256 13.7564536,14.7101438 C13.7765588,14.9163621 13.7032262,15.1207421 13.5566029,15.2671337 L12.5312016,16.2925666 C12.0302053,16.7935306 11.2744408,16.938463 10.6236714,16.6583724 C9.32643248,16.0662742 8.15346545,15.2331459 7.16713822,14.2032859 C6.04328396,13.0957345 5.11400979,11.8067845 4.41831528,10.3905304 C4.09695792,9.72736527 4.23085112,8.93342632 4.75192542,8.41234118 L5.05542759,8.10848357 L5.05611972,8.10882964 Z M5.5458068,8.59783968 L5.24195856,8.9016973 C4.92918065,9.21432408 4.84875664,9.69077117 5.04158484,10.0887493 C5.70394825,11.4352999 6.58815338,12.6608006 7.65717136,13.7139298 C8.58241116,14.6815546 9.6827335,15.4649566 10.8998342,16.0226247 C11.2895384,16.1904717 11.7421586,16.1042753 12.0428988,15.8049409 L13.0683001,14.7795079 L11.3199615,13.6087217 L10.7430651,14.1856359 C10.4727856,14.4558421 10.0346626,14.4558421 9.7643831,14.1856359 L6.98302972,11.4045427 C6.85316816,11.2747297 6.78020828,11.098634 6.78020828,10.9150136 C6.78020828,10.7313931 6.85316816,10.5552974 6.98302972,10.4254844 L7.55473505,9.8523771 L6.22133272,7.92125467 L5.54442253,8.59818576 L5.5458068,8.59783968 Z" id="Path_14610"></path>
                </g>
            </g>
        </g>
    </g>
</svg>