<?xml version="1.0" encoding="UTF-8"?>
<svg width="18px" height="18px" viewBox="0 0 18 18" version="1.1" xmlns="http://www.w3.org/2000/svg" xmlns:xlink="http://www.w3.org/1999/xlink">
    <!-- Generator: Sketch 64 (93537) - https://sketch.com -->
    <title>ic_Delivery</title>
    <desc>Created with Sketch.</desc>
    <g id="Food-Discover-(categories-with-listing)" stroke="none" stroke-width="1" fill="none" fill-rule="evenodd">
        <g id="Discovery-Anything-with-black-icons" transform="translate(-108.000000, -755.000000)" fill-rule="nonzero">
            <g id="Bottom-Menu" transform="translate(0.000000, 737.000000)">
                <g id="ic_Delivery" transform="translate(108.000000, 18.000000)">
                    <g id="Delivery_yellow_Active">
                        <path d="M6.1464,9.8604 C6.07920062,9.65331524 6.02942737,9.44097612 5.9976,9.2256 C5.92423652,8.96115087 5.81093129,8.7094514 5.6616,8.4792 C5.35049414,8.00291914 5.19416311,7.44213919 5.214,6.8736 L5.214,5.9388 C5.214,5.64 5.2884,5.3388 5.2884,5.0424 C5.27614743,4.79128963 5.30122043,4.53975089 5.3628,4.296 L5.4372,3.9228 L5.4372,3.8844 C5.4372,3.9216 5.8848,3.0252 5.5116,2.7636 C5.1384,2.502 4.6896,2.7636 4.4316,3.0624 C4.17836469,3.33088924 4.01120383,3.66897207 3.9516,4.0332 C3.87129911,4.34054129 3.80879528,4.65225913 3.7644,4.9668 C3.69,5.7132 3.69,6.4608 3.6528,7.17 C3.62807759,7.53032223 3.6405434,7.89223283 3.69,8.25 C3.77061001,8.64184267 3.90891607,9.0195557 4.1004,9.3708 C4.212,9.5952 4.362,9.8184 4.4736,10.08 C4.5852,10.3416 4.548,10.752 4.7352,10.9764 C4.82936046,11.1213342 4.98011113,11.2200092 5.15061351,11.2483122 C5.32111588,11.2766151 5.49566253,11.2319386 5.6316,11.1252 L5.6316,11.1252 L5.7432,11.0136 C6.042,10.7892 6.4152,10.1916 6.1536,9.8556 L6.1464,9.8604 Z" id="Path_23844" fill="#C8171D"></path>
                        <path d="M3.9048,3.1752 C3.86756813,3.32207726 3.86756813,3.47592274 3.9048,3.6228 C3.9048,3.7344 3.9048,3.6972 3.9792,3.5484 C4.0536,3.3996 4.0164,3.4368 3.9792,3.5112 C3.942,3.5856 3.942,3.5484 3.9792,3.474 L3.7512,3.7356 L3.564,3.9228 C3.23836568,4.3798198 3.06992099,4.93021284 3.084,5.4912 C3.2328,6.0144 4.242,5.79 4.5036,5.304 C4.6255191,5.02585595 4.7254257,4.7385743 4.8024,4.4448 L4.8756,4.2612 C4.99264098,4.09732554 5.0578495,3.90211796 5.0628,3.7008 C5.08647076,3.56137161 5.05201415,3.41833187 4.96745058,3.30497587 C4.882887,3.19161987 4.75559352,3.11783644 4.6152,3.1008 L4.5768,3.1008 C4.50660581,3.06367778 4.42259419,3.06367778 4.3524,3.1008 C3.89809404,3.24678766 3.56539339,3.63710686 3.4932,4.1088 C3.42387218,4.60796899 3.26102635,5.08958555 3.0132,5.5284 C2.77771225,6.13482538 2.725961,6.79715791 2.8644,7.4328 C2.9016,7.6944 3.0132,7.956 3.0516,8.1792 L3.1632,8.6268 L3.3876,8.9628 L3.8352,9.7848 L4.4352,10.5696 C5.0352,11.1696 6.2652,9.7476 5.6352,9.1128 C5.52952674,9.04063921 5.45064208,8.93560027 5.4108,8.814 L5.1492,8.478 L4.8132,7.806 C4.776,7.6944 4.6644,7.6188 4.626,7.5444 C4.62904264,7.39971412 4.59029438,7.25722055 4.5144,7.134 C4.44114017,6.94241755 4.40332516,6.7391111 4.4028,6.534 C4.36547131,6.3240463 4.36547131,6.1091537 4.4028,5.8992 C4.4028,5.8248 4.44,5.6748 4.4028,5.7504 L4.5516,5.4144 C4.83729835,4.88157609 5.01509171,4.29763094 5.0748,3.696 L3.5064,4.1064 C3.5808,3.9192 3.618,3.8448 3.5436,3.9576 C3.4692,4.0704 3.5064,4.032 3.5064,4.0692 C3.42210658,4.18135611 3.35869505,4.30777268 3.3192,4.4424 C3.282,4.5912 3.282,4.704 3.2448,4.8528 C3.2076,5.0016 3.1704,5.0016 3.2448,4.89 L4.6644,4.7028 C4.59,4.5156 4.59,4.7028 4.59,4.8144 C4.59,4.926 4.6644,4.7028 4.6272,4.74 L4.6644,4.74 C4.6644,4.7028 4.8516,4.4784 4.7016,4.6284 C4.8190049,4.54835678 4.92035678,4.4470049 5.0004,4.3296 C5.36173143,3.90558086 5.53501397,3.35280954 5.4804,2.7984 C5.4312,1.644 3.8712,2.3532 3.9048,3.2124 L3.9048,3.1752 Z" id="Path_23845" fill="#FFCA40"></path>
                        <path d="M5.2128,11.316 C6.0348,11.316 6.7812,9.636 5.736,9.636 C4.6908,9.636 4.1664,11.316 5.2128,11.316 Z" id="Path_23846" fill="#FFCA40"></path>
                        <path d="M5.8896,2.6892 L5.964,2.6892 L5.628,3.0624 C6.64586353,2.24567779 7.95970285,1.89349223 9.2496,2.0916 L10.2576,2.316 L10.9296,2.8392 C11.1912,2.988 11.5296,3.0264 11.7516,3.3192 C11.9079952,3.54557567 12.0968129,3.74773597 12.312,3.9192 C12.5015978,4.08562359 12.6540949,4.29004332 12.7596,4.5192 C12.83806,4.65914424 12.9390079,4.78522776 13.0584,4.8924 C13.17,5.0412 13.1328,4.9668 13.0956,5.1168 C13.1838883,5.51351955 13.3088246,5.90118375 13.4688,6.2748 C13.5555799,6.60391615 13.568285,6.94818265 13.506,7.2828 C13.4617227,7.63420375 13.3992387,7.98307291 13.3188,8.328 C13.2445326,8.55751448 13.1308312,8.77232874 12.9828,8.9628 L12.7956,9.336 L12.684,9.5232 C12.8328,9.336 12.8328,9.336 12.684,9.4488 C12.3632566,9.62691275 12.0931662,9.88378774 11.8992,10.1952 C11.712,10.494 11.712,11.0544 12.0864,11.2032 C12.4608,11.352 12.9828,10.9416 13.2072,10.6032 L13.2072,10.5324 L12.8712,10.9056 C12.9456,10.8312 13.3188,10.644 13.4712,10.4952 C13.781785,10.2033625 14.0239702,9.84643645 14.1804,9.45 L14.1804,9.3756 C14.3245326,9.24068204 14.4389654,9.07720656 14.5164,8.8956 C14.6716377,8.59181428 14.7727501,8.26330038 14.8152,7.9248 C14.9516615,7.23587132 15.0128208,6.5341487 14.9976,5.832 C14.9655328,5.47443826 14.8504833,5.12928972 14.6616,4.824 C14.5128,4.5252 14.6616,4.1892 14.5128,3.8904 C14.364,3.5916 14.1396,3.48 14.0328,3.2184 C13.9061752,2.9835172 13.7442955,2.76943126 13.5528,2.5836 C13.1052,2.1732 12.8064,1.6872 12.246,1.4628 C11.6856,1.2384 11.424,0.7908 10.902,0.6408 C10.1834105,0.453695117 9.44035615,0.378013651 8.6988,0.4164 C7.89721396,0.447320918 7.10984981,0.637838563 6.3828,0.9768 C5.65176147,1.23102903 5.01412447,1.69932637 4.5528,2.3208 C4.1424,2.9928 4.3284,3.18 4.74,3.3288 C5.1516,3.4776 5.6364,3.0672 5.82,2.7288 L5.8896,2.6892 Z" id="Path_23847" fill="#FFCA40"></path>
                        <path d="M6.3324,3.51 L7.5648,3.4356 C8.088,3.3612 8.5728,3.4356 9.0588,3.324 C9.46493945,3.27788666 9.87622395,3.32888594 10.2588,3.4728 C10.5991443,3.48057216 10.9165852,3.6459429 11.118,3.9204 L11.718,4.5924 C11.9762333,4.8975074 12.1671916,5.25366296 12.2784,5.6376 C12.3235315,5.84258416 12.386161,6.0433198 12.4656,6.2376 C12.5366193,6.31074225 12.5878303,6.40077448 12.6144,6.4992 C12.5861745,6.6957296 12.522761,6.88556364 12.4272,7.0596 C12.3510069,7.30098932 12.3133446,7.55288124 12.3156,7.806 C12.4120133,8.10185685 12.7263536,8.26727111 13.0248,8.1792 L13.0248,8.1792 C13.4102657,8.06709097 13.7169723,7.77426447 13.8468,7.3944 C13.9286213,7.11582199 13.9539171,6.82369614 13.9212,6.5352 L13.9212,6.2736 L13.6596,6.9084 L12.384,6.9084 C12.4521043,7.17702897 12.4647618,7.45671753 12.4212,7.7304 L12.6456,7.2828 C12.4584,7.5816 12.198,7.806 12.0108,8.1048 C11.9014969,8.26724418 11.8135735,8.44309104 11.7492,8.628 L11.7492,8.7024 L11.7492,8.7024 C11.6376,8.814 11.6376,8.814 11.6748,8.7396 C11.712,8.6652 11.6004,8.814 11.6748,8.7768 L11.2644,9.0756 C10.9303101,9.34797827 10.7050586,9.73120401 10.6296,10.1556 L10.8852,9.5232 L10.8852,9.5976 C10.6236,9.8964 10.4376,10.4568 10.7736,10.7184 C11.1096,10.98 11.6328,10.7184 11.8944,10.4568 C12.0441554,10.2130282 12.1573594,9.94861607 12.2304,9.672 L12.0852,10.0836 L11.9736,10.2324 L12.2352,10.0452 L12.6828,9.6348 C12.8487295,9.47118452 12.9872951,9.28197355 13.0932,9.0744 C13.2048,8.8872 13.242,8.7012 13.3548,8.5512 L13.4292,8.4768 L13.6536,8.2152 C13.8516176,7.98098168 13.9808043,7.69643849 14.0268,7.3932 C14.0896018,6.95749665 14.0770185,6.51423885 13.9896,6.0828 C13.878,5.4108 13.0188,5.6724 12.72,6.0828 C12.5288562,6.31429765 12.4233318,6.6045958 12.4212,6.9048 L12.4212,7.428 L13.9524,7.0176 L13.9524,7.3536 C14.128136,6.93432467 14.2534147,6.49564766 14.3256,6.0468 C14.3578752,5.75951869 14.29189,5.46977566 14.1384,5.2248 C14.1012,5.1504 14.0268,5.1132 13.9896,5.0004 L13.878,4.6272 C13.6143509,3.83903104 13.1355143,3.14031197 12.4956,2.61 C12.3884103,2.43714897 12.2490996,2.28643275 12.0852,2.166 C11.8995455,2.02578665 11.680938,1.93569885 11.4504,1.9044 L10.7784,1.7928 L9.9552,1.6428 L9.246,1.7916 C8.9844,1.8288 8.6856,1.7544 8.3868,1.7916 L7.0044,1.866 C6.53270686,1.93819339 6.14238766,2.27089404 5.9964,2.7252 C5.8848,3.0612 5.9964,3.5844 6.4764,3.5472 L6.3324,3.51 Z" id="Path_23848" fill="#FFCA40"></path>
                        <path d="M10.926,9.486 L10.6644,9.5976 C10.5873679,9.62532423 10.5215897,9.67760953 10.4772,9.7464 L10.5888,9.672 C10.4521289,9.70085258 10.3318093,9.78120887 10.2528,9.8964 C10.1784,9.9708 10.44,9.822 10.3644,9.822 C10.2888,9.822 10.1772,9.9336 10.1028,9.9708 L9.9156,10.158 C9.68431117,10.3893601 9.47202534,10.6389666 9.2808,10.9044 L9.2808,10.9788 C9.2064,11.0532 9.2436,11.016 9.3552,10.8672 L9.2436,10.9416 L9.0948,11.166 C9.0204,11.2404 8.946,11.2776 8.9076,11.3532 L8.8332,11.4276 L8.8704,11.4276 L8.6088,11.6148 C8.45927399,11.6952781 8.33127976,11.8105141 8.2356,11.9508 L8.0484,12.2124 L8.1228,12.0636 C8.0856,12.138 8.0856,12.1008 8.16,12.0636 C8.2344,12.0264 8.1228,12.0636 8.1228,12.0636 L8.0112,12.138 L7.6752,12.474 L7.6752,12.474 C7.5636,12.6228 7.638,12.5484 7.8996,12.2868 L7.638,12.474 C7.44802678,12.6319085 7.30589499,12.8397036 7.2276,13.074 C7.16512798,13.2583332 7.17851099,13.4599417 7.2648,13.6344 C7.4892,14.0448 7.974,13.896 8.31,13.6716 L8.1984,13.746 L8.3856,13.5972 L8.61,13.3728 L8.6844,13.2984 L8.61,13.3728 L8.6472,13.3728 C8.83873208,13.2325407 9.01419482,13.0715657 9.1704,12.8928 L9.282,12.6684 C9.2076,12.8172 9.1704,12.8556 9.2076,12.8172 L9.1704,12.8172 C9.3192,12.7056 9.3576,12.7056 9.1332,12.8544 L9.3948,12.6672 L9.9552,12.144 L10.2912,11.7708 C10.3990464,11.6622302 10.4875228,11.5360093 10.5528,11.3976 L10.5528,11.3232 C10.4784,11.4348 10.4412,11.472 10.5156,11.3976 L10.5528,11.3976 L10.6272,11.286 C10.7016,11.1744 10.44,11.4348 10.59,11.3232 C10.74,11.2116 10.8888,11.0616 10.59,11.286 L10.8516,11.1372 C10.926,11.0628 10.7772,11.1744 10.74,11.1744 L10.8516,11.1744 L11.0388,11.0256 L10.7772,11.1744 C10.9971225,11.1088506 11.1923316,10.9788505 11.3376,10.8012 C11.4928385,10.6244994 11.5848723,10.4011698 11.5992,10.1664 C11.5992,9.9792 11.5992,9.7932 11.4504,9.6864 C11.2938685,9.55813876 11.0837257,9.5162902 10.89,9.5748 L10.926,9.486 Z" id="Path_23849" fill="#FFCA40"></path>
                        <path d="M7.752,13.6332 C7.78220001,13.7039391 7.79495821,13.7808999 7.7892,13.8576 C7.82869505,13.9922273 7.89210658,14.1186439 7.9764,14.2308 C8.05804033,14.419884 8.1864736,14.5850715 8.3496,14.7108 C8.59532133,14.9581607 8.97275669,15.0183175 9.2832,14.8596 C9.46329215,14.7777883 9.61793951,14.6488464 9.7308,14.4864 C9.768,14.4492 9.8424,14.2248 9.918,14.2248 C9.9936,14.2248 9.7692,14.412 9.8808,14.262 C10.0689443,14.1188471 10.2115083,13.9241764 10.2912,13.7016 L10.2168,13.8132 C10.1424,13.962 10.068,13.962 10.1424,13.9248 L10.2168,13.8504 L10.4412,13.6632 L10.7772,13.3272 L10.7028,13.3272 C10.8144,13.2528 10.7028,13.29 10.7028,13.3644 L11.076,13.1028 C11.2320013,12.960269 11.3698404,12.7990537 11.4864,12.6228 L11.1504,12.996 L11.5608,12.5856 C11.6442916,12.5008815 11.708192,12.3988866 11.748,12.2868 C11.8139039,12.230083 11.8541403,12.1491775 11.8596,12.0624 C11.8968,11.988 11.8968,11.988 11.8596,12.1368 L11.5236,12.51 L11.9712,12.0996 L12.1956,11.8752 C12.0468,12.0624 12.1956,11.9496 12.3072,11.8008 C12.4188,11.652 12.3444,11.7264 12.3816,11.7264 C12.4188,11.7264 12.1944,11.8752 12.3072,11.7636 L12.6432,11.4276 L12.792,11.2404 C12.8664,11.0916 12.9036,11.0916 12.8292,11.166 C12.7548,11.2404 12.792,11.2404 12.8292,11.2032 L13.0164,11.016 C13.0908,10.9416 13.3152,10.6056 13.0536,10.8672 C12.792,11.1288 13.128,10.83 13.2024,10.7928 C13.2768,10.7556 13.65,9.8592 13.2768,9.6348 C12.7595552,9.44609389 12.1848364,9.50030433 11.712,9.7824 C11.4734638,9.92100455 11.2484755,10.0817105 11.04,10.2624 C10.8216154,10.4431292 10.6207292,10.6440154 10.44,10.8624 L10.104,11.31 L9.9924,11.31 L9.768,11.4972 L9.2448,11.8704 C8.91357428,12.1142491 8.68680948,12.4743293 8.61,12.8784 C8.58632924,13.0178284 8.62078585,13.1608681 8.70534942,13.2742241 C8.789913,13.3875801 8.91720648,13.4613636 9.0576,13.4784 L9.0948,13.4784 C9.16499419,13.5155222 9.24900581,13.5155222 9.3192,13.4784 C9.77350596,13.3324123 10.1062066,12.9420931 10.1784,12.4704 L10.1784,12.4704 L10.0668,12.8808 C9.8424,13.254 9.768,13.2168 9.918,13.1052 L10.1424,12.918 L10.5528,12.6192 C10.8504545,12.3963267 11.1147267,12.1320545 11.3376,11.8344 L11.4492,11.6472 L11.5236,11.5728 L11.4864,11.5728 L11.8968,11.2368 L12.0084,11.1624 C12.0828,11.088 12.0456,11.088 11.9712,11.1624 C11.8968,11.2368 12.12,11.088 12.12,11.088 C12.12,11.088 12.1572,11.088 12.12,11.0508 L12.084,11.0508 L12.192,9.9024 L12.0432,10.0512 C11.9721807,10.1243422 11.9209697,10.2143745 11.8944,10.3128 L11.9688,10.2012 C11.8944,10.164 11.6328,10.6116 11.6328,10.6116 C11.6328,10.6116 11.8572,10.35 11.7072,10.5 L11.5956,10.6116 C11.4907007,10.6790952 11.4014952,10.7683007 11.334,10.8732 L11.4084,10.7988 C11.3661822,10.878559 11.300959,10.9437822 11.2212,10.986 C11.184,11.0604 11.184,11.0232 11.2956,10.9488 L11.2212,10.9488 L11.034,11.0976 C10.8361583,11.2483411 10.6725552,11.4393476 10.554,11.658 C10.5168,11.6952 10.3296,12.138 10.4796,11.8068 C10.6296,11.4756 10.5912,11.6196 10.5168,11.6952 C10.4424,11.7708 10.4796,11.7696 10.5168,11.7324 L10.554,11.7324 L10.4052,11.8812 L10.1436,12.2172 L10.4424,11.844 C10.554,11.7696 10.554,11.8068 10.4424,11.844 L10.2936,11.9556 L9.846,12.3288 L9.7344,12.4404 L9.7344,12.5148 L9.8088,12.4404 L9.5844,12.6276 L9.2484,12.9264 L9.0612,13.188 C9.0612,13.2252 8.9496,13.3752 9.0612,13.2624 C9.1728,13.1496 9.0612,13.2252 9.024,13.2624 L8.9124,13.374 L8.838,13.4856 L8.7264,13.6344 L8.8752,13.4856 L9.6216,13.2612 C9.7332,13.3356 9.7332,13.3356 9.6588,13.2984 L9.5472,13.224 C9.51,13.1496 9.51,13.1496 9.5472,13.1868 L9.4728,13.0752 L9.3612,12.888 L9.3612,12.888 C9.36624417,12.8470956 9.35257799,12.806097 9.324,12.7764 C9.25175241,12.4775099 8.95089483,12.2937718 8.652,12.366 L8.4276,12.4776 C8.00950022,12.6891687 7.75924317,13.1310215 7.7928,13.5984 L7.752,13.6332 Z" id="Path_23850" fill="#FFCA40"></path>
                        <path d="M6.8556,8.964 L6.1836,8.4408 C5.922,8.2536 5.922,8.0676 5.8476,7.7688 C5.73354282,7.46836567 5.65813846,7.1546513 5.6232,6.8352 L5.6232,6.3444 C5.586,6.27 5.586,6.2328 5.586,6.3444 C5.59286493,6.22916881 5.61797738,6.1157577 5.6604,6.0084 C5.6976,5.8596 5.586,6.1956 5.6604,5.8968 C5.7348,5.598 5.6976,5.7096 5.7348,5.6352 L5.8464,5.1552 C5.9208,5.0064 6.0336,4.8192 6.108,4.632 C6.15042262,4.5246423 6.17553507,4.41123119 6.1824,4.296 L6.1824,4.4076 C6.2196,4.3332 6.2196,4.296 6.2196,4.3704 C6.2196,4.4448 6.1452,4.632 6.2196,4.3704 L6.294,4.3704 L6.1824,4.4448 C6.4172828,4.31817519 6.63136874,4.15629546 6.8172,3.9648 C6.85875323,3.85383227 6.93824916,3.76115786 7.0416,3.7032 C7.25678709,3.53173597 7.44560482,3.32957567 7.602,3.1032 C7.7892,2.73 7.7892,2.2812 7.3776,2.0952 C7.20314172,2.00891099 7.00153321,1.99552798 6.8172,2.058 L6.4068,2.058 C6.2102704,2.08622547 6.02043636,2.14963899 5.8464,2.2452 C5.7289951,2.32524322 5.62764322,2.4265951 5.5476,2.544 C5.4732,2.5812 5.2488,2.9544 5.3604,2.7684 C5.472,2.5824 4.9128,3.5904 5.286,3.8892 C5.6592,4.188 6.1452,3.8892 6.366,3.5904 L6.5148,3.4416 C6.6264,3.2544 6.5892,3.2928 6.4032,3.516 L5.9928,3.7032 L6.4728,3.7032 L6.2556,2.652 L6.2556,2.7264 L6.5916,2.3532 L6.3756,2.5044 L6.2268,2.6916 L6.1152,2.6916 L5.8164,3.0276 L5.8164,3.0276 L5.1756,3.5484 C4.99214504,3.76136115 4.84130268,4.00036338 4.728,4.2576 C4.728,4.332 4.6908,4.3692 4.6908,4.4448 L4.6164,4.6692 C4.6164,4.632 4.6536,4.5948 4.6536,4.5576 C4.53179728,4.7580196 4.43163501,4.97081413 4.3548,5.1924 L4.2432,5.7924 C4.20099987,5.88684233 4.17581296,5.98799621 4.1688,6.0912 C4.1316,6.1656 4.1316,6.2784 4.0944,6.3528 L4.0944,6.3528 C4.01908359,6.74925465 4.01908359,7.15634535 4.0944,7.5528 C4.13309202,7.93273058 4.20823803,8.3080588 4.3188,8.6736 C4.39283908,9.07412125 4.57359381,9.44723881 4.842,9.7536 C5.0664,10.0152 5.442,10.1268 5.664,10.3884 C5.886,10.65 6.5604,10.3512 6.7848,10.0896 C7.08774368,9.78778681 7.11959194,9.30800806 6.8592,8.9688 L6.8556,8.964 Z" id="Path_23851" fill="#FFCA40"></path>
                        <path d="M17.9112,17.5536 L15.48,11.5404 C15.4358714,11.4378946 15.3290598,11.3771394 15.2184,11.3916 L13.2792,11.3916 L13.578,11.0928 C15.4362661,9.23480193 15.9922765,6.4403389 14.9867502,4.01253608 C13.9812239,1.58473325 11.6121956,0.00173735187 8.9844,0.00173735187 C6.35660441,0.00173735187 3.98757609,1.58473325 2.9820498,4.01253608 C1.97652351,6.4403389 2.53253391,9.23480193 4.3908,11.0928 L4.3908,11.0928 L5.1756,11.8392 L5.3628,11.9136 L5.55,11.8392 L7.53,9.7104 C7.58331831,9.66303278 7.61382726,9.59511967 7.61382726,9.5238 C7.61382726,9.45248033 7.58331831,9.38456722 7.53,9.3372 L7.53,9.3372 L6.858,8.628 C6.07065807,7.8944623 5.73446183,6.79660358 5.97605316,5.74797662 C6.2176445,4.69934965 7.00031993,3.85926583 8.02925319,3.54417659 C9.05818645,3.22908736 10.1770581,3.48686226 10.9644,4.2204 L11.076,4.332 C11.6457925,4.89151528 11.9698536,5.65454787 11.9768307,6.45309167 C11.9838079,7.25163547 11.673129,8.02021399 11.1132,8.5896 L11.076,8.5896 L6.744,12.9972 C6.6696,13.0344 6.6696,13.1088 6.6696,13.1844 C6.6696,13.26 6.6696,13.3332 6.744,13.3716 L8.7984,15.426 C8.82462134,15.4792266 8.87295889,15.5181991 8.93053574,15.5325355 C8.98811258,15.5468719 9.04908127,15.5351162 9.0972,15.5004 L9.1716,15.426 L12.72,11.88 L15.036,11.88 L17.28,17.3292 L0.6924,17.3292 L2.934,11.88 L3.4572,11.88 C3.60167769,11.88 3.7188,11.7628777 3.7188,11.6184 C3.7188,11.4739223 3.60167769,11.3568 3.4572,11.3568 L2.7468,11.3568 C2.63614023,11.3423394 2.52932864,11.4030946 2.4852,11.5056 L0.0576,17.5536 C0.0202267379,17.6367955 0.0202267379,17.7320045 0.0576,17.8152 C0.10295742,17.8943475 0.191516334,17.9383902 0.282,17.9268 L17.682,17.9268 C17.7687775,17.9213403 17.849683,17.8811039 17.9064,17.8152 C17.9453067,17.7326918 17.9470537,17.6374799 17.9112,17.5536 L17.9112,17.5536 Z M8.9844,14.9016 L7.3044,13.2216 L11.52,9 C12.9005013,7.6035988 12.9005013,5.3564012 11.52,3.96 C10.1087914,2.57801895 7.85160856,2.57801895 6.4404,3.96 C5.05989867,5.3564012 5.05989867,7.6035988 6.4404,9 L6.9636,9.5232 L5.3616,11.2416 L4.764,10.68 C2.45644762,8.35467462 2.4660491,4.60044992 4.78546531,2.28695806 C7.10488151,-0.0265337984 10.8591185,-0.0265337984 13.1785347,2.28695806 C15.4979509,4.60044992 15.5075524,8.35467462 13.2,10.68 L12.4152,11.4648 L12.4152,11.4648 L8.9844,14.9016 Z" id="Path_23852" fill="#1A171B"></path>
                    </g>
                </g>
            </g>
        </g>
    </g>
</svg>