<?xml version="1.0" encoding="UTF-8"?>
<svg width="18px" height="18px" viewBox="0 0 18 18" version="1.1" xmlns="http://www.w3.org/2000/svg" xmlns:xlink="http://www.w3.org/1999/xlink">
    <!-- Generator: Sketch 64 (93537) - https://sketch.com -->
    <title>ic_Delivery</title>
    <desc>Created with Sketch.</desc>
    <g id="Food-Discover-(categories-with-listing)" stroke="none" stroke-width="1" fill="none" fill-rule="evenodd">
        <g id="Food-Categories-+search-filed" transform="translate(-108.000000, -918.000000)" fill="#1A171B" fill-rule="nonzero">
            <g id="Bottom-Menu" transform="translate(0.000000, 900.000000)">
                <g id="ic_Delivery" transform="translate(108.000000, 18.000000)">
                    <path d="M17.9807137,17.6217696 L15.5258408,11.5930557 C15.484211,11.490547 15.3846531,11.4234148 15.2739663,11.4232158 L13.3095859,11.4232158 L13.6108713,11.1220812 C16.1562925,8.57758859 16.1561059,4.45245946 13.6104544,1.90819691 C11.0648029,-0.636065637 6.93760849,-0.636065637 4.39195701,1.90819691 C1.84630552,4.45245946 1.84611889,8.57758859 4.39154015,11.1220812 L5.15801003,11.8881676 C5.21182204,11.9381312 5.28221544,11.9664461 5.35565321,11.9676671 C5.42980176,11.966402 5.50025946,11.9351032 5.5508861,11.8809403 L7.55021556,9.74047586 C7.65093951,9.63288591 7.64773483,9.46472443 7.54298471,9.36104631 L6.84641303,8.66964135 C5.65725168,7.48088726 5.65735323,5.55370397 6.84663986,4.36507508 C8.03592649,3.1764462 9.96407465,3.1764462 11.1533613,4.36507508 C12.3426479,5.55370397 12.3427495,7.48088726 11.1535881,8.66964135 L6.73674517,13.084274 C6.68569577,13.1354217 6.65708186,13.2047541 6.65720584,13.2770002 C6.65734438,13.3491943 6.68591863,13.4184305 6.73674517,13.4697263 L8.80717796,15.539123 C8.85827461,15.5903182 8.92765112,15.6190899 9,15.6190899 C9.07235002,15.6190899 9.14172653,15.5903182 9.19282318,15.539123 L12.7624518,11.9712807 L15.0883745,11.9712807 L17.3215014,17.4555434 L0.678499735,17.4555434 L2.91162661,11.9712807 L3.44188879,11.9712807 C3.59264292,11.9712807 3.7148533,11.8491315 3.7148533,11.6984528 C3.7148533,11.5477741 3.59264292,11.4256249 3.44188879,11.4256249 L2.72844513,11.4256249 C2.61731923,11.4253332 2.51716035,11.4925491 2.47536545,11.5954648 L0.0204925727,17.6241787 C-0.0141619484,17.7083516 -0.00443438719,17.8042662 0.0464149941,17.8797761 C0.0972643754,17.9552859 0.182506648,18.0003987 0.27357225,18 L17.727634,18 C17.8184864,18 17.9033573,17.9547182 17.9539204,17.8792741 C18.0044836,17.80383 18.0140807,17.708154 17.9795086,17.6241787 L17.9807137,17.6217696 Z M9.00120571,14.957331 L7.31400786,13.2709775 L11.5320025,9.05509359 C12.5592391,8.02854468 12.8666086,6.48457879 12.3107759,5.14319106 C11.7549432,3.80180334 10.4453788,2.92717821 8.99276972,2.92717821 C7.54016063,2.92717821 6.2305962,3.80180334 5.67476351,5.14319106 C5.11893083,6.48457879 5.42630036,8.02854468 6.45353695,9.05509359 L6.96331173,9.56461327 L5.33637095,11.3063756 L4.76874938,10.7390381 C2.43683948,8.40752501 2.43725587,4.62808387 4.76967945,2.29708417 C7.10210302,-0.0339155354 10.8834364,-0.0339155354 13.21586,2.29708417 C15.5482836,4.62808387 15.5487,8.40752501 13.2167901,10.7390381 L12.4503202,11.5051244 L12.4503202,11.5051244 L9.00120571,14.957331 Z" id="Delivery_"></path>
                </g>
            </g>
        </g>
    </g>
</svg>