<?xml version="1.0" encoding="UTF-8"?>
<svg width="18px" height="21px" viewBox="0 0 18 21" version="1.1" xmlns="http://www.w3.org/2000/svg" xmlns:xlink="http://www.w3.org/1999/xlink">
    <!-- Generator: Sketch 64 (93537) - https://sketch.com -->
    <title>delivery icon</title>
    <desc>Created with Sketch.</desc>
    <defs>
        <path d="M13.1601429,0.1281875 C13.2405212,0.21021557 13.28569,0.321477269 13.2857143,0.4375 L13.2857143,4.3894375 C13.2857143,4.63106208 13.4775923,4.8269375 13.7142857,4.8269375 L14.9952857,4.8125 C15.108952,4.8112166 15.2184614,4.85608384 15.2997198,4.93722999 C15.3809781,5.01837615 15.427328,5.12915306 15.4285714,5.2451875 C15.4298286,5.36122179 15.3858771,5.47301271 15.3063869,5.55596393 C15.2268968,5.63891516 15.1183807,5.68623064 15.0047143,5.6875 L13.7284286,5.7019375 L13.7142857,5.7019375 C13.0042053,5.7019375 12.4285714,5.11431123 12.4285714,4.3894375 L12.4285714,0.875 L1.28571429,0.875 C1.04902082,0.875 0.857142857,1.07087542 0.857142857,1.3125 L0.857142857,19.6875 C0.857142857,19.9291246 1.04902082,20.125 1.28571429,20.125 L16.7142857,20.125 C16.9509792,20.125 17.1428571,19.9291246 17.1428571,19.6875 L17.1428571,5.2810625 L14.8671429,2.9325625 C14.7518963,2.82313947 14.7046756,2.65803487 14.7441429,2.5025 C14.7835304,2.34710337 14.9031151,2.22620281 15.0557143,2.1875 C15.2087042,2.14912095 15.3699868,2.19952177 15.4757143,2.31875 L18,4.92275 L18,19.6875 C18,20.4123737 17.4243661,21 16.7142857,21 L1.28571429,21 C0.575633893,21 0,20.4123737 0,19.6875 L0,1.3125 C0,0.587626266 0.575633893,0 1.28571429,0 L12.8571429,0 C12.9707978,0 13.0797888,0.0461346485 13.1601429,0.1281875 L13.1601429,0.1281875 Z M4.28571429,8.3125 C4.30067145,8.05657162 4.51536304,7.86106374 4.76614286,7.875 L13.2342857,7.875 C13.4840707,7.86393677 13.6970741,8.05790732 13.7147143,8.3125 C13.6997571,8.56842838 13.4850655,8.76393626 13.2342857,8.75 L4.76571429,8.75 C4.51601041,8.76105385 4.30313327,8.56702521 4.28571429,8.3125 L4.28571429,8.3125 Z M4.28571429,11.375 C4.30067145,11.1190716 4.51536304,10.9235637 4.76614286,10.9375 L13.2342857,10.9375 C13.4840707,10.9264368 13.6970741,11.1204073 13.7147143,11.375 C13.6997571,11.6309284 13.4850655,11.8264363 13.2342857,11.8125 L4.76571429,11.8125 C4.51601041,11.8235539 4.30313327,11.6295252 4.28571429,11.375 L4.28571429,11.375 Z M4.28571429,14.4375 C4.28571429,14.196 4.41428571,14 4.56985714,14 L9.573,14 C9.72985714,14 9.85714286,14.203 9.85714286,14.4375 C9.85714286,14.679 9.72857143,14.875 9.573,14.875 L4.56985714,14.875 C4.41428571,14.875 4.28571429,14.672 4.28571429,14.4375 Z M12,15.75 C11.2899196,15.75 10.7142857,15.1623737 10.7142857,14.4375 C10.7142857,13.7126263 11.2899196,13.125 12,13.125 C12.7100804,13.125 13.2857143,13.7126263 13.2857143,14.4375 C13.2857143,15.1623737 12.7100804,15.75 12,15.75 Z M12,14.875 C12.2366935,14.875 12.4285714,14.6791246 12.4285714,14.4375 C12.4285714,14.1958754 12.2366935,14 12,14 C11.7633065,14 11.5714286,14.1958754 11.5714286,14.4375 C11.5714286,14.6791246 11.7633065,14.875 12,14.875 Z" id="path-1"></path>
    </defs>
    <g id="Profile" stroke="none" stroke-width="1" fill="none" fill-rule="evenodd">
        <g id="Menu" transform="translate(-36.000000, -395.000000)">
            <g id="Content" transform="translate(34.000000, 247.000000)">
                <g id="Order-history" transform="translate(2.000000, 148.000000)">
                    <g id="delivery-icon">
                        <mask id="mask-2" fill="white">
                            <use xlink:href="#path-1"></use>
                        </mask>
                        <use id="Path_21448" fill="#FFFFFF" fill-rule="evenodd" xlink:href="#path-1"></use>
                    </g>
                </g>
            </g>
        </g>
    </g>
</svg>