<?xml version="1.0" encoding="UTF-8"?>
<svg width="18px" height="18px" viewBox="0 0 18 18" version="1.1" xmlns="http://www.w3.org/2000/svg" xmlns:xlink="http://www.w3.org/1999/xlink">
    <!-- Generator: Sketch 64 (93537) - https://sketch.com -->
    <title>Path_21416</title>
    <desc>Created with Sketch.</desc>
    <defs>
        <path d="M12.178,15.1 C12.5855035,13.8906814 12.7975001,12.6241028 12.806,11.348 L6.231,11.348 C6.03990948,11.348 5.885,11.1930905 5.885,11.002 C5.885,10.8109095 6.03990948,10.656 6.231,10.656 L12.806,10.656 C12.796416,9.37966345 12.5830627,8.11304697 12.174,6.904 C11.1276797,7.0992142 10.0653711,7.19597033 9.001,7.193 C7.93662501,7.19605839 6.87430817,7.09930152 5.828,6.904 C5.3853634,8.22476884 5.17063372,9.61121243 5.193,11.004 C5.17026982,12.3935517 5.38363524,13.7768765 5.824,15.095 C6.87161154,14.8992713 7.93526471,14.8021799 9.001,14.805 C10.0667306,14.8022855 11.1303739,14.899376 12.178,15.095 L12.178,15.1 Z M11.918,15.756 C10.9548561,15.58447 9.97829563,15.4994644 9,15.502 C8.02170775,15.4995445 7.04515444,15.5845495 6.082,15.756 C6.70299488,17.175828 7.715041,18.3897284 9,19.256 C10.2849963,18.3897697 11.2970525,17.1758572 11.918,15.756 L11.918,15.756 Z M2.47,16.139 C3.33054737,15.759101 4.22434352,15.4594952 5.14,15.244 C4.69452427,13.8769325 4.47794189,12.4456643 4.499,11.008 C4.47760067,9.56566906 4.69590431,8.12979887 5.145,6.759 C4.22737768,6.54251643 3.33186024,6.24122084 2.47,5.859 C1.38830124,7.22923478 0.768017023,8.90666254 0.698,10.651 L3.461,10.651 C3.65209052,10.651 3.807,10.8059095 3.807,10.997 C3.807,11.1880905 3.65209052,11.343 3.461,11.343 L0.7,11.343 C0.769948929,13.0873511 1.39024068,14.7647992 2.472,16.135 L2.47,16.139 Z M2.943,16.689 C4.23394292,18.0668298 5.95664201,18.9625769 7.826,19.228 C6.76109224,18.3265564 5.9257866,17.1848235 5.389,15.897 C4.55193107,16.0884419 3.73341489,16.3534725 2.943,16.689 L2.943,16.689 Z M15.531,16.139 C15.7862951,15.8144903 16.0172575,15.4715563 16.222,15.113 C16.2825859,15.0039103 16.3972185,14.9358949 16.522,14.935 C16.6455895,14.9344596 16.7600267,15.0000703 16.822,15.107 C16.8847583,15.2148693 16.8847583,15.3481307 16.822,15.456 C15.2206004,18.2661645 12.2344249,20.0009102 9,20 C4.02943725,20 -9.09494702e-13,15.9705627 -9.09494702e-13,11 C-9.09494702e-13,6.02943725 4.02943725,2 9,2 C13.9705627,2 18,6.02943725 18,11 C18.0003438,11.6468552 17.9312819,12.2918802 17.794,12.924 C17.751272,13.109116 17.567626,13.2254548 17.382,13.185 C17.1968235,13.1445434 17.0786675,12.9626278 17.117,12.777 C17.2193102,12.3065347 17.2805406,11.8280679 17.3,11.347 L13.5,11.347 C13.490505,12.6721887 13.2752738,13.9878654 12.862,15.247 C13.778559,15.4638054 14.6730512,15.765094 15.534,16.147 L15.531,16.139 Z M15.058,16.689 C14.2669394,16.3533608 13.4477493,16.0883287 12.61,15.897 C12.0733628,17.1843592 11.2384159,18.3257275 10.174,19.227 C12.0437915,18.9618169 13.7670985,18.0664734 15.059,16.689 L15.058,16.689 Z M15.53,5.863 C14.6681398,6.24522084 13.7726223,6.54651643 12.855,6.763 C13.2702012,8.02177973 13.4867975,9.33755126 13.497,10.663 L17.297,10.663 C17.2267788,8.91870333 16.6065172,7.24133664 15.525,5.871 L15.53,5.863 Z M15.057,5.313 C13.7621689,3.93058376 12.0328416,3.03345108 10.157,2.771 C11.2273894,3.67171756 12.0676171,4.8146466 12.608,6.105 C13.4471767,5.91370086 14.2677268,5.6483272 15.06,5.312 L15.057,5.313 Z M11.911,6.247 C11.2897045,4.8334561 10.2803331,3.62505373 9,2.762 C7.7196306,3.62528102 6.70999048,4.83359003 6.088,6.247 C7.04918963,6.4179285 8.023734,6.50259873 9,6.5 C9.97626532,6.50258272 10.9508083,6.41791261 11.912,6.247 L11.911,6.247 Z M2.943,5.313 C3.73492836,5.64933032 4.55514673,5.91470493 5.394,6.106 C5.9347531,4.81585627 6.77492115,3.67300834 7.845,2.772 C5.96915843,3.03445108 4.23983107,3.93158376 2.945,5.314 L2.943,5.313 Z" id="path-1"></path>
    </defs>
    <g id="Profile" stroke="none" stroke-width="1" fill="none" fill-rule="evenodd">
        <g id="Menu" transform="translate(-36.000000, -249.000000)">
            <g id="Content" transform="translate(34.000000, 247.000000)">
                <g id="Discover" transform="translate(2.000000, 0.000000)">
                    <mask id="mask-2" fill="white">
                        <use xlink:href="#path-1"></use>
                    </mask>
                    <use id="Path_21416" fill="#FFFFFF" xlink:href="#path-1"></use>
                </g>
            </g>
        </g>
    </g>
</svg>