<?xml version="1.0" encoding="UTF-8"?>
<svg width="17px" height="18px" viewBox="0 0 17 18" version="1.1" xmlns="http://www.w3.org/2000/svg" xmlns:xlink="http://www.w3.org/1999/xlink">
    <!-- Generator: Sketch 64 (93537) - https://sketch.com -->
    <title>Home_passive</title>
    <desc>Created with Sketch.</desc>
    <g id="Home_passive" stroke="none" stroke-width="1" fill="none" fill-rule="evenodd">
        <g id="Home" fill="#1A171B" fill-rule="nonzero">
            <path d="M7.25018409,1.7265 L9.74981591,1.7265 C9.88798877,1.7265 10,1.6250925 10,1.5 C10,1.3749075 9.88798877,1.2735 9.74981591,1.2735 L7.25018409,1.2735 C7.11201123,1.2735 7,1.3749075 7,1.5 C7,1.6250925 7.11201123,1.7265 7.25018409,1.7265 Z" id="Path_1790"></path>
            <path d="M6.5,16.7270033 C6.59190258,16.7270024 6.67473758,16.6715868 6.70981346,16.5866399 C6.74488935,16.5016929 6.7252842,16.4039782 6.66015515,16.3391361 C6.5950261,16.2742939 6.49722578,16.2551204 6.41243455,16.290571 C6.32764332,16.3260216 6.27259397,16.4091004 6.27299884,16.5010033 C6.27354941,16.6259812 6.37501969,16.7270045 6.5,16.7270033 L6.5,16.7270033 Z" id="Path_1791"></path>
            <path d="M8.5,16.7270033 C8.59190258,16.7270024 8.67473758,16.6715868 8.70981346,16.5866399 C8.74488935,16.5016929 8.7252842,16.4039782 8.66015515,16.3391361 C8.5950261,16.2742939 8.49722578,16.2551204 8.41243455,16.290571 C8.32764332,16.3260216 8.27259397,16.4091004 8.27299884,16.5010033 C8.27354941,16.6259812 8.37501969,16.7270045 8.5,16.7270033 L8.5,16.7270033 Z" id="Path_1792"></path>
            <path d="M10.4989989,16.7270011 C10.5909926,16.7274055 10.6741344,16.6722475 10.7095259,16.5873332 C10.7449174,16.5024189 10.7255599,16.4045401 10.6605099,16.3394901 C10.5954599,16.2744401 10.4975811,16.2550826 10.4126668,16.2904741 C10.3277525,16.3258656 10.2725945,16.4090074 10.2729989,16.5010011 C10.2735465,16.6255899 10.3744101,16.7264535 10.4989989,16.7270011 L10.4989989,16.7270011 Z" id="Path_1793"></path>
            <circle id="Ellipse_316" cx="11.5" cy="1.5" r="1"></circle>
            <path d="M17,5.98594463 C17,5.98594463 17,5.97751034 17,5.97389564 C16.9988558,5.94378094 16.9927137,5.91406129 16.9818221,5.88593797 C16.9819648,5.88353026 16.9819648,5.88111628 16.9818221,5.87870857 C16.9712816,5.85443621 16.9574159,5.83172968 16.9406188,5.8112342 L14.5362846,2.94718793 L14.5362846,1.6217984 C14.5369291,1.19147554 14.3652816,0.778593235 14.0592387,0.474308681 C13.7531959,0.170024127 13.3379278,-0.000637252798 12.9051183,1.78821486e-06 L4.09003422,1.78821486e-06 C3.19192339,0.000666996398 2.46383979,0.724028572 2.46250356,1.6169788 L2.46250356,2.94236833 L0.0593812375,5.8112342 C0.0423806961,5.83158619 0.0284964662,5.85432295 0.0181779299,5.87870857 L0.0181779299,5.88593797 C0.00719917581,5.91403583 0.00105407187,5.94377018 0,5.97389564 C0,5.97389564 0,5.98232993 0,5.98594463 C0.0511903352,7.36358504 1.09403906,8.50377179 2.46856287,8.68491966 L2.46856287,16.3818181 C2.46989766,17.274964 3.19778663,17.9986711 4.09609353,18.0000018 L12.9051183,18.0000018 C13.8034252,17.9986711 14.5313142,17.274964 14.532649,16.3818181 L14.532649,8.68371476 C15.9062579,8.50210944 16.9483263,7.36272512 17,5.98594463 L17,5.98594463 Z M10.150556,3.31829699 L10.8704021,5.71363733 L6.11869119,5.71363733 L6.83853721,3.31829699 L10.150556,3.31829699 Z M10.9467494,6.25825194 C10.6786676,7.38799492 9.66443763,8.18616987 8.49697035,8.18616987 C7.32950306,8.18616987 6.31527304,7.38799492 6.04719133,6.25825194 L10.9467494,6.25825194 Z M11.4436128,5.71243243 L10.7237668,3.31709209 L14.1290989,3.31709209 L16.139578,5.71243243 L11.4436128,5.71243243 Z M4.08882236,0.544618191 L12.9051183,0.544618191 C13.5005122,0.54528221 13.9830076,1.02500566 13.9836755,1.6169788 L13.9836755,2.77247749 L3.01147705,2.77247749 L3.01147705,1.6169788 C3.01281208,1.02547625 3.49511259,0.546485466 4.09003422,0.54582309 L4.08882236,0.544618191 Z M2.86362988,3.31588719 L6.26896208,3.31588719 L5.54790419,5.71122753 L0.853150841,5.71122753 L2.86362988,3.31588719 Z M0.561092102,6.25584214 L5.46065013,6.25584214 C5.19256842,7.38558512 4.1783384,8.18376007 3.01087111,8.18376007 C1.84340383,8.18376007 0.82917381,7.38558512 0.561092102,6.25584214 Z M13.9836755,16.3769985 C13.9830076,16.9689716 13.5005122,17.4486951 12.9051183,17.4493591 L4.09003422,17.4493591 C3.49464039,17.4486951 3.0121449,16.9689716 3.01147705,16.3769985 L3.01147705,15.2684909 L13.9836755,15.2684909 L13.9836755,16.3769985 L13.9836755,16.3769985 Z M13.9836755,14.7226714 L3.01147705,14.7226714 L3.01147705,8.73191075 C4.15770065,8.75214689 5.21816445,8.13042182 5.75513259,7.12336982 C6.30697628,8.11550526 7.35728121,8.73132045 8.49757628,8.73132045 C9.63787134,8.73132045 10.6881763,8.11550526 11.24002,7.12336982 C11.7771984,8.13022195 12.837526,8.75186715 13.9836755,8.73191075 L13.9836755,14.7262861 L13.9836755,14.7226714 Z M13.9836755,8.18247654 C12.7997881,8.23071804 11.7582452,7.41128464 11.5332906,6.25463724 L16.4328486,6.25463724 C16.2074371,7.41033464 15.166732,8.22900209 13.9836755,8.18127164 L13.9836755,8.18247654 Z" id="Path_1794"></path>
            <path d="M12.4650691,9.09178554 L8.09177841,13.4650762 C7.9694072,13.5874475 7.9694072,13.7858504 8.09177841,13.9082216 C8.21414962,14.0305928 8.41255255,14.0305928 8.53492376,13.9082216 L12.9082145,9.5349309 C12.9873747,9.4557706 13.0182904,9.34039196 12.9893157,9.23225699 C12.960341,9.12412202 12.875878,9.03965899 12.767743,9.01068432 C12.659608,8.98170964 12.5442294,9.01262525 12.4650691,9.09178554 L12.4650691,9.09178554 Z" id="Path_1795"></path>
            <path d="M7.92361368,10.0758136 C7.87519512,10.0272773 7.80945478,10 7.74089733,10 C7.67233987,10 7.60659954,10.0272773 7.55818098,10.0758136 L5.07552257,12.5584734 C5.01024429,12.6239557 4.98485904,12.7192894 5.0089292,12.8085633 C5.03299937,12.8978371 5.10286812,12.9674882 5.19221656,12.9912797 C5.281565,13.0150713 5.37681899,12.9893887 5.44209725,12.9239064 L7.92475565,10.4412465 C7.97314091,10.3926764 8.00021298,10.3268507 8,10.2582931 C7.9997845,10.1897355 7.97230155,10.1240803 7.92361368,10.0758136 L7.92361368,10.0758136 Z" id="Path_1796"></path>
        </g>
    </g>
</svg>