<?xml version="1.0" encoding="UTF-8"?>
<svg width="17px" height="18px" viewBox="0 0 17 18" version="1.1" xmlns="http://www.w3.org/2000/svg" xmlns:xlink="http://www.w3.org/1999/xlink">
    <!-- Generator: Sketch 64 (93537) - https://sketch.com -->
    <title>Home_active</title>
    <desc>Created with Sketch.</desc>
    <g id="Food-Discover-(categories-with-listing)" stroke="none" stroke-width="1" fill="none" fill-rule="evenodd">
        <g id="Food-Categories-+search-filed" transform="translate(-38.000000, -918.000000)">
            <g id="Bottom-Menu" transform="translate(0.000000, 900.000000)">
                <g id="Home_active" transform="translate(38.000000, 18.000000)">
                    <g>
                        <path d="M7.08,5.676 L9.7632,5.676 L11.064,6.2028 L10.908,7.0236 C10.908,7.7676 9.9012,8.3712 9.1596,8.3712 L7.3968,8.196 C6.684,7.8516 5.9892,7.7676 5.9892,7.0236 L5.9892,6.0252 L7.08,5.676 Z" id="Path_23854" fill="#FFB800" fill-rule="nonzero"></path>
                        <polygon id="Path_23859" fill="#FFB800" fill-rule="nonzero" points="2.8356 14.9508 14.1048 14.9508 14.1048 16.836 13.3596 17.676 4.2756 17.676 2.8356 16.836"></polygon>
                        <polygon id="Path_25694" fill="#FFB800" fill-rule="nonzero" points="3.7788 0.3552 13.2588 0.3552 14.1048 0.9624 14.1048 2.976 2.8356 2.976 2.8356 0.9624"></polygon>
                        <path d="M7.062,1.9032 L9.7776,1.9032 C9.927711,1.9032 10.0494,1.781511 10.0494,1.6314 C10.0494,1.481289 9.927711,1.3596 9.7776,1.3596 L7.062,1.3596 C6.911889,1.3596 6.7902,1.481289 6.7902,1.6314 C6.7902,1.781511 6.911889,1.9032 7.062,1.9032 Z" id="Path_1790" fill="#FFFFFF" fill-rule="nonzero"></path>
                        <path d="M5.7048,16.5696 C5.81508449,16.5695989 5.91448649,16.5031002 5.95657755,16.4011639 C5.99866862,16.2992276 5.97514244,16.18197 5.89698758,16.1041594 C5.81883271,16.0263488 5.70147234,16.0033406 5.59972286,16.0458813 C5.49797338,16.088422 5.43191417,16.1881166 5.4324,16.2984 C5.43306068,16.4483735 5.55482502,16.5696015 5.7048,16.5696 L5.7048,16.5696 Z" id="Path_1791" fill="#FFFFFF" fill-rule="nonzero"></path>
                        <path d="M8.4204,16.5696 C8.53068449,16.5695989 8.63008649,16.5031002 8.67217755,16.4011639 C8.71426862,16.2992276 8.69074244,16.18197 8.61258758,16.1041594 C8.53443271,16.0263488 8.41707234,16.0033406 8.31532286,16.0458813 C8.21357338,16.088422 8.14751417,16.1881166 8.148,16.2984 C8.14866068,16.4483735 8.27042502,16.5696015 8.4204,16.5696 L8.4204,16.5696 Z" id="Path_1792" fill="#FFFFFF" fill-rule="nonzero"></path>
                        <path d="M11.136,16.5696 C11.2463924,16.5700852 11.3461626,16.5038956 11.3886324,16.4019985 C11.4311022,16.3001013 11.4078732,16.1826467 11.3298133,16.1045867 C11.2517533,16.0265268 11.1342987,16.0032978 11.0324015,16.0457676 C10.9305044,16.0882374 10.8643148,16.1880076 10.8648,16.2984 C10.8654572,16.4479066 10.9864934,16.5689428 11.136,16.5696 L11.136,16.5696 Z" id="Path_1793" fill="#FFFFFF" fill-rule="nonzero"></path>
                        <circle id="Ellipse_316" fill="#FFFFFF" fill-rule="nonzero" cx="10.98" cy="1.6296" r="1"></circle>
                        <path d="M16.8396,5.9616 C16.8396,5.9616 16.8396,5.9532 16.8396,5.9496 C16.838467,5.91960776 16.832385,5.89000896 16.8216,5.862 C16.8217413,5.85960208 16.8217413,5.85719792 16.8216,5.8548 C16.8111627,5.83062634 16.7974327,5.80801214 16.7808,5.7876 L14.4,2.9352 L14.4,1.6152 C14.4006382,1.18662699 14.2306708,0.775423616 13.9276236,0.472376395 C13.6245764,0.169329174 13.213373,-0.000638233399 12.7848,-1.79096254e-06 L4.056,-1.79096254e-06 C3.16668009,0.000660712239 2.44572315,0.721080832 2.4444,1.6104 L2.4444,2.9304 L0.0648,5.7876 C0.0479658639,5.80786924 0.034217536,5.83051354 0.024,5.8548 L0.024,5.862 C0.0131287086,5.8899836 0.00704375437,5.91959704 0.006,5.9496 C0.006,5.9496 0.006,5.958 0.006,5.9616 C0.0566892721,7.33363842 1.08933035,8.46918874 2.4504,8.6496 L2.4504,16.3152 C2.45172172,17.2047141 3.17248595,17.9254783 4.062,17.9268 L12.7848,17.9268 C13.6743141,17.9254783 14.3950783,17.2047141 14.3964,16.3152 L14.3964,8.6484 C15.7565637,8.46753315 16.7884321,7.33278199 16.8396,5.9616 L16.8396,5.9616 Z M10.0572,3.3048 L10.77,5.6904 L6.0648,5.6904 L6.7776,3.3048 L10.0572,3.3048 Z M10.8456,6.2328 C10.5801423,7.35794903 9.57583984,8.15287831 8.4198,8.15287831 C7.26376016,8.15287831 6.25945766,7.35794903 5.994,6.2328 L10.8456,6.2328 Z M11.3376,5.6892 L10.6248,3.3036 L13.9968,3.3036 L15.9876,5.6892 L11.3376,5.6892 Z M4.0548,0.5424 L12.7848,0.5424 C13.374366,0.54306132 13.8521387,1.02083403 13.8528,1.6104 L13.8528,2.7612 L2.988,2.7612 L2.988,1.6104 C2.98932196,1.02130272 3.4669016,0.544259683 4.056,0.5436 L4.0548,0.5424 Z M2.8416,3.3024 L6.2136,3.3024 L5.4996,5.688 L0.8508,5.688 L2.8416,3.3024 Z M0.5616,6.2304 L5.4132,6.2304 C5.14774234,7.35554903 4.14343984,8.15047831 2.9874,8.15047831 C1.83136016,8.15047831 0.827057662,7.35554903 0.5616,6.2304 Z M13.8528,16.3104 C13.8521387,16.899966 13.374366,17.3777387 12.7848,17.3784 L4.056,17.3784 C3.46643403,17.3777387 2.98866132,16.899966 2.988,16.3104 L2.988,15.2064 L13.8528,15.2064 L13.8528,16.3104 L13.8528,16.3104 Z M13.8528,14.6628 L2.988,14.6628 L2.988,8.6964 C4.1230041,8.71655385 5.17308783,8.09735696 5.7048,7.0944 C6.25124211,8.08250105 7.29126641,8.69581211 8.4204,8.69581211 C9.54953359,8.69581211 10.5895579,8.08250105 11.136,7.0944 C11.6679204,8.09715789 12.7178693,8.71627526 13.8528,8.6964 L13.8528,14.6664 L13.8528,14.6628 Z M13.8528,8.1492 C12.6805008,8.19724532 11.6491528,7.38114405 11.4264,6.2292 L16.278,6.2292 C16.0547949,7.38019791 15.0242764,8.19553636 13.8528,8.148 L13.8528,8.1492 Z" id="Path_1794" fill="#1A171B" fill-rule="nonzero"></path>
                        <path d="M11.4972,9.3924 L7.7076,13.182 C7.60156133,13.2880387 7.60156133,13.4599613 7.7076,13.566 C7.81363867,13.6720387 7.98556133,13.6720387 8.0916,13.566 L11.8812,9.7764 C11.949795,9.70780501 11.9765844,9.60782563 11.9514769,9.51412312 C11.9263694,9.42042062 11.8531794,9.34723063 11.7594769,9.32212312 C11.6657744,9.29701561 11.565795,9.32380501 11.4972,9.3924 L11.4972,9.3924 Z" id="Path_1795" fill="#000000" fill-rule="nonzero"></path>
                        <path d="M8.0688,10.5732 C8.01792134,10.5221977 7.9488408,10.4935344 7.8768,10.4935344 C7.8047592,10.4935344 7.73567866,10.5221977 7.6848,10.5732 L5.076,13.182 C5.00740499,13.2508093 4.98072994,13.3509868 5.00602309,13.4447965 C5.03131623,13.5386062 5.10473495,13.6117962 5.1986231,13.6367965 C5.29251126,13.6617969 5.39260501,13.6348094 5.4612,13.566 L8.07,10.9572 C8.12084366,10.9061621 8.14929124,10.8369919 8.14906744,10.764951 C8.14884099,10.6929101 8.11996165,10.6239191 8.0688,10.5732 L8.0688,10.5732 Z" id="Path_1796" fill="#000000" fill-rule="nonzero"></path>
                    </g>
                </g>
            </g>
        </g>
    </g>
</svg>