<?xml version="1.0" encoding="UTF-8"?>
<svg width="20px" height="20px" viewBox="0 0 20 20" version="1.1" xmlns="http://www.w3.org/2000/svg" xmlns:xlink="http://www.w3.org/1999/xlink">
    <!-- Generator: Sketch 64 (93537) - https://sketch.com -->
    <title>logout icon</title>
    <desc>Created with Sketch.</desc>
    <g id="Profile" stroke="none" stroke-width="1" fill="none" fill-rule="evenodd">
        <g id="Menu" transform="translate(-36.000000, -748.000000)">
            <g id="Logout" transform="translate(34.000000, 746.000000)">
                <g id="logout-icon">
                    <rect id="bound" x="4.4408921e-16" y="0" width="24" height="24"></rect>
                    <path d="M6.007,22 C3.797861,22 2.007,20.209139 2.007,18 L2.007,6 C2.007,3.790861 3.797861,2 6.007,2 L12.007,2 C14.216139,2 16.007,3.790861 16.007,6 L16.007,7 C16.007,7.55228475 15.5592847,8 15.007,8 C14.4547153,8 14.007,7.55228475 14.007,7 L14.007,6 C14.007,4.8954305 13.1115695,4 12.007,4 L6.007,4 C4.9024305,4 4.007,4.8954305 4.007,6 L4.007,18 C4.007,19.1045695 4.9024305,20 6.007,20 L12.007,20 C13.1115695,20 14.007,19.1045695 14.007,18 L14.007,17 C14.007,16.4477153 14.4547153,16 15.007,16 C15.5592847,16 16.007,16.4477153 16.007,17 L16.007,18 C16.007,20.209139 14.216139,22 12.007,22 L6.007,22 Z M17.294,15.707 C16.9036181,15.3165001 16.9036181,14.6834999 17.294,14.293 L18.586,13 L9,13 C8.44771525,13 8,12.5522847 8,12 C8,11.4477153 8.44771525,11 9,11 L18.586,11 L17.293,9.707 C17.0330434,9.45592553 16.9287874,9.08412211 17.0203028,8.73449268 C17.1118183,8.38486324 17.3848632,8.11181828 17.7344927,8.02030284 C18.0841221,7.9287874 18.4559255,8.03304342 18.707,8.293 L21.707,11.293 C21.894777,11.4805683 22.0002867,11.7350908 22.0002867,12.0005 C22.0002867,12.2659092 21.894777,12.5204317 21.707,12.708 L18.707,15.708 C18.5194317,15.895777 18.2649092,16.0012867 17.9995,16.0012867 C17.7340908,16.0012867 17.4795683,15.895777 17.292,15.708 L17.294,15.707 Z" id="Combined_Shape" fill="#FFFFFF" fill-rule="nonzero"></path>
                </g>
            </g>
        </g>
    </g>
</svg>