<?xml version="1.0" encoding="UTF-8"?>
<svg width="19px" height="20px" viewBox="0 0 19 20" version="1.1" xmlns="http://www.w3.org/2000/svg" xmlns:xlink="http://www.w3.org/1999/xlink">
    <!-- Generator: Sketch 64 (93537) - https://sketch.com -->
    <title>Path_14644</title>
    <desc>Created with Sketch.</desc>
    <g id="Food-Discover-(categories-with-listing)" stroke="none" stroke-width="1" fill="none" fill-rule="evenodd">
        <g id="Food-Categories-+search-filed" transform="translate(-249.000000, -917.000000)" fill="#000000" fill-rule="nonzero">
            <g id="Bottom-Menu" transform="translate(0.000000, 900.000000)">
                <g id="Notification-Icon" transform="translate(248.000000, 16.000000)">
                    <path d="M7.868,17.609 L3.746,17.609 C2.71129452,17.609 1.8725,16.7702055 1.8725,15.7355 C1.8725,14.7007945 2.71129452,13.862 3.746,13.862 L4.873,13.862 L4.873,10.116 C4.84510012,7.95592073 5.98150421,5.94787857 7.84767633,4.85970466 C9.71384845,3.77153075 12.0211515,3.77153075 13.8873237,4.85970466 C15.7534958,5.94787857 16.8898999,7.95592073 16.862,10.116 L16.862,13.863 L17.986,13.863 C19.0207055,13.863 19.8595,14.7017945 19.8595,15.7365 C19.8595,16.7712055 19.0207055,17.61 17.986,17.61 L13.862,17.61 C13.9069397,18.7101056 13.3456517,19.7464346 12.3997178,20.3098714 C11.4537839,20.8733082 10.2752161,20.8733082 9.3292822,20.3098714 C8.38334829,19.7464346 7.82206028,18.7101056 7.867,17.61 L7.868,17.609 Z M8.617,17.609 C8.617,18.8516407 9.62435931,19.859 10.867,19.859 C12.1096407,19.859 13.117,18.8516407 13.117,17.609 L8.617,17.609 Z M16.11,13.862 L16.11,10.116 C16.11,7.21899034 13.7615097,4.8705 10.8645,4.8705 C7.96749034,4.8705 5.619,7.21899034 5.619,10.116 L5.619,13.863 L16.11,13.862 Z M3.746,14.611 C3.34443346,14.611 2.97337067,14.8252332 2.77258739,15.173 C2.57180411,15.5207668 2.57180411,15.9492332 2.77258739,16.297 C2.97337067,16.6447668 3.34443346,16.859 3.746,16.859 L17.984,16.859 C18.3855665,16.859 18.7566293,16.6447668 18.9574126,16.297 C19.1581959,15.9492332 19.1581959,15.5207668 18.9574126,15.173 C18.7566293,14.8252332 18.3855665,14.611 17.984,14.611 L3.746,14.611 Z M12.738,2.996 C12.727697,3.19531718 12.5630833,3.35164154 12.3635,3.35164154 C12.1639167,3.35164154 11.999303,3.19531718 11.989,2.996 C11.989,2.37523194 11.4857681,1.872 10.865,1.872 C10.2442319,1.872 9.741,2.37523194 9.741,2.996 C9.730697,3.19531718 9.56608329,3.35164154 9.3665,3.35164154 C9.16691671,3.35164154 9.002303,3.19531718 8.992,2.996 C8.992,2.3266629 9.34908705,1.7081699 9.92874998,1.37350134 C10.5084129,1.03883278 11.2225871,1.03883278 11.80225,1.37350134 C12.381913,1.7081699 12.739,2.3266629 12.739,2.996 L12.738,2.996 Z M7.493,12.364 C7.482697,12.5633172 7.31808329,12.7196415 7.1185,12.7196415 C6.91891671,12.7196415 6.754303,12.5633172 6.744,12.364 L6.744,10.116 C6.744,7.84003455 8.58903455,5.995 10.865,5.995 C11.0643172,6.005303 11.2206415,6.16991671 11.2206415,6.3695 C11.2206415,6.56908329 11.0643172,6.733697 10.865,6.744 C9.00269582,6.744 7.493,8.25369582 7.493,10.116 L7.493,12.364 Z" id="Path_14644"></path>
                </g>
            </g>
        </g>
    </g>
</svg>