<?xml version="1.0" encoding="UTF-8"?>
<svg width="20px" height="20px" viewBox="0 0 20 20" version="1.1" xmlns="http://www.w3.org/2000/svg" xmlns:xlink="http://www.w3.org/1999/xlink">
    <!-- Generator: Sketch 64 (93537) - https://sketch.com -->
    <title>ic_promocodes</title>
    <desc>Created with Sketch.</desc>
    <g id="Profile" stroke="none" stroke-width="1" fill="none" fill-rule="evenodd">
        <g id="Menu" transform="translate(-35.000000, -350.000000)">
            <g id="Content" transform="translate(34.000000, 247.000000)">
                <g id="Promocodes" transform="translate(0.000000, 102.000000)">
                    <g id="ic_promocodes">
                        <polygon id="Path_14697" points="0 0 21.6 0 21.6 21.6 0 21.6"></polygon>
                        <path d="M2.314,8.963 C1.98310656,8.33642035 1.95949531,7.5922968 2.25,6.946 L3.969,3.469 C4.31961849,2.81004698 5.01501234,2.40841046 5.761,2.434 L9.631,2.684 C10.336058,2.75551387 10.9687815,3.14806071 11.346,3.748 L17.678,14.171 C18.0872407,14.8845282 17.8427275,15.7946357 17.131,16.207 L10.682,19.93 C9.9690316,20.3404245 9.05841823,20.0972367 8.645,19.386 L2.314,8.963 Z M2.96,8.591 L9.292,19.018 C9.49944166,19.3729774 9.95425034,19.4943787 10.311,19.29 L16.76,15.567 C17.115108,15.3602703 17.2373649,14.9060456 17.034,14.549 L10.701,4.118 C10.4482114,3.73400043 10.0393652,3.48057432 9.583,3.425 L5.713,3.17487162 C5.26720459,3.16853122 4.85373273,3.40693979 4.636,3.796 L2.917,7.273 C2.73549979,7.6969451 2.75087618,8.17947084 2.959,8.591 L2.96,8.591 Z M8.43,11.612 C8.33910025,11.4351656 8.40288806,11.2181152 8.575009,11.1185786 C8.74712993,11.019042 8.96707029,11.072014 9.075,11.239 L11.712,15.754 C11.7997755,15.9304648 11.7351161,16.1447636 11.5643866,16.2432308 C11.3936571,16.3416981 11.1757858,16.2903472 11.067,16.126 L8.43,11.612 Z M10.366,10.494 C10.2688455,10.3167981 10.330479,10.0944556 10.5049989,9.99256197 C10.6795188,9.89066836 10.9034412,9.9462888 11.01,10.118 L13.647,14.633 C13.7347755,14.8094648 13.6701161,15.0237636 13.4993866,15.1222308 C13.3286571,15.2206981 13.1107858,15.1693472 13.002,15.005 L10.366,10.494 Z M6.824,5.594 C6.93921815,5.52736996 7.08123082,5.52726941 7.19654321,5.59373625 C7.31185559,5.66020308 7.38294899,5.78313939 7.38304321,5.91623626 C7.38313744,6.04933313 7.31221816,6.17236997 7.197,6.239 C6.75177785,6.49610293 6.59923977,7.06542646 6.85627909,7.51068534 C7.11331841,7.95594422 7.68262014,8.10856363 8.12791573,7.85158793 C8.57321133,7.59461223 8.72591208,7.02533231 8.469,6.58 C8.40236997,6.46478185 8.40226943,6.32276918 8.46873626,6.20745681 C8.53520309,6.09214443 8.6581394,6.02105103 8.79123626,6.02095681 C8.92433313,6.02086258 9.04736997,6.09178185 9.114,6.207 C9.57639982,7.00871683 9.30143253,8.03348203 8.49980197,8.49603141 C7.69817141,8.95858078 6.67335494,8.68380466 6.21065603,7.8822604 C5.74795713,7.08071614 6.02254207,6.05584842 6.824,5.593 L6.824,5.594 Z M14.357,6.448 C14.1971136,6.31848923 14.1724892,6.08388644 14.302,5.924 C14.4315108,5.76411356 14.6661136,5.73948923 14.826,5.869 L19.979,10.041 C20.2094967,10.2274746 20.3564023,10.4979359 20.3873515,10.792798 C20.4183008,11.0876601 20.3307544,11.3827299 20.144,11.613 L18.954,13.084 C18.8726953,13.1949957 18.736889,13.2522193 18.6006667,13.2328813 C18.4644443,13.2135433 18.3499294,13.1207842 18.3027282,12.991546 C18.2555269,12.8623077 18.2833051,12.7175794 18.375,12.615 L19.564,11.147 C19.6932588,10.987039 19.6686554,10.7526361 19.509,10.623 L14.354,6.451 L14.357,6.448 Z M1.52,1.344 C1.60118586,1.15484247 1.82034247,1.06731414 2.0095,1.1485 C2.19865753,1.22968586 2.28618586,1.44884247 2.205,1.638 C1.83385895,2.22063997 1.76588952,2.94631919 2.02238063,3.5877452 C2.27887175,4.2291712 2.82845741,4.70790472 3.499,4.874 C3.68815753,4.95518586 3.77568586,5.17434247 3.6945,5.3635 C3.61331414,5.55265753 3.39415753,5.64018586 3.205,5.559 C2.35135577,5.31464671 1.65880933,4.68905935 1.3292096,3.86457101 C0.999609872,3.04008267 1.07005016,2.10948164 1.52,1.344 Z" id="Path_14698" fill="#FFFFFF" fill-rule="nonzero"></path>
                    </g>
                </g>
            </g>
        </g>
    </g>
</svg>