<?xml version="1.0" encoding="UTF-8"?>
<svg width="18px" height="18px" viewBox="0 0 18 18" version="1.1" xmlns="http://www.w3.org/2000/svg" xmlns:xlink="http://www.w3.org/1999/xlink">
    <!-- Generator: Sketch 64 (93537) - https://sketch.com -->
    <title>profile icon</title>
    <desc>Created with Sketch.</desc>
    <g id="Profile" stroke="none" stroke-width="1" fill="none" fill-rule="evenodd">
        <g id="Menu" transform="translate(-36.000000, -300.000000)" fill="#000000" fill-rule="nonzero">
            <g id="Content" transform="translate(34.000000, 247.000000)">
                <g id="Profile" transform="translate(2.000000, 51.000000)">
                    <g id="profile-icon" transform="translate(0.000000, 2.000000)">
                        <path d="M8.99776408,9.34565767 C7.65982375,9.34565767 6.5752088,8.26107607 6.5752088,6.92317687 C6.5752088,5.58527766 7.65982375,4.50069606 8.99776408,4.50069606 C10.3357044,4.50069606 11.4203194,5.58527766 11.4203194,6.92317687 C11.4203194,8.26107607 10.3357044,9.34565767 8.99776408,9.34565767 L8.99776408,9.34565767 Z M8.99776408,8.6535203 C9.95343576,8.6535203 10.7281607,7.87881916 10.7281607,6.92317687 C10.7281607,5.96753458 9.95343576,5.19283344 8.99776408,5.19283344 C8.04209241,5.19283344 7.26736745,5.96753458 7.26736745,6.92317687 C7.26736745,7.87881916 8.04209241,8.6535203 8.99776408,8.6535203 Z M15.4085375,14.2840578 C18.212673,10.8821111 17.8702312,5.88209621 14.6284669,2.89419657 C11.3867026,-0.0937030709 6.37524803,-0.0283174654 3.21254645,3.04314272 C0.0498448822,6.1146029 -0.162021829,11.12185 2.72992141,14.4494787 C2.81103072,14.5428257 2.83617724,14.6723519 2.79588852,14.7892659 C2.7555998,14.90618 2.65599666,14.9927199 2.53459862,15.016287 C2.41320059,15.039854 2.28845093,14.9968678 2.20734162,14.9035208 C-0.863926831,11.3702497 -0.713340076,6.07248467 2.55367114,2.71936544 C5.82068236,-0.633753793 11.1128924,-0.922240329 14.7250507,2.05588475 C18.337209,5.03400983 19.0628063,10.2840127 16.3938279,14.1301935 C13.7248495,17.9763743 8.55277012,19.134057 4.49873284,16.7927097 C4.39077313,16.7313305 4.32397897,16.6168123 4.32370596,16.4926272 C4.32343294,16.3684422 4.38972292,16.2536315 4.49741171,16.1917781 C4.60510051,16.1299248 4.73767625,16.1305127 4.84481217,16.1933188 C7.90271871,17.9588881 11.7425463,17.5989977 14.4190967,15.2959627 C14.7755207,14.9860978 15.1061905,14.6477996 15.4078454,14.2844039 L15.4085375,14.2840578 Z M6.2588923,9.55329889 C6.30909104,9.44029335 6.41576618,9.36265182 6.53873423,9.34962111 C6.66170227,9.3365904 6.78228144,9.39015018 6.85505074,9.490125 C6.92782003,9.59009982 6.94172406,9.72130113 6.8915253,9.83430666 L5.93980716,11.9757797 C5.89317294,12.0826278 5.90347133,12.2057743 5.96720454,12.3033933 C6.03093775,12.4010123 6.13953941,12.4599828 6.25612366,12.4602759 L11.7394045,12.4602759 C11.8565534,12.4602907 11.9657573,12.4010416 12.029607,12.3028251 C12.0934567,12.2046085 12.1032835,12.0807592 12.055721,11.9737033 L11.1040029,9.83223025 C11.0538041,9.71922472 11.0677081,9.58802341 11.1404774,9.48804859 C11.2132467,9.38807377 11.3338259,9.33451399 11.4567939,9.3475447 C11.579762,9.36057541 11.6864371,9.43821694 11.7366359,9.55122247 L12.688354,11.6926955 C12.8310414,12.0138633 12.8015611,12.3854113 12.610012,12.6800609 C12.4184629,12.9747105 12.0908512,13.1524578 11.7394045,13.1524132 L6.25612366,13.1524132 C5.90467698,13.1524578 5.57706525,12.9747105 5.38551617,12.6800609 C5.19396708,12.3854113 5.16448679,12.0138633 5.30717415,11.6926955 L6.2588923,9.55122247 L6.2588923,9.55329889 Z" id="Path_14576" fill="#FFFFFF"></path>
                    </g>
                </g>
            </g>
        </g>
    </g>
</svg>