<?xml version="1.0" encoding="UTF-8"?>
<svg width="18px" height="18px" viewBox="0 0 18 18" version="1.1" xmlns="http://www.w3.org/2000/svg" xmlns:xlink="http://www.w3.org/1999/xlink">
    <!-- Generator: Sketch 64 (93537) - https://sketch.com -->
    <title>Path_14578</title>
    <desc>Created with Sketch.</desc>
    <g id="Profile" stroke="none" stroke-width="1" fill="none" fill-rule="evenodd">
        <g id="Menu" transform="translate(-36.000000, -542.000000)" fill="#FFFFFF">
            <g id="Content" transform="translate(34.000000, 247.000000)">
                <g id="Settings" transform="translate(2.000000, 292.000000)">
                    <path d="M9,9.57692308 C8.35717561,9.57603697 7.74051343,9.83142231 7.28653846,10.2865385 C7.19962807,10.3765234 7.07092688,10.4126121 6.94990131,10.3809336 C6.82887574,10.3492552 6.73436018,10.2547396 6.70268175,10.1337141 C6.67100333,10.0126885 6.70709195,9.88398732 6.79707692,9.79707692 C7.8480215,8.74611947 9.49500422,8.58389513 10.7307975,9.40961369 C11.9665907,10.2353322 12.4470093,11.8190199 11.8782489,13.1921578 C11.3094885,14.5652957 9.84995639,15.3454463 8.39224313,15.0555013 C6.93452988,14.7655562 5.88461538,13.4862692 5.88461538,12 C5.88461538,11.8088245 6.03959374,11.6538462 6.23076923,11.6538462 C6.42194472,11.6538462 6.57692308,11.8088245 6.57692308,12 C6.57692308,13.3382284 7.66177157,14.4230769 9,14.4230769 C10.3382284,14.4230769 11.4230769,13.3382284 11.4230769,12 C11.4230769,10.6617716 10.3382284,9.57692308 9,9.57692308 L9,9.57692308 Z M6.92307692,4.03846154 C6.92178872,3.76379068 7.02988061,3.49990275 7.2234864,3.30506298 C7.41709219,3.1102232 7.68028804,3.00045692 7.95496154,3 L10.0450385,3 C10.3196265,3.00073307 10.5826614,3.11058762 10.7762074,3.30536722 C10.9697534,3.50014681 11.0779346,3.76387435 11.0769231,4.03846154 L11.0769231,5.99838462 C11.3273798,6.06675192 11.573578,6.14985828 11.8142308,6.24726923 L13.1604231,4.90384615 C13.3536399,4.70840514 13.6167362,4.59795944 13.8915613,4.59692016 C14.1663865,4.59588088 14.4303105,4.70433359 14.625,4.89830769 L16.1030769,6.37638462 C16.2967097,6.57125392 16.4049273,6.8351092 16.4038884,7.1098211 C16.4028496,7.38453301 16.2926396,7.64756228 16.0975385,7.84096154 L14.9822308,8.95384615 C15.1685814,9.2631546 15.3290506,9.58733485 15.462,9.92307692 L16.9615385,9.92307692 C17.2362093,9.92178872 17.5000972,10.0298806 17.694937,10.2234864 C17.8897768,10.4170922 17.9995431,10.680288 18,10.9549615 L18,13.0450385 C17.9992669,13.3196265 17.8894124,13.5826614 17.6946328,13.7762074 C17.4998532,13.9697534 17.2361256,14.0779346 16.9615385,14.0769231 L15.6928846,14.0769231 C15.5787853,14.4961267 15.4231693,14.9029083 15.2283462,15.2912308 L16.0961538,16.1604231 C16.2915949,16.3536399 16.4020406,16.6167362 16.4030798,16.8915613 C16.4041191,17.1663865 16.2956664,17.4303105 16.1016923,17.625 L14.6236154,19.1030769 C14.4287461,19.2967097 14.1648908,19.4049273 13.8901789,19.4038884 C13.615467,19.4028496 13.3524377,19.2926396 13.1590385,19.0975385 L12.2898462,18.2283462 C11.9019657,18.4230816 11.4956522,18.578696 11.0769231,18.6928846 L11.0769231,19.9615385 C11.0782113,20.2362093 10.9701194,20.5000972 10.7765136,20.694937 C10.5829078,20.8897768 10.319712,20.9995431 10.0450385,21 L7.95496154,21 C7.68037347,20.9992669 7.41733857,20.8894124 7.22379257,20.6946328 C7.03024658,20.4998532 6.92206541,20.2361256 6.92307692,19.9615385 L6.92307692,18.462 C6.58733485,18.3290506 6.2631546,18.1685814 5.95384615,17.9822308 L4.83957692,19.0961538 C4.64636006,19.2915949 4.38326382,19.4020406 4.10843866,19.4030798 C3.83361351,19.4041191 3.56968948,19.2956664 3.375,19.1016923 L1.89692308,17.6236154 C1.70329026,17.4287461 1.5950727,17.1648908 1.59611156,16.8901789 C1.59715041,16.615467 1.70736044,16.3524377 1.90246154,16.1590385 L3.24830769,14.8131923 C3.15080521,14.572927 3.06769658,14.3270688 2.99942308,14.0769231 L1.03846154,14.0769231 C0.763790679,14.0782113 0.499902753,13.9701194 0.305062977,13.7765136 C0.110223202,13.5829078 0.000456915365,13.319712 0,13.0450385 L0,10.9549615 C0.000733069141,10.6803735 0.110587616,10.4173386 0.305367215,10.2237926 C0.500146815,10.0302466 0.763874355,9.92206541 1.03846154,9.92307692 L3.22926923,9.92307692 C3.2985,9.74584615 3.37638462,9.57184615 3.46292308,9.40107692 L1.90384615,7.83957692 C1.70840514,7.64636006 1.59795944,7.38326382 1.59692016,7.10843866 C1.59588088,6.83361351 1.70433359,6.56968948 1.89830769,6.375 L3.37638462,4.89692308 C3.57125392,4.70329026 3.8351092,4.5950727 4.1098211,4.59611156 C4.38453301,4.59715041 4.64756228,4.70736044 4.84096154,4.90246154 L6.40246154,6.46396154 C6.57323077,6.37857692 6.74723077,6.30069231 6.92446154,6.23030769 L6.92446154,4.03846154 L6.92307692,4.03846154 Z M6.28026923,7.32103846 L4.35011538,5.39192308 C4.28654022,5.32697001 4.19976626,5.28993263 4.10888306,5.28895889 C4.01799987,5.28798514 3.93045226,5.32315478 3.8655,5.38673077 L2.38742308,6.86480769 C2.32354884,6.92962767 2.28820568,7.017272 2.28924564,7.10826906 C2.29028561,7.19926613 2.32762258,7.28607982 2.39296154,7.34942308 L4.32311538,9.27957692 C4.06695501,9.69783005 3.86436799,10.1466149 3.72011538,10.6153846 L1.03846154,10.6153846 C0.947513106,10.6144622 0.859928515,10.6497326 0.795001101,10.7134264 C0.730073688,10.7771202 0.693129861,10.8640121 0.692307692,10.9549615 L0.692307692,13.0450385 C0.692853198,13.1360752 0.72970946,13.2231294 0.794697735,13.2868829 C0.859686009,13.3506364 0.94743109,13.3858161 1.03846154,13.3846154 L3.55153846,13.3846154 C3.64930388,13.9341852 3.82532391,14.4669081 4.07423077,14.9665385 L2.39192308,16.6498846 C2.32697001,16.7134598 2.28993263,16.8002337 2.28895889,16.8911169 C2.28798514,16.9820001 2.32315478,17.0695477 2.38673077,17.1345 L3.86480769,18.6125769 C3.92962767,18.6764512 4.017272,18.7117943 4.10826906,18.7107544 C4.19926613,18.7097144 4.28607982,18.6723774 4.34942308,18.6070385 L5.86557692,17.0908846 C6.39530161,17.4806937 6.98682361,17.7786195 7.61538462,17.9721923 L7.61538462,19.9615385 C7.61446218,20.0524869 7.64973258,20.1400715 7.71342638,20.2049989 C7.77712017,20.2699263 7.86401214,20.3068701 7.95496154,20.3076923 L10.0450385,20.3076923 C10.1360752,20.3071468 10.2231294,20.2702905 10.2868829,20.2053023 C10.3506364,20.140314 10.3858161,20.0525689 10.3846154,19.9615385 L10.3846154,18.1407692 C11.102489,18.0129185 11.7901184,17.7519316 12.4120385,17.3712692 L13.6498846,18.6091154 C13.7134598,18.6740685 13.8002337,18.7111058 13.8911169,18.7120796 C13.9820001,18.7130533 14.0695477,18.6778837 14.1345,18.6143077 L15.6125769,17.1362308 C15.6764512,17.0714108 15.7117943,16.9837665 15.7107544,16.8927694 C15.7097144,16.8017723 15.6723774,16.7149586 15.6070385,16.6516154 L14.3691923,15.4137692 C14.7502981,14.7913728 15.0115276,14.1031357 15.1393846,13.3846154 L16.9615385,13.3846154 C17.0524869,13.3855378 17.1400715,13.3502674 17.2049989,13.2865736 C17.2699263,13.2228798 17.3068701,13.1359879 17.3076923,13.0450385 L17.3076923,10.9549615 C17.3072397,10.8638956 17.2704128,10.7767869 17.2054041,10.7130133 C17.1403953,10.6492397 17.0525963,10.6140904 16.9615385,10.6153846 L14.9721923,10.6153846 C14.778867,9.98713407 14.4812969,9.39585538 14.0919231,8.86626923 L15.6080769,7.35011538 C15.67303,7.28654022 15.7100674,7.19976626 15.7110411,7.10888306 C15.7120149,7.01799987 15.6768452,6.93045226 15.6132692,6.8655 L14.1351923,5.38742308 C14.0703723,5.32354884 13.982728,5.28820568 13.8917309,5.28924564 C13.8007339,5.29028561 13.7139202,5.32762258 13.6505769,5.39296154 L11.9668846,7.07665385 C11.4672012,6.82735678 10.9343574,6.65098561 10.3846154,6.55292308 L10.3846154,4.03846154 C10.3855378,3.94751311 10.3502674,3.85992852 10.2865736,3.7950011 C10.2228798,3.73007369 10.1359879,3.69312986 10.0450385,3.69230769 L7.95496154,3.69230769 C7.86389561,3.6927603 7.77678692,3.72958715 7.71301333,3.79459591 C7.64923975,3.85960466 7.61409045,3.94740368 7.61538462,4.03846154 L7.61538462,6.71907692 C7.14688748,6.86316489 6.6983396,7.06551732 6.28026923,7.32138462 L6.28026923,7.32103846 Z M9,12.6923077 C8.61764902,12.6923077 8.30769231,12.382351 8.30769231,12 C8.30769231,11.617649 8.61764902,11.3076923 9,11.3076923 C9.38235098,11.3076923 9.69230769,11.617649 9.69230769,12 C9.69230769,12.382351 9.38235098,12.6923077 9,12.6923077 Z" id="Path_14578"></path>
                </g>
            </g>
        </g>
    </g>
</svg>