<?xml version="1.0" encoding="UTF-8"?>
<svg width="19px" height="19px" viewBox="0 0 19 19" version="1.1" xmlns="http://www.w3.org/2000/svg" xmlns:xlink="http://www.w3.org/1999/xlink">
    <!-- Generator: Sketch 64 (93537) - https://sketch.com -->
    <title>ic_earn</title>
    <desc>Created with Sketch.</desc>
    <g id="Profile" stroke="none" stroke-width="1" fill="none" fill-rule="evenodd">
        <g id="Menu" transform="translate(-36.000000, -492.000000)">
            <g id="Content" transform="translate(34.000000, 247.000000)">
                <g id="Share-&amp;-Earn" transform="translate(1.000000, 244.000000)">
                    <g id="ic_earn">
                        <polygon id="Path_14559" points="0 0 20.4 0 20.4 20.4 0 20.4"></polygon>
                        <path d="M2.11,6.332 C1.91559577,6.332 1.758,6.48959577 1.758,6.684 L1.758,8.091 C1.758,8.28540423 1.91559577,8.443 2.11,8.443 L18.292,8.443 C18.4864042,8.443 18.644,8.28540423 18.644,8.091 L18.644,6.684 C18.644,6.48959577 18.4864042,6.332 18.292,6.332 L2.11,6.332 Z M9.849,9.146 L3.517,9.146 L3.517,13.719 L9.849,13.719 L9.849,9.146 Z M10.549,9.146 L10.549,13.719 L16.885,13.719 L16.885,9.146 L10.549,9.146 Z M9.849,18.646 L9.849,14.423 L3.517,14.423 L3.517,18.293 C3.517,18.4874042 3.67459577,18.645 3.869,18.645 L9.849,18.646 Z M10.549,18.646 L16.529,18.646 C16.7234042,18.646 16.881,18.4884042 16.881,18.294 L16.881,14.424 L10.555,14.424 L10.549,18.646 Z M17.585,9.146 L17.585,18.292 C17.585,18.8746604 17.1126604,19.347 16.53,19.347 L3.869,19.347 C3.28633959,19.347 2.814,18.8746604 2.814,18.292 L2.814,9.146 L2.114,9.146 C1.83350419,9.1470635 1.56413206,9.0363817 1.36541522,8.83841544 C1.16669837,8.64044917 1.055,8.37149782 1.055,8.091 L1.055,6.684 C1.055,6.10133959 1.52733959,5.629 2.11,5.629 L18.292,5.629 C18.8746604,5.629 19.347,6.10133959 19.347,6.684 L19.347,8.091 C19.347,8.67366041 18.8746604,9.146 18.292,9.146 L17.585,9.146 Z M11.51,3.277 C11.4184552,3.37796624 11.2768526,3.41701383 11.1464974,3.37723762 C11.0161421,3.33746141 10.9204623,3.22601024 10.9008813,3.09113539 C10.8813003,2.95626054 10.9413373,2.82220254 11.055,2.747 L11.886,2.02 C12.0770971,1.85280034 12.3220856,1.76013076 12.576,1.759 L15.655,1.759 C16.5292668,1.759 17.238,2.46773324 17.238,3.342 C17.238,4.21626676 16.5292668,4.925 15.655,4.925 L13.015,4.925 C12.8361219,4.90584983 12.70047,4.75490026 12.70047,4.575 C12.70047,4.39509974 12.8361219,4.24415017 13.015,4.225 L15.655,4.225 C16.1407344,4.225 16.5345,3.83123444 16.5345,3.3455 C16.5345,2.85976556 16.1407344,2.466 15.655,2.466 L12.576,2.466 C12.4910228,2.46616611 12.4089743,2.4970675 12.345,2.553 L11.51,3.277 Z M7.735,4.222 C7.86897708,4.2076568 7.99938651,4.27105403 8.07086278,4.3852763 C8.14233906,4.49949857 8.14233906,4.64450143 8.07086278,4.7587237 C7.99938651,4.87294597 7.86897708,4.9363432 7.735,4.922 L5.1,4.922 C4.22573324,4.922 3.517,4.21326676 3.517,3.339 C3.517,2.46473324 4.22573324,1.75599995 5.1,1.75599995 L7.475,1.75599995 C7.73063693,1.75592399 7.97760595,1.84867063 8.17,2.017 L10.786,4.305 C10.8806754,4.38788562 10.9239401,4.5149838 10.8994967,4.63841789 C10.8750534,4.76185199 10.7866155,4.86286942 10.6674967,4.90341789 C10.548378,4.94396637 10.4166754,4.91788562 10.322,4.835 L7.706,2.549 C7.64202573,2.4930675 7.5599772,2.46216611 7.475,2.462 L5.1,2.462 C4.61426556,2.462 4.2205,2.85576556 4.2205,3.3415 C4.2205,3.82723444 4.61426556,4.221 5.1,4.221 L7.735,4.222 Z" id="Path_14560" fill="#FFFFFF" fill-rule="nonzero"></path>
                    </g>
                </g>
            </g>
        </g>
    </g>
</svg>