<?xml version="1.0" encoding="UTF-8"?>
<svg width="18px" height="17px" viewBox="0 0 18 17" version="1.1" xmlns="http://www.w3.org/2000/svg" xmlns:xlink="http://www.w3.org/1999/xlink">
    <!-- Generator: Sketch 64 (93537) - https://sketch.com -->
    <title>my-wallet</title>
    <desc>Created with Sketch.</desc>
    <defs>
        <path d="M4.47637026e-05,14.884 C4.47637026e-05,14.6940749 0.153126848,14.5396467 0.343044764,14.538 L17.6560448,14.538 C17.8471353,14.538 18.0020448,14.6929095 18.0020448,14.884 C18.0020448,15.0750905 17.8471353,15.23 17.6560448,15.23 L0.343044764,15.23 C0.153581172,15.2272806 0.00111423152,15.0734801 4.47637026e-05,14.884 L4.47637026e-05,14.884 Z M4.47637026e-05,16.269 C4.47637026e-05,16.0790749 0.153126848,15.9246467 0.343044764,15.923 L17.6560448,15.923 C17.8471353,15.923 18.0020448,16.0779095 18.0020448,16.269 C18.0020448,16.4600905 17.8471353,16.615 17.6560448,16.615 L0.343044764,16.615 C0.153581172,16.6122806 0.00111423152,16.4584801 4.47637026e-05,16.269 L4.47637026e-05,16.269 Z M4.47637026e-05,13.5 C4.47637026e-05,13.3100749 0.153126848,13.1556467 0.343044764,13.154 L17.6560448,13.154 C17.8471353,13.154 18.0020448,13.3089095 18.0020448,13.5 C18.0020448,13.6910905 17.8471353,13.846 17.6560448,13.846 L0.343044764,13.846 C0.153581172,13.8432806 0.00111423152,13.6894801 4.47637026e-05,13.5 L4.47637026e-05,13.5 Z M2.21408523e-05,1.39 C-0.00183366751,1.02262969 0.14200795,0.66949852 0.400044764,0.408 C0.659684396,0.147427993 1.0121996,0.000666561375 1.38004476,0 L16.6100448,0 C16.9778679,0.000776279538 17.3303428,0.147520935 17.5900448,0.408 C17.8481748,0.669437084 17.9920328,1.02260852 17.9900651,1.39 L17.9900651,9.69 C17.9919232,10.0573703 17.8480816,10.4105015 17.5900448,10.672 C17.3304051,10.932572 16.9778899,11.0793334 16.6100448,11.08 L1.38004476,11.08 C1.0121996,11.0793334 0.659684396,10.932572 0.400044764,10.672 C0.141821421,10.4106245 -0.00205304282,10.0574127 2.21408523e-05,9.69 L2.21408523e-05,1.39 Z M0.692044764,1.39 L0.692044764,9.69 C0.692044764,10.0738821 1.00118189,10.3861612 1.38504476,10.39 L16.6150448,10.39 C16.7989673,10.3886949 16.9749866,10.3150542 17.1050448,10.185 C17.2337528,10.0536396 17.3055962,9.87690486 17.3050479,9.693 L17.3050479,1.393 C17.3055962,1.20909514 17.2337528,1.03236038 17.1050448,0.901 C16.9747407,0.770703314 16.7983144,0.69704264 16.6140448,0.696 L1.38404476,0.696 C1.19977514,0.69704264 1.02334885,0.770703314 0.893044764,0.901 C0.764393198,1.03084892 0.692044764,1.20621063 0.692044764,1.389 L0.692044764,1.39 Z M2.07704476,2.424 C2.07867462,2.23358867 2.23263344,2.07962986 2.42304476,2.078 L3.94604476,2.078 C4.1362328,2.08016144 4.28988333,2.23381197 4.29204476,2.424 C4.29041491,2.61441133 4.13645609,2.76837014 3.94604476,2.77 L2.42304476,2.77 C2.2324718,2.76782878 2.07866598,2.61357844 2.07704476,2.423 L2.07704476,2.424 Z M13.7070448,2.424 C13.7086746,2.23358867 13.8626334,2.07962986 14.0530448,2.078 L15.5760448,2.078 C15.7662328,2.08016144 15.9198833,2.23381197 15.9220448,2.424 C15.9204149,2.61441133 15.7664561,2.76837014 15.5760448,2.77 L14.0530448,2.77 C13.8624718,2.76782878 13.708666,2.61357844 13.7070448,2.423 L13.7070448,2.424 Z M13.7070448,8.655 C13.7086746,8.46458867 13.8626334,8.31062986 14.0530448,8.309 L15.5760448,8.309 C15.7662328,8.31116144 15.9198833,8.46481197 15.9220448,8.655 C15.9204149,8.84541133 15.7664561,8.99937014 15.5760448,9.001 L14.0530448,9.001 C13.8624718,8.99882878 13.708666,8.84457844 13.7070448,8.654 L13.7070448,8.655 Z M2.07704476,8.655 C2.07867462,8.46458867 2.23263344,8.31062986 2.42304476,8.309 L3.94604476,8.309 C4.1362328,8.31116144 4.28988333,8.46481197 4.29204476,8.655 C4.29041491,8.84541133 4.13645609,8.99937014 3.94604476,9.001 L2.42304476,9.001 C2.2324718,8.99882878 2.07866598,8.84457844 2.07704476,8.654 L2.07704476,8.655 Z M10.8900448,4.678 C10.8479337,4.5867229 10.7994819,4.49850709 10.7450448,4.414 C10.5826795,4.16265416 10.368164,3.94916175 10.1160448,3.788 C9.78230496,3.57621964 9.39530785,3.46351887 9.00004476,3.463 C8.84870971,3.46293014 8.69781813,3.47936055 8.55004476,3.512 C8.30970101,3.56494593 8.08076351,3.66044944 7.87404476,3.794 C7.62215423,3.95611081 7.4085479,4.17108203 7.24804476,4.424 C7.08679561,4.6761666 6.98237775,4.96041522 6.94204476,5.257 C6.8868117,5.6527806 6.94760266,6.05608516 7.11704476,6.418 C7.28461483,6.77589259 7.55021782,7.07894353 7.88304476,7.292 C8.22166206,7.50689515 8.6150034,7.61972475 9.01604476,7.617 C9.313724,7.61463615 9.60739512,7.54812527 9.87704476,7.422 C10.0491514,7.34690506 10.2497409,7.42279179 10.3290448,7.593 C10.4077124,7.76326188 10.33685,7.96521983 10.1690448,8.049 C9.68681146,8.2748092 9.14948893,8.35608488 8.62204476,8.283 C8.22651138,8.22915519 7.84741866,8.08993842 7.51104476,7.875 C7.17422678,7.66110754 6.88794664,7.37653348 6.67204476,7.041 C6.49375249,6.76586162 6.36607786,6.46106806 6.29504476,6.141 C6.22363921,5.82065205 6.21009268,5.49011671 6.25504476,5.165 C6.30885841,4.76945887 6.44807757,4.39035963 6.66304476,4.054 C6.87688703,3.71714192 7.16147089,3.43085193 7.49704476,3.215 C7.77221332,3.03676487 8.07699626,2.90909467 8.39704476,2.838 C8.71778104,2.76685047 9.04865775,2.7536425 9.37404476,2.799 C9.76957041,2.85287595 10.1486566,2.99209033 10.4850448,3.207 C10.8218027,3.4209676 11.1080681,3.705527 11.3240448,4.041 C11.6128523,4.48795733 11.7663429,5.00885286 11.7660452,5.541 C11.7660452,5.73209052 11.6111353,5.887 11.4200448,5.887 C11.2289542,5.887 11.0740448,5.73209052 11.0740448,5.541 C11.0745213,5.24355212 11.010733,4.94951189 10.8870448,4.679 L10.8900448,4.678 Z" id="path-1"></path>
    </defs>
    <g id="Profile" stroke="none" stroke-width="1" fill="none" fill-rule="evenodd">
        <g id="Menu" transform="translate(-46.000000, -447.000000)" fill="#FFFFFF">
            <g id="Content" transform="translate(34.000000, 247.000000)">
                <g id="Payment-Methods" transform="translate(11.999955, 196.000000)">
                    <g id="my-wallet" transform="translate(0.000000, 4.000000)">
                        <mask id="mask-2" fill="white">
                            <use xlink:href="#path-1"></use>
                        </mask>
                        <use id="Path_25762" fill="#000000" xlink:href="#path-1"></use>
                    </g>
                </g>
            </g>
        </g>
    </g>
</svg>