<?xml version="1.0" encoding="UTF-8"?>
<svg width="63px" height="54px" viewBox="0 0 63 54" version="1.1" xmlns="http://www.w3.org/2000/svg" xmlns:xlink="http://www.w3.org/1999/xlink">
    <!-- Generator: Sketch 64 (93537) - https://sketch.com -->
    <title>Le Casa logo</title>
    <desc>Created with Sketch.</desc>
    <g id="Restaurant" stroke="none" stroke-width="1" fill="none" fill-rule="evenodd">
        <g id="single-page-of-restaurant" transform="translate(-156.000000, -82.000000)" fill-rule="nonzero">
            <g id="Top-Information" transform="translate(36.000000, 81.000000)">
                <g id="Le-Casa-logo" transform="translate(120.000000, 0.000000)">
                    <path d="M19.81,46.298 C19.5136039,46.1236866 19.2007606,45.9789882 18.876,45.866 C18.4661214,45.7330907 18.0435041,45.643272 17.615,45.598 C16.7704595,45.9513081 16.0821465,46.5980666 15.677,47.419 C16.5004554,48.6280522 17.9074323,49.3046521 19.366,49.193 C20.2268788,49.0803112 21.0992564,49.0880522 21.958,49.216 C21.7498003,48.516402 21.4104366,47.8627876 20.958,47.29 C20.6354576,46.8955519 20.2470544,46.5599282 19.81,46.298 Z M13.097,25.647 L13.074,25.647 C12.5183636,25.6842994 12.0047187,25.9558441 11.661,26.394 C10.9682452,27.1283588 10.9284298,28.2628841 11.568,29.044 C11.7367426,29.2544384 11.9424394,29.4323475 12.175,29.569 C12.866926,29.6074084 13.5422906,29.3483246 14.031,28.857 C14.895,28.028 14.416,26.592 14.148,25.957 C13.8295928,25.7655995 13.4681923,25.6572825 13.097,25.642 L13.097,25.647 Z M14.335,28.005 C14.008,27.9 13.88,28.32 13.261,28.215 C12.642,28.11 13.191,27.34 12.661,27.48 C12.131,27.62 12.579,28.215 12.579,28.215 C12.3228321,28.1357859 12.1596924,27.8850275 12.1910787,27.6187349 C12.2224649,27.3524422 12.4394348,27.146485 12.707,27.129 C13.505,27.023 14.335,28.003 14.335,28.003 L14.335,28.005 Z M35.499,28.18 C35.345445,28.0637637 35.254856,27.8825858 35.254,27.69 C35.2532603,27.5636111 35.2944025,27.4405362 35.371,27.34 C35.196,26.231 34.962,25.052 34.682,23.826 C33.7808002,23.4224732 33.2264628,22.500174 33.293,21.515 C32.3882827,20.8015113 31.8318396,19.7352075 31.764,18.585 C29.8241018,18.2650045 27.8561747,18.1477064 25.892,18.235 C23.5969447,18.308722 21.3295175,18.7583563 19.18,19.566 C19.215,20.442 19.169,22.625 17.814,23.71 C17.8568221,24.7114552 17.3689252,25.6614102 16.53,26.21 C16.53,26.21 15.619,32.432 16.075,34.195 C16.449,35.619 19.402,39.67 20.523,41.164 C22.2224459,42.2691052 24.1498923,42.9754025 26.161,43.23 C30.0100134,41.8418321 33.3093449,39.250477 35.57,35.84 C35.9139325,35.2893716 36.0733198,34.6434152 36.025,33.996 C35.9591264,32.0483631 35.7838501,30.1059673 35.5,28.178 L35.499,28.18 Z M30.433,22.518 C30.9,22.518 31.274,23.16 31.274,23.954 C31.274,24.748 30.9,25.378 30.433,25.378 C29.966,25.378 29.581,24.748 29.581,23.954 C29.581,23.16 29.966,22.517 30.433,22.517 L30.433,22.518 Z M21.164,22.518 C21.631,22.518 22.005,23.16 22.005,23.954 C22.005,24.748 21.631,25.378 21.164,25.378 C20.697,25.378 20.312,24.748 20.312,23.954 C20.312,23.16 20.697,22.517 21.164,22.517 L21.164,22.518 Z M24.164,39.457 C24.164,39.457 26.764,40.157 27.993,39.235 C27.993,39.233 26.674,40.833 24.164,39.455 L24.164,39.457 Z M32.546,34.974 C31.2745002,35.0689023 30.0225385,34.6192285 29.102,33.737 L30.433,35.71 C29.9484927,35.8212501 29.4446279,35.8171397 28.962,35.698 C28.8188077,36.8691466 27.9773789,37.8353049 26.837,38.138 C26.5877338,38.1928473 26.3332288,38.220371 26.078,38.22 C25.4928494,38.2302727 24.924016,38.0269148 24.478,37.648 C23.945744,37.1460889 23.5688071,36.5018947 23.392,35.792 C23.1059281,35.7942131 22.8203988,35.7667326 22.54,35.71 L23.182,34.858 L23.112,34.344 C22.2152195,34.8403339 21.1913909,35.0595766 20.17,34.974 C18.9835221,34.9763609 17.8729937,34.3905712 17.205,33.41 C17.205,33.41 18.267,34.052 19.645,31.846 C20.6197729,30.5704757 22.0559475,29.7281593 23.645,29.5 L23.245,29.173 C22.8500725,28.6462192 22.5715894,28.0415324 22.428,27.399 L23.887,28.473 C25.0617871,29.4650686 26.6750415,29.7586299 28.124,29.244 C28.568,29.044 28.789,28.765 28.778,28.415 C28.6042019,27.2492391 28.005477,26.1889154 27.097,25.438 L26.922,25.286 L26.922,21.786 L27.879,24.273 L27.879,24.857 C28.9214115,25.7598845 29.5843171,27.0231911 29.735,28.394 C29.7494889,28.7939606 29.6167743,29.1853441 29.362,29.494 C30.8576914,29.7304191 32.1843643,30.5865479 33.016,31.852 C34.242,34.058 35.187,33.416 35.187,33.416 C34.634251,34.3558868 33.6360004,34.9444048 32.546,34.973 L32.546,34.974 Z M37.858,24.643 C37.2347936,24.1962529 36.3702751,24.3196926 35.897,24.923 C35.979,25.332 36.06,25.729 36.131,26.123 C36.4547055,25.8064498 36.8923582,25.6337681 37.345,25.644 C37.5623794,25.6518787 37.7551171,25.7860196 37.8380144,25.9871263 C37.9209117,26.188233 37.8786849,26.4192276 37.73,26.578 L38.396,26.496 C38.419,26.379 38.466,26.216 38.524,26.006 C38.5130061,25.4753272 38.2695046,24.9762588 37.858,24.641 L37.858,24.643 Z M50.058,29.826 L48.984,29.326 L48.784,29.326 C46.216,29.326 43.776,29.256 41.675,29.126 C41.6796824,29.2928994 41.7617304,29.4481253 41.897,29.546 C42.3173321,29.7347643 42.7991718,29.7303806 43.216,29.534 C44.173,29.102 45.259,30.059 45.376,30.176 L45.576,30.351 L45.529,30.608 C45.4663153,31.0858488 45.7087655,31.5519763 46.136,31.775 C46.8515763,32.0784051 47.5999003,32.2978688 48.366,32.429 C48.678069,32.4936691 48.9935856,32.5404123 49.311,32.569 C49.8551416,31.7611058 50.1173759,30.7961821 50.057,29.824 L50.058,29.826 Z M37.405,25.998 C36.868,25.858 37.428,26.628 36.798,26.733 C36.6049409,26.7758129 36.4030378,26.7511044 36.226,26.663 L36.261,26.863 L36.661,26.77 C36.918,26.712 37.221,26.665 37.561,26.618 C37.666,26.431 37.783,26.093 37.409,25.999 L37.405,25.998 Z" id="Path_26435" fill="#FBA157"></path>
                    <path d="M19.39,51.666 C19.0916569,51.7091932 18.7912366,51.7365648 18.49,51.748 C18.0893866,51.7630529 17.6882088,51.7473401 17.29,51.701 C17.2528048,52.2334999 17.2451264,52.767651 17.267,53.301 C18.2229653,53.2376931 19.1599739,53.0043722 20.034,52.612 C20.2861143,52.4977325 20.5315121,52.3691908 20.769,52.227 L21.061,52.04 C20.5426972,51.7813143 19.9691248,51.6529385 19.39,51.666 Z M12.514,33.509 C12.506,33.0656667 12.506,32.6323333 12.514,32.209 C10.8789337,31.9585164 9.5131015,30.8311803 8.95717689,29.2732548 C8.40125229,27.7153294 8.74486741,25.9780001 9.852,24.749 C10.6504313,23.8029212 11.8145113,23.2423439 13.052,23.208 L13.099,23.208 L13.683,23.243 C13.765,22.753 13.87,22.227 13.975,21.714 C12.6007677,21.2704707 11.2898406,20.6506375 10.075,19.87 C8.38420881,18.7949189 6.97201648,17.3347511 5.954,15.609 C3.66446962,19.2148512 2.44587885,23.3966913 2.43989958,27.668 C2.42806406,31.6319586 3.48034198,35.5264574 5.487,38.945 C6.29353219,37.8945671 7.27445225,36.9904294 8.387,36.272 C9.22323531,35.0036542 10.5448376,34.1356068 12.041,33.872 C12.1870895,33.7366185 12.3454361,33.6150967 12.514,33.509 L12.514,33.509 Z M25.098,36.918 C25.5229532,37.2645026 26.0953906,37.3700906 26.616,37.198 C27.240571,37.0182249 27.7321656,36.5352811 27.923,35.914 C27.5309485,35.3709925 26.9672472,34.9760493 26.323,34.793 C26.4282592,35.2517507 26.4596538,35.7243572 26.416,36.193 C26.3197585,35.7041516 26.0703826,35.2586373 25.704,34.921 C25.3166291,35.2689022 24.8527777,35.5206975 24.35,35.656 C24.4814578,36.1373719 24.7397896,36.574602 25.098,36.922 L25.098,36.918 Z M37.098,21.894 C37.6501136,21.8941017 38.1942147,22.0260985 38.685,22.279 L38.943,21.929 C40.4945213,19.9307262 42.6879028,18.5288694 45.153,17.96 C44.4528083,16.5067588 43.5996521,15.1323224 42.608,13.86 C42.6719128,14.9494586 42.372231,16.0292979 41.756,16.93 C40.4293422,18.7135261 38.4025899,19.8437463 36.188,20.035 C36.375,20.654 36.55,21.284 36.713,21.914 L37.098,21.894 Z M35.067,8.119 L35.242,8.096 L35.826,8.049 L34.985,7.605 C35.021,7.773 35.04,7.948 35.067,8.123 L35.067,8.119 Z M21.607,45.066 L21.175,45.299 C20.9742389,45.4095456 20.7793133,45.5303728 20.591,45.661 C20.96196,45.9206029 21.2980426,46.2267741 21.591,46.572 C21.5301252,46.4340331 21.4871109,46.2888599 21.463,46.14 C21.4320262,45.8939006 21.4479743,45.6441606 21.51,45.404 C21.535831,45.2907739 21.5685587,45.1792326 21.608,45.07 L21.607,45.066 Z M38.896,36.287 C38.5987021,36.4624657 38.3242801,36.6740763 38.079,36.917 C36.935,38.038 35.242,40.046 35.242,40.046 L37.842,36.046 C37.6354383,35.6632183 37.2379154,35.4221794 36.803,35.416 C36.7027982,35.7550726 36.5531921,36.0775342 36.359,36.373 C34.5557709,39.0486885 32.1535115,41.2670806 29.343,42.852 C29.471,43.015 29.611,43.214 29.763,43.436 C30.7271539,43.1103349 31.6574977,42.6920486 32.541,42.187 L32.658,42.105 L32.541,42.187 C32.202,42.432 31.175,43.144 29.996,43.821 C29.9969061,43.8299208 30.0012015,43.8381535 30.008,43.844 L30.65,44.077 C34.4301867,42.6461599 37.8839988,40.4696733 40.806,37.677 C40.3626684,36.9950996 39.6826629,36.5013921 38.897,36.291 L38.896,36.287 Z M34.378,49.654 C34.0268006,48.3950216 33.3411991,47.2546562 32.394,46.354 C31.8628096,45.8527385 31.2610961,45.4319433 30.608,45.105 L30.538,45.082 C30.538,45.094 30.55,45.117 30.55,45.129 C30.6346897,45.432614 30.6624906,45.7492738 30.632,46.063 C30.597596,46.4158392 30.4641288,46.7517604 30.247,47.032 L32.232,49.904 L29.594,47.546 C29.3081128,47.6606473 29.0019369,47.7160992 28.694,47.709 C28.4433726,47.7087846 28.1933041,47.6853511 27.947,47.639 C28.280305,48.9354237 28.9335862,50.1274899 29.847,51.106 L30.747,51.888 C31.1355185,52.1744134 31.5543721,52.4172077 31.996,52.612 C32.870012,53.0044128 33.807028,53.2377355 34.763,53.301 C34.8096259,52.4031366 34.7586608,51.5028647 34.611,50.616 L34.378,49.654 Z M40.53,31.571 C40.1250619,31.2889826 39.7962739,30.9110653 39.573,30.471 L39.373,30.471 L38.451,30.378 L38.229,30.471 C38.346,31.638 38.404,32.619 38.439,33.378 C38.6946931,33.5168582 38.9335918,33.6846242 39.151,33.878 C40.2070279,34.0580887 41.1834542,34.5546712 41.951,35.302 C42.2610023,34.2188105 42.7460712,33.1936127 43.387,32.267 L43.294,32.057 C42.3452767,32.2571314 41.3559224,32.0845404 40.531,31.575 L40.53,31.571 Z M22.447,47.412 L22.33,47.342 L22.213,47.424 C22.6503043,48.1923994 22.9545898,49.0291845 23.113,49.899 C23.5401338,49.1971973 23.8663351,48.438754 24.082,47.646 C23.5266402,47.7205651 22.9614667,47.6413578 22.448,47.417 L22.447,47.412 Z M22.692,43.312 C20.6112255,42.4988188 18.7338787,41.2396311 17.192,39.623 C16.0795359,38.4954641 15.1463779,37.2041515 14.425,35.794 L14.413,35.794 C14.3633654,35.6718279 14.3206314,35.5469646 14.285,35.42 C13.9371821,35.4611781 13.6231651,35.6479891 13.421,35.934 L16.106,40.055 C16.106,40.055 14.406,38.047 13.269,36.926 C13.0128991,36.67388 12.7267491,36.4542297 12.417,36.272 C11.5703484,36.4412666 10.8311265,36.9525346 10.374,37.685 C10.549,37.872 10.829,38.129 11.191,38.444 C12.9372339,38.5359965 14.5567732,39.3841006 15.627,40.767 C16.0622312,41.2890946 16.4630758,41.8389197 16.827,42.413 C18.1805352,43.1587525 19.5990338,43.7799732 21.065,44.269 L21.427,44.094 C20.5557972,43.5961279 19.71038,43.0544335 18.894,42.471 L18.777,42.389 L18.894,42.471 C19.9024992,43.0297968 20.9619548,43.4912158 22.058,43.849 L22.35,43.756 C22.4567881,43.6045658 22.5712717,43.4587076 22.693,43.319 L22.692,43.312 Z M29.299,46.612 C29.5174648,46.4614111 29.658347,46.2220943 29.684,45.958 C29.7022509,45.7700265 29.6863275,45.5803017 29.637,45.398 C29.5540735,45.0901079 29.4366638,44.7925583 29.287,44.511 C29.0605086,44.0826126 28.7946992,43.6761988 28.493,43.297 C27.7973976,43.6510497 27.0706607,43.9402715 26.322,44.161 L26.24,44.184 L26.147,44.184 C25.3080717,44.0826934 24.4798112,43.9070017 23.672,43.659 C23.348765,43.9967973 23.0630967,44.3686356 22.82,44.768 C22.6378478,45.0372753 22.5073001,45.3380437 22.435,45.655 C22.4050324,45.7691241 22.3972248,45.8879357 22.412,46.005 C22.4554442,46.2621529 22.6338344,46.4760683 22.879,46.565 C23.8151562,46.7876121 24.7992222,46.6846203 25.669,46.273 L26.206,44.873 L26.661,46.251 C27.572,46.624 28.844,46.951 29.299,46.613 L29.299,46.612 Z" id="Path_26436" fill="#E21E25"></path>
                    <path d="M16.098,18.921 L16.32,19.855 C17.1277744,19.3819946 17.9753303,18.9804679 18.853,18.655 L18.433,17.908 C17.37,18.326 16.54,18.711 16.098,18.921 Z M42.714,24.349 C44.302,23.742 44.5,23.158 43.846,22.89 C43.192,22.622 44.605,21.209 45.846,20.298 C43.8732534,20.7114415 42.1135343,21.8170743 40.885,23.415 C40.2690726,24.2323282 39.7957379,25.1478929 39.485,26.123 C39.4867794,26.2124986 39.4827711,26.3020186 39.473,26.391 C39.4747985,26.4495867 39.4707788,26.5082072 39.461,26.566 C39.8333238,26.6607304 40.2114725,26.7308816 40.593,26.776 C40.9635172,25.7267038 41.7227592,24.8597146 42.714,24.354 L42.714,24.349 Z M7.004,41.731 L7.459,40.389 C6.93439378,41.0639807 6.50970346,41.8109776 6.198,42.607 L6.14,42.735 C6.39825455,43.6506359 6.85239965,44.4992151 7.471,45.222 C9.29198272,47.2121847 11.659356,48.6212692 14.277,49.273 C14.2752514,49.226018 14.2792816,49.1789991 14.289,49.133 C14.3280816,48.4180164 14.502501,47.7169455 14.803,47.067 C9.362,46.635 7.004,41.732 7.004,41.732 L7.004,41.731 Z M44.904,22.096 C44.67,22.948 47.379,22.61 47.052,23.275 C46.725,23.94 44.005,24.722 43.608,27.034 L44.332,27.069 C45.616,27.127 47.11,27.162 48.78,27.162 L49.78,27.162 C51.052,27.15 52.208,27.127 53.224,27.08 C54.8940178,27.0538478 56.5583358,26.8781457 58.197,26.555 C58.185,26.508 58.162,26.462 58.15,26.403 C57.8493888,25.3126249 57.3422068,24.2901135 56.656,23.391 C54.905,21.138 52.256,19.991 48.776,19.991 L48.589,19.991 C48.2550661,19.9887746 47.9212531,20.0044638 47.589,20.038 C47.355,20.05 47.122,20.085 46.889,20.108 C46.27,20.54 45.08,21.474 44.904,22.093 L44.904,22.096 Z M39.254,45.817 C39.149,46.109 38.81,46.786 38.518,47.346 C39.6379554,46.5793522 40.6853311,45.7117274 41.647,44.754 L41.717,44.696 C41.437,44.673 41.052,44.614 40.643,44.544 C39.8278505,44.6066154 39.0393804,44.8626968 38.343,45.291 C38.343,45.291 39.445,45.281 39.259,45.818 L39.254,45.817 Z M48.78,28.376 L49.78,28.376 C53.4228421,28.4211519 57.063885,28.1908289 60.672,27.687 C60.182,27.582 59.493,27.487 58.617,27.395 C57.7167744,27.6593834 56.7874835,27.8121941 55.85,27.85 C54.204,28.002 52.079,28.084 49.791,28.107 L48.775,28.107 C46.102,28.107 43.592,28.014 41.701,27.839 C40.8556528,27.7890271 40.0160176,27.6679323 39.191,27.477 L38.934,27.384 L38.117,27.477 C37.617,27.547 37.206,27.605 36.88,27.677 C37.137,27.724 37.464,27.782 37.837,27.829 C38.21,27.876 38.537,27.922 38.946,27.957 C42.2157874,28.2681435 45.4995916,28.4083344 48.784,28.377 L48.78,28.376 Z M49.38,33.536 C49.462,35.077 49.508,39.875 46.741,41.731 L41.675,42.49 C41.675,42.49 40.496,42.642 38.348,45.29 C38.8468688,44.8041124 39.3773625,44.3517897 39.936,43.936 C40.415,43.644 43.076,43.924 43.111,43.924 L43.73,43.971 C45.2089727,44.0887862 46.6970774,44.0063753 48.154,43.726 C51.971,40.352 51.201,35.017 50.909,33.581 C50.3989348,33.6026179 49.8879779,33.5879141 49.38,33.537 L49.38,33.536 Z M13.086,2.336 C9.175,3.363 6.841,6.072 6.841,9.585 C6.841,9.885 6.864,10.192 6.888,10.496 C6.91292657,10.9116774 6.96739743,11.3250544 7.051,11.733 C7.58597006,14.2775418 9.15486438,16.4850786 11.382,17.827 C12.5882541,18.6003223 13.9025609,19.1904124 15.282,19.578 L15.002,18.411 L15.329,18.236 C15.422,18.189 16.31,17.736 17.64,17.185 C14.22,15.527 9.247,10.811 12.865,5.768 C14.5650563,3.27946956 17.6654437,2.15608244 20.565,2.978 C18.2254239,1.89016964 15.5772783,1.66178965 13.086,2.333 L13.086,2.336 Z M24.409,49.498 C24.1055002,50.1389505 23.7293674,50.7429104 23.288,51.298 C23.288,51.391 23.3,51.485 23.3,51.566 C23.825,51.601 24.362,51.624 24.9,51.624 C26.1944904,51.6259266 27.4869139,51.520566 28.764,51.309 C28.4583175,50.9469106 28.1883927,50.5560891 27.958,50.142 C26.7520971,50.0798676 25.5592501,49.8624057 24.409,49.495 L24.409,49.498 Z" id="Path_26437" fill="#ABBCCE"></path>
                    <path d="M49.741,29.322 L48.982,29.322 L50.056,29.822 C50.1138273,30.7971944 49.8515252,31.7645872 49.309,32.577 L49.321,32.577 C49.706,32.612 50.115,32.635 50.558,32.635 C51.2381183,32.0195839 51.6357821,31.1519538 51.658,30.235 L51.682,29.861 L52.056,29.803 C52.5979104,29.6987659 53.1210837,29.5137 53.608,29.254 C52.375,29.287 51.084,29.322 49.741,29.322 Z M15.292,35.404 C15.982309,36.7171697 16.8579447,37.9241998 17.892,38.988 C18.6828538,39.8085694 19.5641423,40.5368821 20.519,41.159 C19.398,39.665 16.445,35.614 16.071,34.19 C15.616,32.427 16.526,26.205 16.526,26.205 C17.3649252,25.6564102 17.8528221,24.7064552 17.81,23.705 C19.164,22.619 19.21,20.436 19.176,19.561 L18.627,19.783 C18.627,20.67 18.475,22.456 17.203,23.203 C17.3439081,24.1443924 16.9476994,25.0857256 16.176,25.643 L15.546,30.721 C15.546,30.721 15.231,28.526 15.196,26.869 L14.822,26.469 C14.6194868,26.2691384 14.3919248,26.0963661 14.145,25.955 C14.414,26.585 14.892,28.021 14.028,28.855 C13.5392906,29.3463246 12.863926,29.6054084 12.172,29.567 C12.903439,29.9405073 13.7776354,29.9005984 14.472,29.462 L15.324,29.007 L15.172,29.964 C15.16,29.999 14.565,33.641 15.289,35.404 L15.292,35.404 Z M22.292,50.977 C22.2394391,50.3793074 22.1258473,49.7885632 21.953,49.214 C21.0942585,49.0860262 20.2218773,49.0782852 19.361,49.191 C17.9024323,49.3026521 16.4954554,48.6260522 15.672,47.417 C15.5663913,47.6168857 15.4841817,47.8282816 15.427,48.047 C15.2739386,48.5417715 15.2029985,49.0582833 15.217,49.576 C15.2147412,49.6269672 15.2187715,49.6780186 15.229,49.728 C15.5655515,50.1118686 16.0021104,50.3947145 16.49,50.545 C16.788732,50.6484958 17.0979137,50.7189168 17.412,50.755 C17.8105023,50.7986155 18.2121191,50.8063131 18.612,50.778 L19.277,50.72 L19.289,50.72 C20.1971078,50.6848159 21.0951677,50.9204696 21.869,51.397 L21.927,51.432 L22.336,51.701 C22.3374971,51.626805 22.333486,51.5526013 22.324,51.479 C22.3230664,51.3117553 22.3113756,51.1447438 22.289,50.979 L22.292,50.977 Z" id="Path_26438" fill="#DA6327"></path>
                    <path d="M49.38,33.537 L49.111,33.514 C48.772,33.479 48.457,33.432 48.154,33.374 C47.4357093,33.2523825 46.731952,33.056671 46.054,32.79 C44.9704463,34.0075905 44.2717361,35.5187948 44.046,37.133 C44.0333509,37.2470424 44.0139839,37.3602391 43.988,37.472 L43.988,37.472 C43.870179,38.3225967 43.8273476,39.1819031 43.86,40.04 L43.136,38.219 C42.681,38.231 41.969,38.219 41.618,38.219 C40.2648342,39.5361924 38.791791,40.7243356 37.218,41.768 C35.8802096,42.6813708 34.4663314,43.4779737 32.992,44.149 L36.564,44.359 L36.564,48.57 C37.241,48.185 37.895,47.776 38.525,47.333 C38.817,46.773 39.155,46.096 39.26,45.804 C39.447,45.267 38.349,45.279 38.349,45.279 C40.497,42.629 41.676,42.479 41.676,42.479 L46.742,41.72 C49.504,39.876 49.462,35.078 49.38,33.537 Z M14.919,41.393 C14.814,41.265 14.697,41.16 14.592,41.043 C14.0723022,40.5041535 13.4594403,40.0637332 12.783,39.743 C12.1838583,39.4571488 11.516913,39.3439136 10.857,39.416 C10.5950772,39.4424513 10.3389463,39.5099429 10.098,39.616 C9.45327191,39.9013899 8.93459759,40.4118877 8.639,41.052 C8.51981606,40.1899674 8.87167496,39.3301647 9.561,38.799 L9.993,38.636 L9.693,38.344 C8.84040376,38.8951856 8.08656034,39.5858144 7.463,40.387 L7.008,41.729 C7.008,41.729 9.366,46.629 14.808,47.064 C15.2910441,46.0214842 16.1380661,45.1911751 17.19,44.729 C16.945,44.329 16.571,43.737 16.174,43.129 C15.7912147,42.525448 15.3721091,41.9457131 14.919,41.393 Z M18.433,17.905 L18.853,18.652 C21.0968563,17.8185446 23.4606655,17.3532119 25.853,17.274 C28.4245229,17.1116424 31.0054961,17.359748 33.499,18.009 L33.674,17.402 C31.2776028,16.539811 28.7497794,16.0999541 26.203,16.1019929 C23.5279258,16.2477989 20.8986632,16.858248 18.433,17.906 L18.433,17.905 Z M47.057,23.275 C47.384,22.61 44.676,22.948 44.909,22.096 C45.084,21.477 46.275,20.543 46.894,20.096 C46.532,20.154 46.182,20.213 45.843,20.296 C44.606,21.207 43.298,22.666 43.843,22.888 C44.388,23.11 44.298,23.74 42.711,24.347 C41.7170875,24.8533337 40.956163,25.7227571 40.586,26.775 C41.333,26.868 42.349,26.962 43.609,27.032 C44.01,24.723 46.765,23.894 47.057,23.276 L47.057,23.275 Z M34.449,16.691 L34.823,16.866 L34.601,17.625 C36.5448883,17.8740576 38.4804117,17.1070238 39.726,15.594 C40.3935628,14.5796232 40.3078669,13.2456232 39.516,12.325 C37.193,8.998 33.399,11.169 33.236,11.263 L32.244,11.847 L32.536,10.726 C32.571,10.563 33.575,6.526 30.248,5.146 C28.2852983,4.30969832 26.0232912,4.60494251 24.341,5.917 L23.897,6.302 C23.897,6.302 22.788,7.178 21.971,6.967 C22.6284116,6.68450936 23.154134,6.16307563 23.442,5.508 C23.0533882,4.90067547 22.5730236,4.35722927 22.018,3.897 C21.6451536,3.5977809 21.2466047,3.33208164 20.827,3.103 L20.57,2.975 C17.6704437,2.15308244 14.5700563,3.27646956 12.87,5.765 C9.251,10.808 14.224,15.524 17.645,17.182 C20.3569743,15.9999125 23.2595928,15.3156682 26.214,15.162 C29.0325354,15.1297964 31.8301239,15.6495669 34.449,16.692 L34.449,16.691 Z M33.013,45.619 C34.0616755,46.6193485 34.8336916,47.8740039 35.254,49.261 L35.499,49.144 L35.499,45.37 L32.511,45.195 C32.674,45.323 32.849,45.463 33.011,45.615 L33.013,45.619 Z M18.292,44.719 L18.292,44.719 C18.7689916,44.8076787 19.2347893,44.9485246 19.681,45.139 L20.008,44.894 C19.249,44.614 18.525,44.31 17.848,43.983 L18.292,44.719 Z M26.192,47.089 C25.8430227,47.2349437 25.4841195,47.3559147 25.118,47.451 C24.9465556,48.153205 24.7081297,48.8373398 24.406,49.494 C25.5564745,49.8597083 26.7493166,50.0754887 27.955,50.136 C27.4622812,49.2678799 27.1003821,48.3317945 26.881,47.358 L26.192,47.089 Z" id="Path_26439" fill="#FFFFFF"></path>
                    <path d="M24.164,39.455 C26.674,40.832 27.993,39.233 27.993,39.233 C26.767,40.156 24.164,39.455 24.164,39.455 Z M30.433,25.376 C30.9,25.376 31.274,24.746 31.274,23.952 C31.274,23.158 30.901,22.516 30.433,22.516 C29.965,22.516 29.581,23.158 29.581,23.952 C29.581,24.746 29.966,25.377 30.433,25.377 L30.433,25.376 Z M60.913,26.765 C60.458,26.672 59.874,26.578 59.162,26.497 C58.8589001,25.1662929 58.2737219,23.9161394 57.446,22.831 C56.115,21.092 53.535,19.025 48.784,19.025 L48.27,19.025 C44.6415398,9.2545147 35.3214788,2.76943354 24.899,2.763 C24.023,2.763 23.148,2.81 22.284,2.891 C19.5005242,1.0498167 16.0558714,0.5048875 12.84,1.397 C8.556,2.518 5.894,5.646 5.894,9.569 C5.89236563,10.1827319 5.93917767,10.7956353 6.034,11.402 C-1.69133812,20.3714235 -2.03786612,33.5386514 5.205,42.902 C5.38,43.754 6.699,48.19 14.474,50.302 C14.9681812,50.8767652 15.6223025,51.2913785 16.353,51.493 C16.2843426,52.2656493 16.2803287,53.0426827 16.341,53.816 L16.376,54.225 L16.796,54.248 L16.948,54.248 C18.1361699,54.2261311 19.3076474,53.9642154 20.392,53.478 C20.9379654,53.2326212 21.4548326,52.9270624 21.933,52.567 L23.287,52.497 C23.824,52.532 24.361,52.555 24.898,52.555 C26.4601867,52.5549196 28.0188406,52.4065879 29.553,52.112 C30.1680845,52.6763218 30.8705135,53.1372908 31.633,53.477 C32.7176567,53.9622994 33.8889451,54.2241728 35.077,54.247 L35.229,54.247 L35.649,54.224 L35.684,53.815 C35.7893129,52.6098138 35.7263758,51.3958347 35.497,50.208 C38.0969001,48.9767268 40.4649461,47.3062394 42.497,45.27 L42.897,44.861 C43.714,44.919 44.438,44.943 45.057,44.943 C46.2226833,44.9874371 47.389003,44.8733954 48.524,44.604 L48.617,44.569 L48.687,44.511 C50.8033879,42.6144436 52.0412071,39.9270729 52.107,37.086 C52.1906908,35.6974226 52.0649496,34.3041565 51.734,32.953 L51.687,32.801 C52.165885,32.1762502 52.4683991,31.434469 52.563,30.653 C53.5742885,30.4161199 54.4997712,29.9026553 55.236,29.17 C56.252,29.112 57.197,29.053 58.049,28.97 C59.0084984,28.8981461 59.9632893,28.7732888 60.909,28.596 C61.586,28.444 62.309,28.246 62.309,27.674 C62.309,27.102 61.593,26.906 60.913,26.766 L60.913,26.765 Z M48.593,19.983 L48.78,19.983 C52.259,19.983 54.909,21.127 56.66,23.383 C57.3461856,24.2821267 57.8533655,25.3046338 58.154,26.395 C58.166,26.453 58.189,26.5 58.201,26.547 C56.562335,26.8701403 54.8980175,27.0458425 53.228,27.072 C52.212,27.119 51.057,27.142 49.784,27.154 L48.784,27.154 C47.115,27.154 45.62,27.119 44.336,27.061 L43.612,27.026 C42.351,26.956 41.336,26.863 40.589,26.769 C40.2074717,26.7238873 39.8293226,26.653736 39.457,26.559 C39.4667854,26.501208 39.4708051,26.4425868 39.469,26.384 C39.4788046,26.2950212 39.4828131,26.205499 39.481,26.116 C39.7917734,25.1409076 40.2651052,24.2253487 40.881,23.408 C42.1095343,21.8100743 43.8692534,20.7044415 45.842,20.291 C46.181,20.209 46.531,20.151 46.893,20.091 C47.1243153,20.0506367 47.3582724,20.027241 47.593,20.021 C47.925415,19.9904762 48.2592272,19.9777913 48.593,19.983 L48.593,19.983 Z M47.251,19.107 C44.4518465,19.2771462 41.8576742,20.6315128 40.118,22.831 C39.7048036,23.380912 39.3489509,23.9716542 39.056,24.594 C38.9023204,24.3246443 38.6986829,24.0870672 38.456,23.894 C37.6473283,23.2306278 36.4854983,23.22105 35.666,23.871 C35.2751475,22.1815942 34.7998849,20.512835 34.242,18.871 L34.335,18.556 C36.6817474,18.9070107 39.037047,17.9763337 40.51,16.116 C41.396949,14.7764406 41.3069169,13.0151378 40.288,11.773 C39.2313399,10.1482041 37.3258075,9.28680976 35.408,9.567 C34.7881809,9.6481524 34.1806489,9.80498901 33.599,10.034 C33.6590081,9.45565804 33.6549838,8.87245875 33.587,8.295 C33.4488646,6.7519132 32.5754831,5.36998992 31.241,4.583 C38.5799561,6.61191045 44.5217548,12.0012339 47.255,19.108 L47.251,19.107 Z M37.34,25.644 C36.8873582,25.6337681 36.4497055,25.8064498 36.126,26.123 C36.056,25.723 35.974,25.329 35.893,24.923 C36.3662751,24.3196926 37.2307936,24.1962529 37.854,24.643 C38.2653939,24.9786754 38.5085442,25.4781388 38.519,26.009 C38.461,26.219 38.414,26.383 38.391,26.499 L37.726,26.581 C37.8756987,26.4227537 37.9189825,26.191566 37.8366713,25.989882 C37.7543601,25.788198 37.5616751,25.6533138 37.344,25.645 L37.34,25.644 Z M45.22,32.286 C44.0807712,33.6157 43.34737,35.2445933 43.107,36.979 C43.084,37.084 43.072,37.189 43.049,37.279 L41.683,37.279 C41.0182879,36.1181062 39.8089577,35.3748014 38.473,35.306 C38.1152602,34.8240167 37.5655904,34.5214429 36.967,34.477 C36.979,34.314 36.979,34.138 36.979,33.963 C36.944,32.982 36.862,31.348 36.617,29.329 C37.1597847,29.3264407 37.6890484,29.1594332 38.135,28.85 L39.513,28.99 L40.704,29.083 C40.7058617,29.5898548 40.9538539,30.0642098 41.369,30.355 C42.0605158,30.7289782 42.8889788,30.7505257 43.599,30.413 C43.832,30.308 44.253,30.518 44.556,30.74 C44.5372467,31.3270432 44.7810128,31.8919208 45.221,32.281 L45.22,32.286 Z M29.764,43.434 C29.612,43.212 29.472,43.014 29.344,42.85 C32.1545115,41.2650806 34.5567709,39.0466885 36.36,36.371 C36.5541921,36.0755342 36.7037982,35.7530726 36.804,35.414 C37.2389154,35.4201794 37.6364383,35.6612183 37.843,36.044 L35.243,40.044 C35.243,40.044 36.936,38.036 38.08,36.915 C38.3252258,36.6720143 38.5996559,36.4603974 38.897,36.285 C39.6849381,36.4951203 40.3669273,36.9900435 40.811,37.674 C37.888982,40.4666517 34.4351745,42.6431354 30.655,44.074 L30.013,43.841 C30.0062015,43.8351535 30.0019061,43.8269208 30.001,43.818 C31.18,43.141 32.207,42.429 32.546,42.184 C31.6623022,42.6901574 30.7316157,43.1094519 29.767,43.436 L29.764,43.434 Z M21.464,46.142 C21.4881852,46.2908429 21.5311968,46.4360069 21.592,46.574 C21.2990665,46.228751 20.9629808,45.9225769 20.592,45.663 C20.7803074,45.5323639 20.9752335,45.4115364 21.176,45.301 L21.608,45.068 C21.5701143,45.1789973 21.5390563,45.2922088 21.515,45.407 C21.4524888,45.6474129 21.4362003,45.8975098 21.467,46.144 L21.464,46.142 Z M21.429,44.087 L21.067,44.262 C19.6010238,43.7729989 18.182523,43.1517772 16.829,42.406 C16.4651318,41.8318816 16.0642847,41.2820529 15.629,40.76 C14.5586856,39.3772052 12.9391978,38.5291281 11.193,38.437 C10.831,38.122 10.551,37.865 10.376,37.678 C10.8331265,36.9455346 11.5723484,36.4342666 12.419,36.265 C12.7287435,36.4472381 13.0148924,36.6668876 13.271,36.919 C14.403,38.04 16.108,40.048 16.108,40.048 L13.423,35.927 C13.6250774,35.6408943 13.9391406,35.4540558 14.287,35.413 C14.3225991,35.5399747 14.3653337,35.6648398 14.415,35.787 L14.427,35.787 C15.1479721,37.1974462 16.0807953,38.4890994 17.193,39.617 C18.7348787,41.2336311 20.6122255,42.4928188 22.693,43.306 C22.588,43.434 22.471,43.574 22.354,43.738 L22.062,43.831 C20.9659717,43.4735876 19.9065124,43.0125018 18.898,42.454 C19.7141316,43.0411896 20.5595535,43.5865585 21.431,44.088 L21.429,44.087 Z M20.005,44.904 L19.678,45.149 C19.231792,44.958517 18.7659935,44.8176708 18.289,44.729 L18.289,44.729 L17.845,44.005 C18.522,44.32 19.245,44.624 20.005,44.905 L20.005,44.904 Z M16.176,25.642 C16.9476994,25.0847256 17.3439081,24.1433924 17.203,23.202 C18.475,22.455 18.627,20.669 18.627,19.782 L19.176,19.56 C21.3255175,18.7523563 23.5929447,18.302722 25.888,18.229 C27.8521743,18.1417498 29.8200969,18.2590477 31.76,18.579 C31.8278396,19.7292075 32.3842827,20.7955113 33.289,21.509 C33.2224628,22.494174 33.7768002,23.4164732 34.678,23.82 C34.958,25.046 35.192,26.22 35.367,27.334 C35.2904025,27.4345362 35.2492603,27.5576111 35.25,27.684 C35.2510097,27.8765491 35.3415665,28.0576628 35.495,28.174 C35.778678,30.1006465 35.9539538,32.0417015 36.02,33.988 C36.0683901,34.6354211 35.9089975,35.2813991 35.565,35.832 C33.3043979,39.2425258 30.0050483,41.8338951 26.156,43.222 C24.1448923,42.9674025 22.2174459,42.2611052 20.518,41.156 C19.5631423,40.5338821 18.6818538,39.8055694 17.891,38.985 C16.8569553,37.9211909 15.9813208,36.7141624 15.291,35.401 C14.567,33.638 15.163,30.001 15.174,29.961 L15.326,29.004 L14.474,29.459 C13.7796354,29.8975984 12.905439,29.9375073 12.174,29.564 C11.9414263,29.4273657 11.7357264,29.2494539 11.567,29.039 C10.9274298,28.2578841 10.9672452,27.1233588 11.66,26.389 C12.0037187,25.9508441 12.5173636,25.6792994 13.073,25.642 L13.093,25.642 C13.4641852,25.657325 13.8255754,25.7656389 14.144,25.957 C14.3909186,26.0983755 14.6184794,26.271147 14.821,26.471 L15.195,26.871 C15.23,28.529 15.545,30.723 15.545,30.723 L16.176,25.642 Z M16.093,18.917 C16.537,18.707 17.365,18.317 18.428,17.901 C20.8954768,16.8540577 23.526471,16.244953 26.203,16.1009929 C28.7497794,16.0989541 31.2776028,16.538811 33.674,17.401 L33.499,18.008 C31.0054902,17.3587816 28.4245223,17.1106765 25.853,17.273 C23.4607206,17.3518912 21.096913,17.816886 18.853,18.65 C17.9753402,18.9754915 17.1277863,19.3770172 16.32,19.85 L16.093,18.917 Z M22.432,45.65 C22.5043443,45.3330582 22.6348887,45.0322977 22.817,44.763 C23.0600577,44.3636089 23.3457292,43.9917666 23.669,43.654 C24.4768072,43.9020171 25.3050691,44.077709 26.144,44.179 L26.237,44.179 L26.319,44.156 C27.0676792,43.9353252 27.794421,43.6461014 28.49,43.292 C28.7917086,43.671192 29.0575186,44.0776067 29.284,44.506 C29.4336793,44.7875512 29.5510897,45.0851026 29.634,45.393 C29.6833058,45.5753055 29.6992288,45.7650264 29.681,45.953 C29.655347,46.2170943 29.5144648,46.4564111 29.296,46.607 C28.841,46.946 27.568,46.619 26.658,46.233 L26.203,44.855 L25.666,46.255 C24.7962222,46.6666203 23.8121562,46.7696121 22.876,46.547 C22.6307093,46.4582467 22.4522463,46.2442439 22.409,45.987 C22.3976238,45.8752822 22.4067743,45.7624258 22.436,45.654 L22.432,45.65 Z M36.254,26.855 L36.219,26.655 C36.3960378,26.7431044 36.5979409,26.7678129 36.791,26.725 C37.421,26.62 36.861,25.849 37.398,25.99 C37.935,26.131 37.655,26.422 37.55,26.609 C37.211,26.656 36.908,26.702 36.65,26.761 L36.254,26.855 Z M24.9,3.717 C25.53,3.717 26.149,3.752 26.768,3.799 C25.8329238,3.964349 24.9424235,4.3222518 24.153,4.85 C23.8975529,4.4669885 23.6084039,4.10756026 23.289,3.776 C23.814,3.745 24.363,3.717 24.9,3.717 Z M13.086,2.328 C15.5781752,1.65487819 18.2279013,1.88221003 20.569,2.97 L20.826,3.098 C21.2455777,3.32712623 21.6441228,3.59282294 22.017,3.892 C22.5720011,4.35225246 23.0523625,4.89569493 23.441,5.503 C23.153134,6.15807563 22.6274116,6.67950936 21.97,6.962 C22.787,7.172 23.896,6.297 23.896,6.297 L24.34,5.912 C26.0075656,4.56501439 28.2898565,4.26750905 30.247,5.142 C33.667,6.555 32.57,10.559 32.535,10.722 L32.243,11.843 L33.235,11.259 C33.398,11.166 37.192,8.994 39.516,12.321 C40.3078669,13.2416232 40.3935628,14.5756232 39.726,15.59 C38.4804117,17.1030238 36.5448883,17.8700576 34.601,17.621 L34.823,16.862 L34.449,16.687 C31.827872,15.6440098 29.0278195,15.124563 26.207,15.158 C23.2525959,15.3116898 20.3499812,15.9959332 17.638,17.178 C16.307,17.727 15.42,18.178 15.327,18.229 L15,18.404 L15.28,19.571 C13.9005559,19.1834263 12.586247,18.5933353 11.38,17.82 C9.15278041,16.4781692 7.58385691,14.2705913 7.049,11.726 C6.96499795,11.3180894 6.91019228,10.9047076 6.885,10.489 C6.862,10.189 6.838,9.882 6.838,9.578 C6.84,6.068 9.175,3.36 13.086,2.333 L13.086,2.328 Z M0.956964359,27.672 C0.947512375,22.188685 2.83248213,16.8704279 6.293,12.617 C7.02283167,15.127689 8.66312617,17.2757616 10.893,18.641 C12.3179281,19.553808 13.8840827,20.2245344 15.528,20.626 L15.633,21.046 C15.318,22.446 15.003,24.246 14.839,25.26 C14.3243592,24.9118059 13.7211171,24.7175474 13.1,24.7 L13.065,24.7 C12.2451842,24.7271575 11.4781282,25.1110508 10.965,25.751 C9.96259613,26.8290959 9.90298781,28.4793948 10.825,29.627 C11.603277,30.618759 12.9151629,31.0236423 14.117,30.643 C13.9553921,31.9177824 13.94767,33.2073737 14.094,34.484 C13.5434033,34.5596982 13.046602,34.8542459 12.716,35.301 C11.3276201,35.3707068 10.0777733,36.1642 9.424,37.391 C7.72189115,38.4158306 6.36751716,39.9290918 5.537,41.734 C2.55377675,37.6545071 0.949370963,32.7298921 0.956964359,27.676 L0.956964359,27.672 Z M14.293,49.133 C14.2832514,49.1789947 14.2792209,49.2260173 14.281,49.273 C11.6577462,48.6349517 9.28663049,47.2236396 7.475,45.222 C6.84216459,44.5090409 6.38618278,43.6570298 6.144,42.735 L6.202,42.607 C6.51370346,41.8109776 6.93839378,41.0639807 7.463,40.389 C8.08658834,39.5878402 8.84042706,38.8972158 9.693,38.346 L9.993,38.638 L9.561,38.801 C8.87167496,39.3321647 8.51981606,40.1919674 8.639,41.054 C8.9331734,40.4143895 9.44997414,39.9036311 10.093,39.617 C10.3339353,39.5109115 10.5900713,39.4434185 10.852,39.417 C11.5119146,39.3448602 12.1788745,39.458098 12.778,39.744 C13.4544291,40.0647522 14.0672877,40.5051702 14.587,41.044 C14.692,41.161 14.809,41.266 14.914,41.394 C15.36554,41.9475517 15.7826584,42.5283115 16.163,43.133 C16.618,43.822 16.933,44.333 17.179,44.733 C16.1274412,45.1953752 15.2807991,46.0256605 14.798,47.068 C14.5007739,47.7182668 14.3294198,48.4189524 14.293,49.133 L14.293,49.133 Z M20.772,52.227 C20.5345047,52.3691775 20.2891077,52.4977188 20.037,52.612 C19.162981,53.0043925 18.2259687,53.2377143 17.27,53.301 C17.2480936,52.7676514 17.2557721,52.2334985 17.293,51.701 C17.6912121,51.747297 18.0923867,51.7630097 18.493,51.748 C18.7942324,51.7364998 19.0946492,51.7091284 19.393,51.666 C19.9714477,51.653305 20.5442852,51.7816701 21.062,52.04 L20.772,52.227 Z M21.939,51.433 L21.881,51.398 C21.1071917,50.9214135 20.2091144,50.6857552 19.301,50.721 L19.289,50.721 L18.624,50.779 C18.224121,50.8073889 17.8224974,50.7996912 17.424,50.756 C17.1099096,50.7199407 16.8007254,50.6495191 16.502,50.546 C16.0140879,50.3957625 15.5775168,50.1129087 15.241,49.729 C15.2307715,49.6790186 15.2267412,49.6279672 15.229,49.577 C15.2149804,49.0592823 15.2859209,48.5427676 15.439,48.048 C15.4961648,47.8292761 15.578375,47.6178783 15.684,47.418 C16.0891465,46.5970666 16.7774595,45.9503081 17.622,45.597 C18.0505041,45.642272 18.4731214,45.7320907 18.883,45.865 C19.2077923,45.9779098 19.5206432,46.1226117 19.817,46.297 C20.2526267,46.5593027 20.6396535,46.8949064 20.961,47.289 C21.4134572,47.8617743 21.752823,48.5153928 21.961,49.215 C22.1337522,49.7895866 22.247342,50.380321 22.3,50.978 C22.3223756,51.1437438 22.3340664,51.3107553 22.335,51.478 C22.344486,51.5516013 22.3484971,51.625805 22.347,51.7 L21.939,51.433 Z M22.219,47.433 L22.336,47.351 L22.453,47.421 C22.9660861,47.6467177 23.531274,47.7273106 24.087,47.654 C23.8713226,48.4467497 23.545122,49.2051912 23.118,49.907 C22.959125,49.0356096 22.6538071,48.1974224 22.215,47.428 L22.219,47.433 Z M24.904,51.624 C24.367,51.624 23.83,51.601 23.304,51.566 C23.304,51.484 23.292,51.391 23.292,51.298 C23.7333674,50.7429104 24.1095002,50.1389505 24.413,49.498 C24.7151297,48.8413398 24.9535556,48.157205 25.125,47.455 C25.4911263,47.3599374 25.850031,47.2389658 26.199,47.093 L26.888,47.362 C27.1073541,48.335803 27.4692547,49.2718925 27.962,50.14 C28.1924087,50.5540791 28.4623324,50.9448992 28.768,51.307 C27.4894534,51.5170841 26.1956861,51.6207728 24.9,51.617 L24.904,51.624 Z M34.768,53.305 C33.8120347,53.2416931 32.8750261,53.0083722 32.001,52.616 C31.5593905,52.4211715 31.1405407,52.1783795 30.752,51.892 L29.852,51.11 C28.9385862,50.1314899 28.285305,48.9394237 27.952,47.643 C28.1982985,47.689391 28.4483707,47.7128248 28.699,47.713 C29.006939,47.720127 29.3131205,47.6646741 29.599,47.55 L32.237,49.908 L30.252,47.036 C30.4691766,46.7557877 30.6026494,46.4198522 30.637,46.067 C30.6674675,45.7532737 30.6396669,45.4366181 30.555,45.133 C30.555,45.121 30.543,45.098 30.543,45.086 L30.613,45.109 C31.2660887,45.4359556 31.8678005,45.8567496 32.399,46.358 C33.3461599,47.2586876 34.0317544,48.3990415 34.383,49.658 L34.616,50.615 C34.7636294,51.5018681 34.8145943,52.4021367 34.768,53.3 L34.768,53.305 Z M35.503,49.149 L35.258,49.266 C34.8376916,47.8790039 34.0656755,46.6243485 33.017,45.624 C32.854,45.472 32.678,45.332 32.517,45.204 L35.505,45.379 L35.503,49.149 Z M48.157,43.732 C46.7000834,44.0124239 45.2119721,44.0948351 43.733,43.977 L43.114,43.93 C43.079,43.93 40.406,43.638 39.939,43.942 C39.3857171,44.3644656 38.8556144,44.816455 38.351,45.296 C39.0473804,44.8676968 39.8358505,44.6116154 40.651,44.549 C41.06,44.619 41.445,44.677 41.725,44.701 L41.655,44.759 C40.6933651,45.7167648 39.6459858,46.5843925 38.526,47.351 C37.896,47.795 37.242,48.203 36.565,48.588 L36.565,44.374 L32.993,44.164 C34.4673135,43.4929385 35.8811887,42.6963372 37.219,41.783 C38.7927807,40.7393215 40.2658226,39.5511793 41.619,38.234 C41.969,38.234 42.681,38.246 43.137,38.234 L43.861,40.055 C43.8283166,39.1969029 43.8711482,38.3375938 43.989,37.487 L43.989,37.487 C44.0149589,37.375234 44.0343256,37.2620388 44.047,37.148 C44.2727941,35.5338119 44.9714969,34.0226236 46.055,32.805 C46.7329589,33.0716505 47.436714,33.2673615 48.155,33.389 C48.455,33.447 48.774,33.494 49.112,33.529 L49.381,33.552 C49.8889082,33.6038914 50.3998636,33.6195976 50.91,33.599 C51.202,35.023 51.972,40.358 48.155,43.732 L48.157,43.732 Z M52.057,29.805 L51.683,29.863 L51.66,30.237 C51.6376651,31.1539267 51.2400214,32.0215129 50.56,32.637 C50.116,32.637 49.708,32.614 49.323,32.579 L49.311,32.579 C48.9776667,32.5403333 48.6626667,32.4936667 48.366,32.439 C47.5980108,32.3161369 46.848701,32.0963841 46.136,31.785 C45.7070087,31.5637348 45.4638669,31.0962776 45.529,30.618 L45.576,30.361 L45.376,30.186 C45.259,30.069 44.176,29.112 43.216,29.544 C42.7991718,29.7403806 42.3173321,29.7447643 41.897,29.556 C41.7617304,29.4581253 41.6796824,29.3028994 41.675,29.136 C43.775,29.264 46.216,29.336 48.784,29.336 L49.741,29.336 C51.083,29.336 52.379,29.301 53.605,29.266 C53.1172959,29.5208589 52.5941536,29.7011947 52.053,29.801 L52.057,29.805 Z M49.793,28.377 L48.793,28.377 C44.52,28.377 41.158,28.202 38.964,27.968 C38.555,27.933 38.182,27.886 37.855,27.84 C37.528,27.794 37.155,27.735 36.898,27.688 C37.225,27.618 37.633,27.56 38.135,27.488 L38.952,27.395 L39.209,27.488 C40.0340176,27.6789323 40.8736528,27.8000271 41.719,27.85 C43.61,28.025 46.119,28.118 48.793,28.118 L49.809,28.118 C52.097,28.095 54.222,28.013 55.868,27.861 C56.8054856,27.8232143 57.7347789,27.6704031 58.635,27.406 C59.51,27.499 60.199,27.593 60.69,27.698 C57.0807486,28.189462 53.4403305,28.4157348 49.798,28.375 L49.793,28.377 Z M12.717,27.128 C12.4494348,27.145485 12.2324649,27.3514422 12.2010787,27.6177349 C12.1696924,27.8840275 12.3328321,28.1347859 12.589,28.214 C12.589,28.214 12.134,27.607 12.671,27.479 C13.208,27.351 12.648,28.109 13.271,28.214 C13.894,28.319 14.018,27.899 14.345,28.004 C14.335,28.003 13.506,27.011 12.712,27.128 L12.717,27.128 Z M21.169,25.377 C21.636,25.377 22.009,24.747 22.009,23.953 C22.009,23.159 21.635,22.517 21.169,22.517 C20.703,22.517 20.317,23.159 20.317,23.953 C20.317,24.747 20.702,25.377 21.169,25.377 Z M18.904,42.467 L18.787,42.385 L18.904,42.467 Z M20.176,34.972 C21.197387,35.0575161 22.2211982,34.8382771 23.118,34.342 L23.188,34.856 L22.546,35.708 C22.8263977,35.7647397 23.1119277,35.7922203 23.398,35.79 C23.5747019,36.4999376 23.9516551,37.1441596 24.484,37.646 C24.9297351,38.0254009 25.4987585,38.2288268 26.084,38.218 C26.3392331,38.218411 26.5937467,38.1909262 26.843,38.136 C27.9833789,37.8333049 28.8248077,36.8671466 28.968,35.696 C29.4506326,35.8151024 29.9544886,35.8192127 30.439,35.708 L29.108,33.735 C30.0285385,34.6172285 31.2805002,35.0669023 32.552,34.972 C33.6481391,34.9502445 34.6531635,34.3570905 35.202,33.408 C35.202,33.408 34.257,34.05 33.031,31.844 C32.1993643,30.5785479 30.8726914,29.7224191 29.377,29.486 C29.6318569,29.1773902 29.7645825,28.7859743 29.75,28.386 C29.5992209,27.0152205 28.9363327,25.751947 27.894,24.849 L27.894,24.265 L26.937,21.778 L26.937,25.278 L27.112,25.43 C28.020477,26.1809154 28.6192019,27.2412391 28.793,28.407 C28.805,28.757 28.583,29.037 28.139,29.236 C26.6899235,29.7512876 25.0762017,29.4580913 23.901,28.466 L22.442,27.392 C22.5856474,28.0345128 22.8641251,28.6391878 23.259,29.166 L23.659,29.493 C22.0699475,29.7211593 20.6337729,30.5634757 19.659,31.839 C18.281,34.045 17.219,33.403 17.219,33.403 C17.8869937,34.3835712 18.9975221,34.9693609 20.184,34.967 L20.176,34.972 Z M25.709,34.925 C26.0753826,35.2626373 26.3247585,35.7081516 26.421,36.197 C26.4646538,35.7283572 26.4332592,35.2557507 26.328,34.797 C26.9722472,34.9800493 27.5359485,35.3749925 27.928,35.918 C27.7590448,36.5522982 27.2581976,37.0443317 26.621,37.202 C26.1015489,37.3894618 25.5213872,37.2824491 25.103,36.922 C24.7329848,36.5862463 24.4726786,36.1468271 24.356,35.661 C24.8570155,35.5250095 25.3190887,35.2732498 25.705,34.926 L25.709,34.925 Z M32.55,42.186 L32.667,42.104 L32.55,42.186 Z" id="Path_26440" fill="#3F3B3B"></path>
                </g>
            </g>
        </g>
    </g>
</svg>